<?xml version="1.0" encoding="UTF-8"?>
<svg width="193px" height="32px" viewBox="0 0 193 32" version="1.1" xmlns="http://www.w3.org/2000/svg" xmlns:xlink="http://www.w3.org/1999/xlink">
    <title>08FFB4E7-4D47-433D-9661-7914E8F69574</title>
    <defs>
        <polygon id="path-1" points="0 0 8.31641022 0 8.31641022 31.0627757 0 31.0627757"></polygon>
        <polygon id="path-3" points="0 32 192.371106 32 192.371106 0 0 0"></polygon>
    </defs>
    <g id="LP-—-SARAY" stroke="none" stroke-width="1" fill="none" fill-rule="evenodd">
        <g id="LP-—-SARAY-——-DESKTOP" transform="translate(-952.000000, -184.000000)">
            <g id="formulaire" transform="translate(846.000000, 144.000000)">
                <g id="titre" transform="translate(106.000000, 40.000000)">
                    <g id="Group-3" transform="translate(0.000000, 0.937224)">
                        <mask id="mask-2" fill="white">
                            <use xlink:href="#path-1"></use>
                        </mask>
                        <g id="Clip-2"></g>
                        <path d="M8.31641022,0 L8.31641022,8.04547866 L8.31641022,17.8712954 C8.31641022,19.7632078 8.26547412,21.6599712 8.06415523,23.2632457 C7.86768741,24.8665201 7.452922,26.2417949 6.81985902,27.3842189 C6.71071023,27.5782612 6.59185932,27.7650269 6.46815736,27.944516 C5.86662624,28.8225574 5.085606,29.5405139 4.11782006,30.0862579 C3.05058743,30.687789 1.67773819,31.0103843 -0.000727658607,31.0637459 L-0.000727658607,30.4185553 C0.0890169029,30.3991511 0.181186993,30.3821724 0.268506026,30.3627681 C0.37280376,30.3360873 0.472250436,30.3094065 0.571697112,30.2827257 C0.988888047,30.1711514 1.37697264,30.0353218 1.72624877,29.8752369 C2.8953536,29.339195 3.79522474,28.6066854 4.42828773,27.6777079 C5.06135072,26.7487304 5.47611612,25.6305617 5.67500947,24.3280528 C5.70169029,24.1606913 5.72594558,24.012734 5.74534981,23.8769044 C5.81569014,23.3311605 5.8714773,22.8072463 5.91756234,22.2420981 C5.9393921,21.9534602 5.9563708,21.6502691 5.9733495,21.3276738 C5.99760479,20.837717 6.01458349,20.3065262 6.02186008,19.6855908 L6.02186008,0 L8.31641022,0 Z" id="Fill-1" fill="#081F2D" mask="url(#mask-2)"></path>
                    </g>
                    <path d="M45.1968165,14.8258016 C45.1968165,12.3008262 44.7238384,10.0111271 43.7754567,7.95670431 C42.827075,5.90228151 41.4275449,4.26504965 39.5841431,3.04258319 C37.7383158,1.82011673 35.5092549,1.21130903 32.9018116,1.21130903 C30.2919427,1.21130903 28.0653074,1.82011673 26.214629,3.04258319 C24.3688016,4.26504965 22.9692716,5.90228151 22.0257409,7.95670431 C21.0797847,10.0111271 20.6043811,12.3008262 20.6043811,14.8258016 C20.6043811,17.3240961 21.0797847,19.599242 22.0257409,21.6536648 C22.9692716,23.7080876 24.3688016,25.3380429 26.214629,26.5483817 C28.0653074,27.756295 30.2919427,28.3626772 32.9018116,28.3626772 C35.5092549,28.3626772 37.7358902,27.756295 39.5841431,26.5483817 C41.4275449,25.3380429 42.827075,23.7080876 43.7754567,21.6536648 C44.7238384,19.599242 45.1968165,17.3240961 45.1968165,14.8258016 M47.7266429,14.8258016 C47.7266429,17.4575002 47.1493671,19.8684757 45.9923899,22.0563026 C44.8378382,24.246555 43.1326916,25.9929356 40.8939286,27.293019 C38.647889,28.5955279 35.982233,29.2479951 32.899386,29.2479951 C29.7607519,29.2479951 27.0659895,28.6028045 24.8223755,27.3148488 C22.581187,26.0244675 20.893019,24.2853635 19.7651482,22.0975366 C18.6348518,19.9097097 18.0672781,17.484181 18.0672781,14.8258016 C18.0672781,12.1407413 18.6348518,9.7055105 19.7651482,7.51525809 C20.893019,5.32500568 22.581187,3.58105056 24.8223755,2.27854165 C27.0659895,0.978458273 29.7607519,0.325991056 32.899386,0.325991056 C36.0404457,0.325991056 38.7279315,0.978458273 40.973971,2.27854165 C43.2200106,3.58105056 44.9033275,5.32500568 46.0336239,7.51525809 C47.1614947,9.7055105 47.7266429,12.1407413 47.7266429,14.8258016" id="Fill-4" fill="#081F2D"></path>
                    <mask id="mask-4" fill="white">
                        <use xlink:href="#path-3"></use>
                    </mask>
                    <g id="Clip-7"></g>
                    <polygon id="Fill-6" fill="#081F2D" mask="url(#mask-4)" points="58.3218373 28.5824301 60.6163875 28.5824301 60.6163875 0.989615705 58.3218373 0.989615705"></polygon>
                    <path d="M100.341939,0.9891306 L100.341939,28.581945 L98.9181536,28.581945 C98.9181536,28.581945 97.1378155,21.0506784 85.9342985,15.0232396 C80.1494126,12.0034564 76.4359281,9.16316228 74.0928674,6.55086788 L74.0928674,28.581945 L71.7958918,28.581945 L71.7958918,3.37827636 C71.4975517,2.90287274 71.1676798,2.41291594 70.8329569,2.07576745 C70.1368301,1.37964072 69.2587888,1.34083226 69.2587888,1.34083226 L69.2587888,0.9891306 L72.1039339,0.9891306 C72.700614,1.67555522 73.2803153,2.75734101 73.6344425,3.2885318 C75.7592056,6.46839991 79.7977109,10.0363526 87.1397863,13.8977943 C92.9125445,17.0267263 96.2064125,20.553445 98.0449632,23.2506329 L98.0449632,0.9891306 L100.341939,0.9891306 Z" id="Fill-8" fill="#081F2D" mask="url(#mask-4)"></path>
                    <path d="M159.395558,6.97970136 L159.397984,6.97970136 L159.397984,13.0580763 L159.397984,18.1177291 C159.397984,21.7099371 158.029986,25.5180171 154.682756,27.2765254 C152.681695,28.3243538 150.321655,28.6202683 148.090169,28.5838854 C145.848981,28.549928 143.607792,28.1666945 141.621284,27.0849087 C139.83852,26.1171227 138.402607,24.6690821 137.604609,22.7917229 C137.037035,21.4552566 136.959418,20.0921095 136.959418,18.6658986 L136.959418,0.988645494 L139.253968,0.988645494 L139.253968,6.97970136 C139.253968,6.97970136 139.278223,13.8585007 139.278223,15.1561586 L139.278223,18.6683241 C139.278223,19.6482377 139.253968,20.6160236 139.5135,21.5741075 C140.049541,23.563041 141.449071,25.1323581 143.243963,26.100144 C145.2523,27.1819298 147.597787,27.4390359 149.846252,27.3080573 C151.869143,27.1892064 154.015736,26.7016751 155.551095,25.292443 C156.97003,23.9875085 157.809262,22.1150004 158.061517,20.2255135 C158.214326,19.1194724 158.168241,17.979474 158.168241,16.8661563 L158.168241,16.4586675 L158.165815,16.4586675 L158.165815,0.991071023 L159.395558,0.991071023 L159.395558,6.97970136 Z" id="Fill-9" fill="#081F2D" mask="url(#mask-4)"></path>
                    <path d="M192.369893,21.9461836 C192.369893,23.333586 191.904192,24.6215417 190.963086,25.8100508 C190.021981,26.9985598 188.695217,27.9566437 186.994922,28.6721746 C185.2922,29.3925567 183.356629,29.7515349 181.195482,29.7515349 C178.425529,29.7515349 176.242553,29.4774502 174.641704,28.9292807 C173.050557,28.3811112 171.561282,27.6486015 170.17388,26.7317517 L170.17388,23.5543091 L170.547412,23.5543091 C171.255666,24.4954142 171.939665,25.2934132 172.596983,25.9458804 C173.050557,26.3994543 173.710301,26.8554536 174.559236,27.3090275 C174.607747,27.3357083 174.67081,27.3672402 174.746002,27.4036231 C176.033957,28.0245585 177.426211,28.3883878 178.852422,28.4781323 C179.58008,28.5242174 180.361101,28.5460471 181.195482,28.5460471 C181.544759,28.5460471 181.889184,28.5339195 182.228758,28.5169408 C182.284545,28.5145153 182.337906,28.5120897 182.393694,28.5072387 C182.500417,28.5023876 182.609566,28.495111 182.713863,28.4878345 C182.842416,28.4757068 182.970969,28.4660047 183.099522,28.4514515 C183.397863,28.4223452 183.691351,28.3859623 183.979989,28.3423027 C184.884712,28.2040476 185.755476,27.9129842 186.565603,27.5006443 C187.678921,26.9694535 188.564239,26.2951565 189.209429,25.4777534 C189.939513,24.5560525 190.298492,23.5591602 190.298492,22.4870765 C190.298492,22.402183 190.296066,22.319715 190.291215,22.237247 C190.283938,22.1062685 190.274236,21.9777155 190.257258,21.851588 C190.167513,21.0972485 189.905556,20.4229516 189.481088,19.8262715 C189.248238,19.4697188 188.9596,19.1325703 188.598196,18.8221026 C187.589176,17.9489123 186.364284,17.25036 184.925946,16.7312969 C184.319563,16.5105738 183.029182,16.1152126 181.71212,15.7198514 L181.709695,15.7198514 C181.176078,15.5597665 180.63276,15.3972561 180.130675,15.2517244 C178.270295,14.7035549 176.455999,14.0025771 174.724172,13.1293868 C174.396726,12.9644508 174.137194,12.8261957 174.018343,12.7461533 C173.268855,12.2440688 172.601834,11.6716441 172.010005,11.0216024 C171.209581,10.1411355 170.741454,9.10058364 170.598348,7.904798 C170.581369,7.75198969 170.566816,7.59675586 170.559539,7.44152202 C170.552263,7.3299477 170.547412,7.21594785 170.547412,7.09952247 C170.547412,5.71454559 170.974305,4.48480255 171.82324,3.41271887 C172.677026,2.34063519 173.863109,1.50382779 175.388767,0.902296672 C176.91685,0.300765557 178.672933,-4.30860448e-15 180.661866,-4.30860448e-15 C181.937694,-4.30860448e-15 183.368756,0.16736148 184.942924,0.509361025 C185.668157,0.664594861 186.357008,0.846509513 187.024028,1.05025392 C187.81475,1.29523232 188.571515,1.56931706 189.287046,1.88221026 L189.287046,5.01841886 L188.913515,5.01841886 C188.236792,4.0239521 187.252028,3.13135754 185.964072,2.34063519 C185.944668,2.32608201 185.876753,2.29455014 185.779732,2.25331615 C184.174032,1.55961495 182.44463,1.20548776 180.698249,1.20548776 L180.659441,1.20548776 C180.171909,1.20548776 179.696506,1.22246646 179.238081,1.25642386 C177.467445,1.38497688 175.769575,2.04229516 174.379747,3.14591071 C174.246343,3.25020844 174.137194,3.34480406 174.062003,3.41999545 C173.916471,3.57037823 173.785492,3.72561207 173.664216,3.88327143 C173.649663,3.8978246 173.63511,3.9148033 173.622982,3.93178201 C173.004472,4.71280224 172.691579,5.61024786 172.691579,6.61926779 C172.691579,6.7041613 172.69643,6.78662927 172.701281,6.86909725 C172.708558,6.98552263 172.715834,7.09467142 172.730387,7.20624574 C172.771621,7.5409687 172.844387,7.85628743 172.953536,8.15705298 C173.169408,8.84832866 173.598727,9.46198742 174.248768,9.9931782 C174.306981,10.0392632 174.367619,10.0804972 174.425832,10.1265823 C174.675661,10.3448799 174.940044,10.5486243 175.226256,10.7378155 C175.28932,10.781475 175.408171,10.8469643 175.556128,10.9270067 C176.072766,11.2593042 176.654893,11.5576442 177.309785,11.8171758 C178.335784,12.2270901 179.757144,12.7170469 181.569014,13.2967483 C183.366331,13.8594709 184.90169,14.3833851 186.170242,14.8733419 C186.52922,15.0237247 186.866369,15.1692564 187.181687,15.3147881 C188.620026,15.9672554 189.847343,16.8428712 190.856363,17.9416357 C191.68832,18.8439324 192.168574,19.906314 192.318957,21.1239294 C192.335936,21.2864398 192.350489,21.4513757 192.360191,21.6211627 C192.367468,21.727886 192.372319,21.8346093 192.369893,21.9461836" id="Fill-10" fill="#081F2D" mask="url(#mask-4)"></path>
                </g>
            </g>
        </g>
    </g>
</svg>