<?xml version="1.0" encoding="UTF-8"?>
<svg width="196px" height="120px" viewBox="0 0 196 120" version="1.1" xmlns="http://www.w3.org/2000/svg" xmlns:xlink="http://www.w3.org/1999/xlink">
    <title>9323B3DF-2BAB-403B-8380-568D5C4E3B41</title>
    <defs>
        <polygon id="path-1" points="0 0 28.175556 0 28.175556 25.9908487 0 25.9908487"></polygon>
        <polygon id="path-3" points="0 0 20.1334435 0 20.1334435 25.990678 0 25.990678"></polygon>
        <polygon id="path-5" points="0 -1.21275619e-14 29.2767851 -1.21275619e-14 29.2767851 25.9903367 0 25.9903367"></polygon>
        <polygon id="path-7" points="2.42551238e-14 -1.21275619e-14 23.7791739 -1.21275619e-14 23.7791739 25.9903367 2.42551238e-14 25.9903367"></polygon>
    </defs>
    <g id="LP-—-SARAY" stroke="none" stroke-width="1" fill="none" fill-rule="evenodd">
        <g id="LP-—-SARAY-——-DESKTOP" transform="translate(-810.000000, -1654.000000)">
            <g id="bloc-2" transform="translate(75.000000, 1624.000000)">
                <g id="titre" transform="translate(735.000000, 30.000000)">
                    <path d="M19.6915523,24.1990473 L19.2290088,26.3615662 L0.210107401,26.3615662 L0.210107401,25.9416928 C0.210107401,25.9416928 5.67187573,20.2768149 10.0754265,15.98762 C12.4256936,13.6987977 14.5250608,11.6711162 15.2197295,10.7067727 C16.4554546,8.99314292 16.6090668,7.10200564 16.6090668,6.38685534 C16.6090668,5.53174724 16.3615804,4.76027246 15.8836757,4.06901741 C15.5286608,3.55526982 15.050756,3.08419231 14.4346003,2.66090526 C14.0403289,2.39123045 13.6170419,2.15910529 13.1698596,1.96282299 C12.388144,1.61975567 11.5227951,1.38763052 10.5755196,1.26474073 C10.2051434,1.20500264 9.82623327,1.16915978 9.44049588,1.16574618 L9.30565848,1.16574618 C9.2544544,1.16574618 9.20325032,1.16915978 9.15204624,1.16915978 C9.09401495,1.16915978 9.03769047,1.16574618 8.97965918,1.16574618 C7.32235385,1.16574618 5.87839885,1.45248902 4.64267376,2.01744068 C4.15452822,2.22225699 3.69369152,2.46291616 3.26187046,2.74283178 C3.08436299,2.85718756 2.92050994,2.97495694 2.7634841,3.09784673 C2.20706645,3.5382018 1.76671138,4.01269292 1.43047126,4.5213201 C1.19663931,4.87462824 1.02254544,5.2450044 0.894535245,5.62903499 L0.053081561,5.62903499 C0.256191071,4.1321691 1.16079645,2.85548076 2.78396573,1.80409035 C4.64438057,0.600794517 6.94856408,0 9.70163668,0 C11.7685746,0 13.581199,0.346480929 15.1395098,1.03261558 C15.7215295,1.28863597 16.2728267,1.58903322 16.7831607,1.93892776 C17.5853579,2.4885182 18.2032205,3.10126033 18.6623504,3.76520654 C19.2853333,4.66469152 19.6045054,5.66658465 19.6045054,6.77429954 C19.6045054,7.70450695 19.3843279,8.60740553 18.9456796,9.48299527 C18.5070313,10.3602918 17.7526246,11.3024468 16.6858729,12.3162876 C16.3120832,12.6730093 14.5284744,14.4156548 12.42228,16.3033785 C8.52735649,19.7937898 3.70563913,24.1990473 3.70563913,24.1990473 L19.6915523,24.1990473 Z" id="Fill-1" fill="#081F2D"></path>
                    <path d="M33.2343483,23.9590709 C33.2343483,24.5871742 32.9868619,25.1094558 32.4953027,25.5259157 C32.0020368,25.9423755 31.4046559,26.1506054 30.6980396,26.1506054 C29.9914233,26.1506054 29.3923356,25.9423755 28.8990697,25.5259157 C28.4075105,25.1094558 28.1600241,24.5871742 28.1600241,23.9590709 C28.1600241,23.3326743 28.4075105,22.7933247 28.8990697,22.3478492 C29.3923356,21.9023737 29.9914233,21.6787826 30.6980396,21.6787826 C31.4046559,21.6787826 32.0020368,21.9023737 32.4953027,22.3478492 C32.9868619,22.7933247 33.2343483,23.3326743 33.2343483,23.9590709" id="Fill-3" fill="#081F2D"></path>
                    <path d="M39.4114376,47.1775601 L26.4124289,73.1687502 L26.1137385,73.1687502 L20.0545892,60.3421286 L13.6370114,73.1687502 L13.3417346,73.1687502 L4.00381755,53.4056828 L2.16217754,49.5073457 C2.16047074,49.5022252 2.15705713,49.4988116 2.15535033,49.495398 L1.05958306,47.1775601 L3.49177677,47.1775601 L4.57730322,49.5329477 L13.9459427,69.8558463 L19.4145383,58.9869273 L14.9393018,49.5141729 L14.9358882,49.5073457 L13.8367074,47.1775601 L16.2637807,47.1775601 L17.3510139,49.5329477 L20.6110069,56.6042309 L25.3542113,47.1775601 L26.6411405,47.1775601 L24.5929774,51.2670591 L24.5827365,51.2875408 L21.240817,57.969673 L26.7196534,69.8541395 L38.1262152,47.1775601 L39.4114376,47.1775601 Z" id="Fill-5" fill="#081F2D"></path>
                    <polygon id="Fill-7" fill="#081F2D" points="69.827172 72.0094898 69.5404292 73.1684088 49.6937285 73.1684088 49.6937285 47.1772187 69.5404292 47.1772187 69.827172 48.3361377 51.8579542 48.3361377 51.8579542 56.9981609 62.2233664 56.9981609 62.2233664 58.1587867 51.8579542 58.1587867 51.8579542 72.0094898"></polygon>
                    <path d="M123.141541,65.1588962 L116.498665,50.2414415 L109.043351,65.1588962 L123.141541,65.1588962 Z M129.315046,73.167214 L126.928936,73.167214 L123.641634,66.0737424 L110.118637,66.0737424 C109.120157,66.0737424 108.207018,66.6540553 107.751302,67.5757287 L105.086983,73.167214 L103.736902,73.167214 L116.737618,46.2236281 L117.034601,46.2236281 L126.374225,66.7103798 L128.214158,70.7503815 C128.215865,70.7555019 128.219279,70.7589156 128.220985,70.7623292 L129.315046,73.167214 Z" id="Fill-9" fill="#081F2D"></path>
                    <path d="M151.147099,62.7487203 C152.150699,62.5985216 153.051891,62.3203128 153.852381,61.9175074 C155.118829,61.2706292 156.081466,60.4052803 156.730051,59.3146334 C157.341086,58.2905519 157.658551,57.1418737 157.696101,55.8754262 C157.697808,55.8088609 157.702928,55.7405888 157.702928,55.6723167 L157.702928,55.6552486 L157.702928,55.6364738 C157.702928,55.5682017 157.697808,55.5016364 157.696101,55.4333643 C157.656844,54.1669168 157.341086,53.0199454 156.730051,51.9924502 C156.083172,50.9035102 155.118829,50.0364545 153.852381,49.3912831 C153.051891,48.9867709 152.150699,48.708562 151.147099,48.5583634 C150.891079,48.5088661 150.626525,48.4713165 150.36197,48.4423008 C150.421708,48.4542484 150.483153,48.4593689 150.542891,48.4713165 C150.414881,48.4508348 150.28175,48.4423008 150.152033,48.4269396 C149.984767,48.4132852 149.820914,48.3962172 149.65194,48.3910967 L141.69312,48.3910967 L141.69312,58.5960695 L141.69824,58.5960695 L141.69824,62.8835577 L149.261082,62.8835577 C149.575134,62.8835577 149.878945,62.87161 150.175929,62.854542 C150.471206,62.8323536 150.757948,62.8016311 151.037864,62.7623747 C151.073707,62.7572543 151.111257,62.7555475 151.147099,62.7487203 M161.087518,72.798374 L161.084104,73.1670433 L159.041061,73.1670433 C157.43496,73.1670433 155.917613,72.4314114 154.92084,71.1700843 L149.365197,64.1312304 L141.69824,64.1312304 L141.69824,73.1670433 L139.534014,73.1670433 L139.534014,47.1775601 L151.425308,47.1775601 C152.99386,47.1775601 154.442935,47.5547635 155.774241,48.3125838 C157.105547,49.0704042 158.153524,50.101313 158.928412,51.4053101 C159.69306,52.7041869 160.078797,54.1208331 160.082211,55.6552486 C160.078797,57.1879574 159.69306,58.6028967 158.928412,59.9017735 C158.155231,61.2074775 157.105547,62.2383863 155.774241,62.9962066 C154.637511,63.6430848 153.41032,64.0117542 152.101202,64.1056283 L157.689274,71.1564299 C158.510246,72.1941659 159.763039,72.8000808 161.087518,72.798374" id="Fill-11" fill="#081F2D"></path>
                    <polygon id="Fill-13" fill="#081F2D" points="191.223507 72.0094898 190.936764 73.1684088 171.090064 73.1684088 171.090064 47.1772187 190.936764 47.1772187 191.223507 48.3361377 173.254289 48.3361377 173.254289 56.9981609 183.619702 56.9981609 183.619702 58.1587867 173.254289 58.1587867 173.254289 72.0094898"></polygon>
                    <g id="Group-17" transform="translate(0.000000, 94.009151)">
                        <mask id="mask-2" fill="white">
                            <use xlink:href="#path-1"></use>
                        </mask>
                        <g id="Clip-16"></g>
                        <polygon id="Fill-15" fill="#081F2D" mask="url(#mask-2)" points="28.175556 1.15891897 15.171427 1.15891897 15.171427 25.9911901 13.0072013 25.9911901 13.0072013 1.15891897 -0.000341360521 1.15891897 0.293228687 0 27.881986 0"></polygon>
                    </g>
                    <path d="M49.0023028,109.580824 C50.0059027,109.430625 50.9070945,109.152416 51.7075849,108.749611 C52.9740324,108.102732 53.9366691,107.237384 54.5852541,106.146737 C55.1962894,105.122655 55.5137547,103.973977 55.5513044,102.707529 C55.5530112,102.640964 55.5581316,102.572692 55.5581316,102.50442 L55.5581316,102.487352 L55.5581316,102.468577 C55.5581316,102.400305 55.5530112,102.33374 55.5513044,102.265468 C55.5120479,100.99902 55.1962894,99.8520487 54.5852541,98.8245535 C53.9383759,97.7356134 52.9740324,96.8685577 51.7075849,96.2233863 C50.9070945,95.8188741 50.0059027,95.5406653 49.0023028,95.3904667 C48.7462824,95.3409694 48.481728,95.3034197 48.2171736,95.2744041 C48.2769117,95.2846449 48.3383565,95.2914721 48.3980946,95.3034197 C48.2700844,95.2829381 48.1369538,95.2744041 48.0072368,95.2590429 C47.8399702,95.2453884 47.6761171,95.2283204 47.5071437,95.2232 L39.5483231,95.2232 L39.5483231,105.428173 L39.5534435,105.428173 L39.5534435,109.715661 L47.1162859,109.715661 C47.4303376,109.715661 47.7341484,109.703713 48.0311321,109.686645 C48.3264089,109.664457 48.6131518,109.633734 48.8930674,109.594478 C48.9289102,109.589358 48.9664599,109.587651 49.0023028,109.580824 M58.9427211,119.630477 L58.9393075,119.999147 L56.8962648,119.999147 C55.2901636,119.999147 53.772816,119.263515 52.7760433,118.003894 L47.2204008,110.963334 L39.5534435,110.963334 L39.5534435,119.999147 L37.3892178,119.999147 L37.3892178,94.0096633 L49.2805116,94.0096633 C50.8490632,94.0096633 52.2981386,94.3868667 53.6294446,95.1446871 C54.9607507,95.9025074 56.0087275,96.9334162 56.7836158,98.2374134 C57.5482634,99.5362902 57.9340008,100.952936 57.9374144,102.487352 C57.9340008,104.020061 57.5482634,105.435 56.7836158,106.733877 C56.0104343,108.039581 54.9607507,109.07049 53.6294446,109.82831 C52.4927141,110.475188 51.265523,110.843857 49.9564054,110.937732 L55.5444771,117.988533 C56.3654492,119.026269 57.6182423,119.632184 58.9427211,119.630477" id="Fill-18" fill="#081F2D"></path>
                    <g id="Group-22" transform="translate(68.945267, 94.009322)">
                        <mask id="mask-4" fill="white">
                            <use xlink:href="#path-3"></use>
                        </mask>
                        <g id="Clip-21"></g>
                        <polygon id="Fill-20" fill="#081F2D" mask="url(#mask-4)" points="20.1334435 24.8322711 19.8467007 25.9911901 0 25.9911901 0 0 19.8467007 0 20.1334435 1.15891897 2.1642257 1.15891897 2.1642257 9.82094218 12.5296379 9.82094218 12.5296379 10.981568 2.1642257 10.981568 2.1642257 24.8322711"></polygon>
                    </g>
                    <g id="Group-25" transform="translate(96.489818, 94.009663)">
                        <mask id="mask-6" fill="white">
                            <use xlink:href="#path-5"></use>
                        </mask>
                        <g id="Clip-24"></g>
                        <path d="M29.2767851,-1.21275619e-14 L29.2767851,25.9911901 L27.936945,25.9911901 C27.936945,25.9911901 26.2574513,18.8943048 15.7059976,13.2174794 C10.2561768,10.3722394 6.75893831,7.69938655 4.55374935,5.23817719 L4.55374935,25.9911901 L2.38952365,25.9911901 L2.38952365,2.24785903 C2.10960802,1.80238355 1.79555634,1.33984004 1.48150466,1.02408156 C0.827799263,0.36696256 0,0.329412903 0,0.329412903 L0,-1.21275619e-14 L2.67968009,-1.21275619e-14 C3.23951134,0.645171384 3.78739498,1.66583934 4.12192829,2.1659325 C6.12400774,5.15795747 9.92676394,8.5203586 16.8427281,12.1575549 C22.282308,15.1069098 25.3818615,18.4283477 27.1142662,20.96807 L27.1142662,-1.21275619e-14 L29.2767851,-1.21275619e-14 Z" id="Fill-23" fill="#081F2D" mask="url(#mask-6)"></path>
                    </g>
                    <path d="M161.632841,107.003893 C161.632841,104.841374 161.226622,102.861483 160.415891,101.071047 C159.603453,99.2806111 158.389916,97.8571378 156.778695,96.7989202 C155.165766,95.7407025 153.237079,95.1996461 150.98922,95.1740441 L137.826358,95.1740441 L137.826358,118.833742 L150.944843,118.833742 C153.223425,118.833742 155.157232,118.302926 156.75992,117.246415 C158.35578,116.188198 159.565903,114.75619 160.391996,112.953807 C161.219795,111.15313 161.632841,109.168119 161.632841,107.003893 M163.79536,107.003893 C163.79536,109.355867 163.279906,111.514972 162.252411,113.484622 C161.226622,115.450859 159.714395,117.022824 157.72085,118.198811 C155.730718,119.373091 153.373623,119.975593 150.651273,119.999488 L135.662133,119.999488 L135.662133,94.0100047 L150.651273,94.0100047 C153.445309,94.0100047 155.83654,94.5903176 157.816431,95.7526502 C159.794615,96.9166895 161.288067,98.4886547 162.291667,100.468546 C163.295267,102.450144 163.79536,104.628024 163.79536,107.003893" id="Fill-26" fill="#081F2D"></path>
                    <g id="Group-30" transform="translate(171.249650, 94.009663)">
                        <mask id="mask-8" fill="white">
                            <use xlink:href="#path-7"></use>
                        </mask>
                        <g id="Clip-29"></g>
                        <polygon id="Fill-28" fill="#081F2D" mask="url(#mask-8)" points="23.7791739 -1.21275619e-14 22.1235754 2.37757603 22.1218686 2.37928283 21.7668536 2.88791001 21.7395448 2.93228687 13.0724011 15.3748779 13.0724011 25.9911901 10.9098822 25.9911901 10.9098822 15.6752751 10.9081754 15.6769819 2.97666374 4.27554052 2.97154333 4.26871331 2.42551238e-14 -1.21275619e-14 2.63359642 -1.21275619e-14 4.02122694 1.99013184 12.5791352 14.292765 20.9219863 2.31613113 22.5349148 -1.21275619e-14"></polygon>
                    </g>
                </g>
            </g>
        </g>
    </g>
</svg>