<?xml version="1.0" encoding="UTF-8"?>
<svg width="396px" height="120px" viewBox="0 0 396 120" version="1.1" xmlns="http://www.w3.org/2000/svg" xmlns:xlink="http://www.w3.org/1999/xlink">
    <title>2F68C178-1541-45D9-A644-876E2604E76A</title>
    <defs>
        <polygon id="path-1" points="0 0 28.115292 0 28.115292 25.9355981 0 25.9355981"></polygon>
        <polygon id="path-3" points="0 1.21016226e-14 28.0725429 1.21016226e-14 28.0725429 25.933895 0 25.933895"></polygon>
    </defs>
    <g id="LP-—-SARAY" stroke="none" stroke-width="1" fill="none" fill-rule="evenodd">
        <g id="LP-—-SARAY-——-DESKTOP" transform="translate(-75.000000, -2134.000000)">
            <g id="bloc-3" transform="translate(75.000000, 2104.000000)">
                <g id="titre" transform="translate(0.000000, 30.000000)">
                    <path d="M20.4993074,17.3551185 C20.4993074,19.8400173 19.4586815,21.8906122 17.3740235,23.5086066 C16.0881438,24.5066536 14.5757448,25.1964302 12.8419361,25.5779362 C11.7672473,25.8146744 10.6108071,25.933895 9.36409983,25.933895 C7.45316332,25.933895 5.76363657,25.6562812 4.28359751,25.1146789 C3.61766509,24.869425 2.99090517,24.5764829 2.4118335,24.2222273 C1.27923744,23.5290444 0.495787537,22.7387819 0.0529680262,21.8565492 L0.793839132,21.2076483 C0.969263784,21.4426833 1.1566105,21.6726088 1.36098874,21.8923154 C2.76949541,23.3927923 4.85415342,24.4504496 7.25219139,24.7706422 C7.74951176,24.8387683 8.2587542,24.8728313 8.7799187,24.8728313 C9.3010832,24.8728313 9.81202879,24.8387683 10.3093492,24.7706422 C11.6565424,24.5901081 12.9083591,24.1779453 13.99497,23.5818421 C16.4679467,22.2278363 18.0927537,19.9388001 18.0927537,17.3397902 C18.0927537,14.7424834 16.4662435,12.4500409 13.9915637,11.0960351 C12.5030089,10.2836316 10.7095899,9.80845218 8.7799187,9.80845218 C8.07481379,9.80845218 7.3901467,9.87828141 6.73102689,9.9992052 L6.73102689,8.86320283 L16.011502,1.16325279 L13.7054342,1.16325279 L13.7190594,1.15644019 L1.39164547,1.15644019 L1.69991598,0 L19.1606299,0 L19.1606299,0.29464529 C19.0635503,0.337224089 18.7859365,0.541602325 18.3346012,0.899264238 C18.2324121,0.979312381 18.1217072,1.06787628 18.0024866,1.16325279 C16.8630779,2.0812517 14.9129689,3.72138705 12.1351281,6.09387774 C11.8524049,6.33402216 11.562869,6.5843855 11.2614111,6.84156145 L9.20570669,8.68266873 C9.33003679,8.67926242 9.45266373,8.66904351 9.57869698,8.66904351 C12.6903556,8.66904351 15.2893655,9.48996276 17.3723204,11.1318013 C19.4569784,12.7719366 20.4976042,14.8463757 20.4993074,17.3551185" id="Fill-1" fill="#081F2D"></path>
                    <path d="M34.0114338,23.539093 C34.0114338,24.1641498 33.7644768,24.6870174 33.273969,25.1025865 C32.7817581,25.5164524 32.1856549,25.7259401 31.48055,25.7259401 C30.7754451,25.7259401 30.1776388,25.5164524 29.6854278,25.1025865 C29.1949201,24.6870174 28.947963,24.1641498 28.947963,23.539093 C28.947963,22.9123331 29.1949201,22.3758402 29.6854278,21.9313176 C30.1776388,21.4850917 30.7754451,21.263682 31.48055,21.263682 C32.1856549,21.263682 32.7817581,21.4850917 33.273969,21.9313176 C33.7644768,22.3741371 34.0114338,22.9123331 34.0114338,23.539093" id="Fill-3" fill="#081F2D"></path>
                    <path d="M39.3271414,46.7079208 L26.3559361,72.6435189 L26.0578845,72.6435189 L20.011695,59.8443319 L13.6078436,72.6435189 L13.3131983,72.6435189 L3.99525388,52.9227223 L2.15755291,49.0327232 C2.15584976,49.0276138 2.15244346,49.0242075 2.1507403,49.0208012 L1.05731674,46.7079208 L3.48430829,46.7079208 L4.56751294,49.0582705 L13.9161141,69.337701 L19.373013,58.4920292 L14.9073485,49.0395358 L14.9039422,49.0327232 L13.8071124,46.7079208 L16.2289945,46.7079208 L17.3139023,49.0582705 L20.5669225,56.1144291 L25.2999818,46.7079208 L26.5841584,46.7079208 L24.5403761,50.7886729 L24.5301571,50.8091107 L21.1953856,57.4769507 L26.6625034,69.3359978 L38.044668,46.7079208 L39.3271414,46.7079208 Z" id="Fill-5" fill="#081F2D"></path>
                    <polygon id="Fill-7" fill="#081F2D" points="69.6778204 71.4867381 69.3916909 72.6431783 49.5874398 72.6431783 49.5874398 46.7075802 69.3916909 46.7075802 69.6778204 47.8640203 51.7470365 47.8640203 51.7470365 56.5075166 62.0902784 56.5075166 62.0902784 57.6656599 51.7470365 57.6656599 51.7470365 71.4867381"></polygon>
                    <path d="M122.878157,64.6509674 L116.249489,49.7654192 L108.810121,64.6509674 L122.878157,64.6509674 Z M129.038457,72.6421564 L126.657451,72.6421564 L123.37718,65.5638568 L109.883107,65.5638568 C108.886763,65.5638568 107.975577,66.1429285 107.520835,67.0626306 L104.862215,72.6421564 L103.515022,72.6421564 L116.48793,45.7561995 L116.784279,45.7561995 L126.103926,66.1991325 L127.939924,70.2304932 C127.941627,70.2356027 127.945034,70.239009 127.946737,70.2424153 L129.038457,72.6421564 Z" id="Fill-9" fill="#081F2D"></path>
                    <path d="M150.823815,62.2457762 C151.825268,62.0958988 152.724532,61.818285 153.52331,61.4163412 C154.787049,60.7708466 155.747627,59.9073485 156.394825,58.8190344 C157.004553,57.7971432 157.321339,56.650922 157.358809,55.3871832 C157.360512,55.3207603 157.365621,55.2526342 157.365621,55.1845081 L157.365621,55.1674766 L157.365621,55.1487419 C157.365621,55.0806159 157.360512,55.0141929 157.358809,54.9460669 C157.319636,53.6823281 157.004553,52.53781 156.394825,51.5125125 C155.74933,50.4259015 154.787049,49.5607003 153.52331,48.9169089 C152.724532,48.5132619 151.825268,48.2356481 150.823815,48.0857707 C150.568342,48.0363793 150.304353,47.99891 150.040365,47.9699564 C150.099975,47.9818785 150.161288,47.9869879 150.220899,47.99891 C150.093162,47.9784722 149.960317,47.9699564 149.830877,47.954628 C149.663968,47.9410028 149.500466,47.9239713 149.331853,47.9188618 L141.390056,47.9188618 L141.390056,58.1020074 L141.395165,58.1020074 L141.395165,62.3803252 L148.941832,62.3803252 C149.255212,62.3803252 149.558373,62.3684031 149.854721,62.3513716 C150.149366,62.3292306 150.435496,62.2985739 150.714813,62.2594014 C150.750579,62.2542919 150.788048,62.2525888 150.823815,62.2457762 M160.742972,72.273935 L160.739565,72.6418158 L158.700892,72.6418158 C157.098226,72.6418158 155.584124,71.9077573 154.589484,70.649128 L149.045724,63.6253293 L141.395165,63.6253293 L141.395165,72.6418158 L139.235569,72.6418158 L139.235569,46.7079208 L151.101428,46.7079208 C152.666625,46.7079208 154.112601,47.0843174 155.44106,47.8405168 C156.769518,48.5967163 157.815253,49.6254201 158.588484,50.9266282 C159.351497,52.2227269 159.736409,53.636343 159.739815,55.1674766 C159.736409,56.6969071 159.351497,58.1088201 158.588484,59.4049187 C157.816957,60.70783 156.769518,61.7365337 155.44106,62.4927332 C154.30676,63.1382278 153.082194,63.5061086 151.775877,63.599782 L157.351996,70.6355028 C158.171212,71.6710192 159.421326,72.2756381 160.742972,72.273935" id="Fill-11" fill="#081F2D"></path>
                    <polygon id="Fill-13" fill="#081F2D" points="190.814504 71.4867381 190.528375 72.6431783 170.724123 72.6431783 170.724123 46.7075802 190.528375 46.7075802 190.814504 47.8640203 172.88372 47.8640203 172.88372 56.5075166 183.226962 56.5075166 183.226962 57.6656599 172.88372 57.6656599 172.88372 71.4867381"></polygon>
                    <path d="M249.090914,59.7111454 C249.090914,57.3386547 248.644688,55.1875738 247.755643,53.2579026 C246.863191,51.3248251 245.550061,49.7868789 243.814549,48.6372513 C242.080741,47.4893269 239.984161,46.9136615 237.533325,46.9136615 C235.082489,46.9136615 232.987612,47.4893269 231.248694,48.6372513 C229.513182,49.7868789 228.200052,51.3248251 227.31271,53.2579026 C226.420258,55.1875738 225.977439,57.3386547 225.977439,59.7111454 C225.977439,62.0614951 226.420258,64.1989509 227.31271,66.1320283 C228.200052,68.0599964 229.514886,69.5945363 231.248694,70.7322418 C232.987612,71.866541 235.082489,72.4353938 237.533325,72.4353938 C239.984161,72.4353938 242.079038,71.866541 243.814549,70.7322418 C245.550061,69.5945363 246.863191,68.0599964 247.755643,66.1320283 C248.644688,64.1989509 249.090914,62.0614951 249.090914,59.7111454 M251.468514,59.7128486 C251.468514,62.1875284 250.925209,64.4510173 249.838598,66.5084249 C248.751987,68.5675357 247.152727,70.207671 245.045928,71.4305341 C242.935723,72.6568035 240.430387,73.2682351 237.533325,73.2682351 C234.581763,73.2682351 232.050879,72.661913 229.940674,71.4526751 C227.833875,70.2383277 226.24824,68.6033018 225.187176,66.5475974 C224.12441,64.4901898 223.593026,62.2113725 223.593026,59.7128486 C223.593026,57.1904805 224.12441,54.898038 225.187176,52.8406304 C226.24824,50.7832228 227.833875,49.1430875 229.940674,47.9185212 C232.050879,46.6956581 234.581763,46.0842265 237.533325,46.0842265 C240.483184,46.0842265 243.012365,46.6956581 245.12257,47.9185212 C247.231072,49.1430875 248.815004,50.7832228 249.876067,52.8406304 C250.937131,54.898038 251.468514,57.1904805 251.468514,59.7128486" id="Fill-15" fill="#081F2D"></path>
                    <path d="M278.767997,55.1489123 C278.767997,55.0807862 278.762887,55.0143632 278.759481,54.9462372 C278.725418,53.6824984 278.405225,52.5379803 277.7972,51.5126828 C277.151705,50.4260719 276.189425,49.5608707 274.925686,48.9170792 C274.126908,48.5134322 273.227643,48.2358184 272.22619,48.085941 C271.969014,48.0365496 271.706729,47.9990803 271.441037,47.9701267 C271.50235,47.9820488 271.565367,47.9871582 271.623274,47.9990803 C271.495538,47.9786425 271.360989,47.9701267 271.231549,47.9547983 C271.068047,47.9411731 270.902841,47.9241416 270.732526,47.9190322 L262.792431,47.9190322 L262.792431,58.1004746 L262.795837,58.1004746 L262.795837,62.3804955 L270.344207,62.3804955 C271.006733,62.3804955 271.635196,62.3362136 272.22619,62.2459465 C273.227643,62.0960691 274.125204,61.8184554 274.923983,61.4165115 C276.189425,60.7710169 277.150002,59.9075188 277.7972,58.8192047 C278.403522,57.7973136 278.723715,56.6510923 278.757778,55.3873535 C278.761184,55.3209306 278.766293,55.2528045 278.766293,55.1846784 L278.766293,55.1676469 C278.766293,55.1608343 278.766293,55.1540217 278.767997,55.1489123 M281.14219,55.1676469 C281.138784,56.6970774 280.753872,58.1089904 279.989157,59.405089 C279.217629,60.7080003 278.17019,61.7367041 276.841732,62.4929035 C275.514976,63.249103 274.069,63.6254996 272.502101,63.6254996 L262.795837,63.6254996 L262.795837,72.6419861 L260.636241,72.6419861 L260.636241,46.7080911 L272.502101,46.7080911 C274.069,46.7080911 275.513273,47.0844877 276.841732,47.8406872 C278.17019,48.5968866 279.217629,49.6255904 279.989157,50.9267985 C280.752169,52.2228972 281.138784,53.6365133 281.14219,55.1676469" id="Fill-17" fill="#081F2D"></path>
                    <polygon id="Fill-19" fill="#081F2D" points="311.209465 71.4867381 310.923335 72.6431783 291.119084 72.6431783 291.119084 46.7075802 310.923335 46.7075802 311.209465 47.8640203 293.278681 47.8640203 293.278681 56.5075166 303.621923 56.5075166 303.621923 57.6656599 293.278681 57.6656599 293.278681 71.4867381"></polygon>
                    <path d="M347.818887,46.7079208 L347.818887,72.6435189 L346.481913,72.6435189 C346.481913,72.6435189 344.806011,65.5618131 334.277126,59.8971296 C328.838961,57.0579753 325.349203,54.3908393 323.148731,51.9348942 L323.148731,72.6435189 L320.989134,72.6435189 L320.989134,48.9509719 C320.709817,48.5064493 320.396437,48.0448951 320.083057,47.729812 C319.43075,47.0740985 318.604721,47.0366291 318.604721,47.0366291 L318.604721,46.7079208 L321.27867,46.7079208 C321.837304,47.3517122 322.384015,48.3701971 322.717833,48.8692206 C324.71563,51.854846 328.510253,55.2100554 335.411425,58.8394722 C340.83937,61.7825188 343.932294,65.0968526 345.660993,67.6311427 L345.660993,46.7079208 L347.818887,46.7079208 Z" id="Fill-21" fill="#081F2D"></path>
                    <g id="Group-25" transform="translate(0.000000, 93.439345)">
                        <mask id="mask-2" fill="white">
                            <use xlink:href="#path-1"></use>
                        </mask>
                        <g id="Clip-24"></g>
                        <polygon id="Fill-23" fill="#081F2D" mask="url(#mask-2)" points="28.115292 1.15644019 15.1389772 1.15644019 15.1389772 25.9355981 12.9793805 25.9355981 12.9793805 1.15644019 -0.000340630393 1.15644019 0.292601508 0 27.8223499 0"></polygon>
                    </g>
                    <path d="M59.420758,106.44291 C59.420758,104.07042 58.9745322,101.919339 58.0854869,99.9896675 C57.1930352,98.0565901 55.8799051,96.5186438 54.1443932,95.3690163 C52.4105845,94.2210918 50.3140045,93.6454265 47.8631688,93.6454265 C45.4123331,93.6454265 43.3174562,94.2210918 41.578538,95.3690163 C39.8430262,96.5186438 38.529896,98.0565901 37.6425538,99.9896675 C36.7501022,101.919339 36.3072827,104.07042 36.3072827,106.44291 C36.3072827,108.79326 36.7501022,110.930716 37.6425538,112.86209 C38.529896,114.791761 39.8447293,116.326301 41.578538,117.464007 C43.3174562,118.598306 45.4123331,119.167159 47.8631688,119.167159 C50.3140045,119.167159 52.4088814,118.598306 54.1443932,117.464007 C55.8799051,116.326301 57.1930352,114.791761 58.0854869,112.86209 C58.9745322,110.930716 59.420758,108.79326 59.420758,106.44291 M61.7983582,106.444613 C61.7983582,108.919293 61.2550527,111.182782 60.1684417,113.24019 C59.0818308,115.299301 57.4825711,116.939436 55.3757721,118.162299 C53.2655668,119.388568 50.7602303,120 47.8631688,120 C44.9116064,120 42.3807226,119.393678 40.2705173,118.18444 C38.1637183,116.970093 36.5780838,115.335067 35.5170202,113.279362 C34.4542533,111.221955 33.9228699,108.943137 33.9228699,106.444613 C33.9228699,103.920542 34.4542533,101.629803 35.5170202,99.5723953 C36.5780838,97.5149877 38.1637183,95.8748524 40.2705173,94.6502861 C42.3807226,93.427423 44.9116064,92.8159915 47.8631688,92.8159915 C50.813028,92.8159915 53.3422086,93.427423 55.4524139,94.6502861 C57.5609161,95.8748524 59.1448474,97.5149877 60.2059111,99.5723953 C61.2669747,101.629803 61.7983582,103.920542 61.7983582,106.444613" id="Fill-26" fill="#081F2D"></path>
                    <polygon id="Fill-28" fill="#081F2D" points="121.945 94.5957853 108.968685 94.5957853 108.968685 119.374943 106.809088 119.374943 106.809088 94.5957853 93.8293669 94.5957853 94.122309 93.4393451 121.652057 93.4393451"></polygon>
                    <path d="M158.764079,93.439856 L158.764079,119.373751 L156.604483,119.373751 L156.604483,108.214699 C153.680171,108.36628 149.858298,107.906429 144.988986,106.537095 C140.875874,105.382358 136.895608,105.271653 134.09222,105.373842 L134.09222,119.375454 L131.932623,119.375454 L131.932623,93.439856 L134.09222,93.439856 L134.09222,104.248058 C136.905827,104.130541 140.986579,104.215699 145.210396,105.402795 C149.955377,106.738067 153.707421,107.20984 156.604483,107.092322 L156.604483,93.439856 L158.764079,93.439856 Z" id="Fill-30" fill="#081F2D"></path>
                    <polygon id="Fill-32" fill="#081F2D" points="189.598794 118.218673 189.312665 119.375114 169.508414 119.375114 169.508414 93.4395154 189.312665 93.4395154 189.598794 94.5959556 171.66801 94.5959556 171.66801 103.239452 182.011252 103.239452 182.011252 104.397595 171.66801 104.397595 171.66801 118.218673"></polygon>
                    <path d="M260.422495,93.4415592 L261.704969,93.4415592 L248.733763,119.375454 L248.435712,119.375454 L242.389522,106.576267 L235.985671,119.375454 L235.691026,119.375454 L226.373081,99.6546576 L224.53538,95.7646585 C224.533677,95.759549 224.530271,95.7561427 224.528568,95.7527364 L223.435144,93.439856 L225.862136,93.439856 L226.94534,95.7902057 L236.293941,116.069636 L241.75084,105.223964 L237.285176,95.7714711 L237.281769,95.7646585 L236.18494,93.439856 L238.606822,93.439856 L239.691729,95.7902057 L242.94475,102.846364 L247.677809,93.439856 L248.961986,93.439856 L246.918203,97.5223113 L246.907984,97.541046 L243.57151,104.208886 L249.040331,116.067933 L260.422495,93.439856 L260.422495,93.4415592 Z" id="Fill-34" fill="#081F2D"></path>
                    <path d="M294.023299,106.44291 C294.023299,104.07042 293.577073,101.919339 292.688028,99.9896675 C291.795576,98.0565901 290.482446,96.5186438 288.746934,95.3690163 C287.013126,94.2210918 284.916546,93.6454265 282.46571,93.6454265 C280.014874,93.6454265 277.919997,94.2210918 276.181079,95.3690163 C274.445567,96.5186438 273.132437,98.0565901 272.245095,99.9896675 C271.352643,101.919339 270.909824,104.07042 270.909824,106.44291 C270.909824,108.79326 271.352643,110.930716 272.245095,112.86209 C273.132437,114.791761 274.44727,116.326301 276.181079,117.464007 C277.919997,118.598306 280.014874,119.167159 282.46571,119.167159 C284.916546,119.167159 287.011422,118.598306 288.746934,117.464007 C290.482446,116.326301 291.795576,114.791761 292.688028,112.86209 C293.577073,110.930716 294.023299,108.79326 294.023299,106.44291 M296.400899,106.444613 C296.400899,108.919293 295.857594,111.182782 294.770983,113.24019 C293.684372,115.299301 292.085112,116.939436 289.978313,118.162299 C287.868108,119.388568 285.362771,120 282.46571,120 C279.514148,120 276.983264,119.393678 274.873058,118.18444 C272.766259,116.970093 271.180625,115.335067 270.119561,113.279362 C269.056794,111.221955 268.525411,108.943137 268.525411,106.444613 C268.525411,103.920542 269.056794,101.629803 270.119561,99.5723953 C271.180625,97.5149877 272.766259,95.8748524 274.873058,94.6502861 C276.983264,93.427423 279.514148,92.8159915 282.46571,92.8159915 C285.415569,92.8159915 287.94475,93.427423 290.054955,94.6502861 C292.163457,95.8748524 293.747389,97.5149877 294.808452,99.5723953 C295.869516,101.629803 296.400899,103.920542 296.400899,106.444613" id="Fill-36" fill="#081F2D"></path>
                    <path d="M317.157212,108.977711 C318.158666,108.827834 319.05793,108.55022 319.856708,108.148276 C321.120447,107.502782 322.081025,106.639284 322.728222,105.55097 C323.337951,104.529078 323.654737,103.382857 323.692206,102.119118 C323.69391,102.052696 323.699019,101.984569 323.699019,101.916443 L323.699019,101.899412 L323.699019,101.880677 C323.699019,101.812551 323.69391,101.746128 323.692206,101.678002 C323.653034,100.414263 323.337951,99.2697452 322.728222,98.2444477 C322.082728,97.1578368 321.120447,96.2926356 319.856708,95.6488441 C319.05793,95.2451971 318.158666,94.9675833 317.157212,94.817706 C316.901739,94.7683146 316.637751,94.7308452 316.373762,94.7018916 C316.433373,94.7121105 316.494686,94.7189232 316.554296,94.7308452 C316.42656,94.7104074 316.293714,94.7018916 316.164275,94.6865633 C315.997366,94.6729381 315.833863,94.6559065 315.665251,94.6507971 L307.723454,94.6507971 L307.723454,104.833943 L307.728563,104.833943 L307.728563,109.11226 L315.275229,109.11226 C315.588609,109.11226 315.89177,109.100338 316.188119,109.083307 C316.482764,109.061166 316.768894,109.030509 317.048211,108.991337 C317.083977,108.986227 317.121446,108.984524 317.157212,108.977711 M327.076369,119.00587 L327.072963,119.373751 L325.03429,119.373751 C323.431624,119.373751 321.917522,118.639693 320.922881,117.382766 L315.379122,110.357265 L307.728563,110.357265 L307.728563,119.373751 L305.568966,119.373751 L305.568966,93.439856 L317.434826,93.439856 C319.000023,93.439856 320.445999,93.8162526 321.774457,94.5724521 C323.102916,95.3286516 324.148651,96.3573553 324.921882,97.6585634 C325.684894,98.9546621 326.069807,100.368278 326.073213,101.899412 C326.069807,103.428842 325.684894,104.840755 324.921882,106.136854 C324.150354,107.439765 323.102916,108.468469 321.774457,109.224668 C320.640158,109.870163 319.415592,110.238044 318.109274,110.331717 L323.685394,117.367438 C324.50461,118.402954 325.754723,119.007573 327.076369,119.00587" id="Fill-38" fill="#081F2D"></path>
                    <polygon id="Fill-40" fill="#081F2D" points="357.147902 118.218673 356.861772 119.375114 337.057521 119.375114 337.057521 93.4395154 339.217118 93.4395154 339.217118 118.218673"></polygon>
                    <g id="Group-44" transform="translate(367.063823, 93.440367)">
                        <mask id="mask-4" fill="white">
                            <use xlink:href="#path-3"></use>
                        </mask>
                        <g id="Clip-43"></g>
                        <path d="M25.9151603,12.9660959 C25.9151603,10.8082024 25.5098102,8.8325461 24.700813,7.04593969 C23.8901126,5.25933327 22.6791716,3.83890453 21.0713961,2.78295031 C19.4619175,1.72699609 17.5373558,1.18709692 15.2943047,1.16154964 L2.15959669,1.16154964 L2.15959669,24.7706422 L15.2500227,24.7706422 C17.5237306,24.7706422 19.4534018,24.2409619 21.0526615,23.1867109 C22.6451085,22.1307567 23.8526433,20.7018122 24.6769688,18.9032837 C25.5029975,17.1064584 25.9151603,15.1256926 25.9151603,12.9660959 M28.0730539,12.9660959 C28.0730539,15.3130393 27.558702,17.4675266 26.5334045,19.4329639 C25.5098102,21.394995 24.0008175,22.963598 22.011536,24.1370697 C20.0256608,25.3088382 17.673608,25.9100509 14.9570806,25.933895 L0,25.933895 L0,1.21016226e-14 L14.9570806,1.21016226e-14 C17.7451403,1.21016226e-14 20.1312562,0.579071669 22.1069125,1.73891816 C24.0808657,2.9004678 25.5711236,4.46907076 26.572577,6.44472704 C27.5740303,8.42208647 28.0730539,10.5953084 28.0730539,12.9660959" id="Fill-42" fill="#081F2D" mask="url(#mask-4)"></path>
                    </g>
                </g>
            </g>
        </g>
    </g>
</svg>