<?xml version="1.0" encoding="UTF-8"?>
<svg width="217px" height="120px" viewBox="0 0 217 120" version="1.1" xmlns="http://www.w3.org/2000/svg" xmlns:xlink="http://www.w3.org/1999/xlink">
    <title>009177FF-F4F1-4CED-9362-B38BB8052437</title>
    <defs>
        <polygon id="path-1" points="0 0 19.7611838 0 19.7611838 25.5117042 0 25.5117042"></polygon>
        <polygon id="path-3" points="0 0 20.5220059 0 20.5220059 27.5080101 0 27.5080101"></polygon>
        <polygon id="path-5" points="0 119.999497 216.84781 119.999497 216.84781 0 0 0"></polygon>
    </defs>
    <g id="LP-—-SARAY" stroke="none" stroke-width="1" fill="none" fill-rule="evenodd">
        <g id="LP-—-SARAY-——-DESKTOP" transform="translate(-810.000000, -2614.000000)">
            <g id="bloc-4" transform="translate(75.000000, 2584.000000)">
                <g id="titre" transform="translate(735.000000, 30.000000)">
                    <path d="M16.5841155,0 L0.000167531548,19.2141933 L0.000167531548,19.7486189 L14.8719431,19.7519695 L16.0446639,19.7519695 L16.0446639,27.0077609 L18.3297942,27.0077609 L18.3297942,19.7519695 L21.6938277,19.7519695 L22.1545395,17.6293448 L22.0071117,17.6293448 L22.0071117,17.6310201 L18.3297942,17.6310201 L18.3297942,0 L16.5841155,0 Z M16.0463392,2.37727267 L16.0463392,12.7039173 L16.0446639,17.6310201 L3.05259234,17.6310201 L16.0463392,2.37727267 Z" id="Fill-1" fill="#081F2D"></path>
                    <g id="Group-28" transform="translate(0.000000, 0.000503)">
                        <path d="M35.4335926,24.6489167 C35.4335926,25.2654328 35.1906718,25.7780793 34.708181,26.1868563 C34.2240148,26.5956333 33.6376544,26.8000218 32.9440738,26.8000218 C32.2504932,26.8000218 31.6624574,26.5956333 31.1782913,26.1868563 C30.6958004,25.7780793 30.4528797,25.2654328 30.4528797,24.6489167 C30.4528797,24.0340759 30.6958004,23.5046762 31.1782913,23.0674189 C31.6624574,22.6301615 32.2504932,22.4106952 32.9440738,22.4106952 C33.6376544,22.4106952 34.2240148,22.6301615 34.708181,23.0674189 C35.1906718,23.5046762 35.4335926,24.0340759 35.4335926,24.6489167" id="Fill-2" fill="#081F2D"></path>
                        <path d="M38.6843748,47.4390709 L25.925172,72.950775 L25.6319918,72.950775 L19.6846219,60.3607792 L13.3854356,72.950775 L13.0956061,72.950775 L3.92995506,53.5522971 L2.12228965,49.7258765 C2.12061434,49.7208506 2.11726371,49.7174999 2.11558839,49.7141493 L1.04003585,47.4390709 L3.42736041,47.4390709 L4.49286106,49.7510062 L13.6886677,69.6989877 L19.0563786,59.0305787 L14.6637014,49.7325778 L14.6603507,49.7258765 L13.5814476,47.4390709 L15.9637462,47.4390709 L17.0309221,49.7510062 L20.2307747,56.6918383 L24.8864764,47.4390709 L26.1496643,47.4390709 L24.1392857,51.4531268 L24.1292338,51.4732306 L20.8489661,58.0320907 L26.2267288,69.6973124 L37.4228622,47.4390709 L38.6843748,47.4390709 Z" id="Fill-4" fill="#081F2D"></path>
                        <polygon id="Fill-6" fill="#081F2D" points="68.5389993 71.8129008 68.2575462 72.95044 48.7769778 72.95044 48.7769778 47.4387358 68.2575462 47.4387358 68.5389993 48.576275 50.9012778 48.576275 50.9012778 57.0785011 61.0754688 57.0785011 61.0754688 58.2177156 50.9012778 58.2177156 50.9012778 71.8129008"></polygon>
                        <polygon id="Fill-8" fill="#081F2D" points="121.324504 71.8129008 121.043051 72.95044 101.562483 72.95044 101.562483 47.4387358 103.686783 47.4387358 103.686783 71.8129008"></polygon>
                        <path d="M152.828309,60.229602 C152.828309,57.8958875 152.389377,55.7799641 151.514862,53.8818316 C150.636997,51.9803485 149.345329,50.4675387 147.638182,49.3367007 C145.932711,48.2075381 143.870398,47.6412814 141.459619,47.6412814 C139.04884,47.6412814 136.988202,48.2075381 135.277704,49.3367007 C133.570558,50.4675387 132.27889,51.9803485 131.40605,53.8818316 C130.528185,55.7799641 130.092603,57.8958875 130.092603,60.229602 C130.092603,62.5415374 130.528185,64.6440583 131.40605,66.5455414 C132.27889,68.4419985 133.572233,69.9514577 135.277704,71.0705685 C136.988202,72.1863286 139.04884,72.745884 141.459619,72.745884 C143.870398,72.745884 145.931036,72.1863286 147.638182,71.0705685 C149.345329,69.9514577 150.636997,68.4419985 151.514862,66.5455414 C152.389377,64.6440583 152.828309,62.5415374 152.828309,60.229602 M155.16705,60.2312773 C155.16705,62.6655107 154.632624,64.892005 153.563773,66.9157861 C152.494922,68.9412425 150.9218,70.5545713 148.849435,71.7574478 C146.773719,72.963675 144.30933,73.5651132 141.459619,73.5651132 C138.556297,73.5651132 136.066778,72.9687009 133.991062,71.7792269 C131.918697,70.584727 130.358978,68.9764241 129.315257,66.9543183 C128.26986,64.9305372 127.747161,62.6889651 127.747161,60.2312773 C127.747161,57.7501351 128.26986,55.4951604 129.315257,53.4713793 C130.358978,51.4475982 131.918697,49.8342694 133.991062,48.6297176 C136.066778,47.4268411 138.556297,46.8254028 141.459619,46.8254028 C144.361265,46.8254028 146.849109,47.4268411 148.924824,48.6297176 C150.998865,49.8342694 152.556908,51.4475982 153.60063,53.4713793 C154.644351,55.4951604 155.16705,57.7501351 155.16705,60.2312773" id="Fill-10" fill="#081F2D"></path>
                        <path d="M187.00374,47.4390709 L185.005089,51.4346983 L184.98666,51.4732306 L174.242862,72.9490997 L173.951357,72.9490997 L164.785706,53.5506218 L162.978041,49.7258765 C162.976365,49.7208506 162.97469,49.7191752 162.973015,49.7158246 L161.897462,47.4390709 L164.281436,47.4390709 L174.544419,69.6973124 L185.742228,47.4390709 L187.00374,47.4390709 Z" id="Fill-12" fill="#081F2D"></path>
                        <g id="Group-16" transform="translate(197.086626, 47.438736)">
                            <mask id="mask-2" fill="white">
                                <use xlink:href="#path-1"></use>
                            </mask>
                            <g id="Clip-15"></g>
                            <polygon id="Fill-14" fill="#081F2D" mask="url(#mask-2)" points="19.7620214 24.374165 19.4805684 25.5117042 0 25.5117042 0 0 19.4805684 0 19.7620214 1.13753921 2.12430003 1.13753921 2.12430003 9.63976529 12.298491 9.63976529 12.298491 10.7789798 2.12430003 10.7789798 2.12430003 24.374165"></polygon>
                        </g>
                        <path d="M26.2193574,106.161727 C26.2193574,104.039102 25.8206323,102.095736 25.0248575,100.33833 C24.2274073,98.580924 23.036258,97.1837109 21.4547602,96.1450153 C19.8715871,95.1063197 17.9784806,94.5752447 15.7720901,94.550115 L2.85205708,94.550115 L2.85205708,117.773338 L15.7285319,117.773338 C17.965078,117.773338 19.8632105,117.252315 21.4363317,116.215295 C23.0027517,115.176599 24.1905504,113.77101 25.0014031,112.001876 C25.8139311,110.234419 26.2193574,108.286027 26.2193574,106.161727 M28.3419821,106.161727 C28.3419821,108.470311 27.8360369,110.589585 26.827497,112.522899 C25.8206323,114.452863 24.3363028,115.995828 22.3795343,117.150121 C20.4261165,118.302738 18.1125058,118.894124 15.4403776,118.917579 L0.727757046,118.917579 L0.727757046,93.4075498 L15.4403776,93.4075498 C18.1828691,93.4075498 20.5299861,93.9771571 22.473352,95.1180469 C24.4150427,96.2606121 25.8809437,97.8035776 26.8660292,99.7469436 C27.8511147,101.691985 28.3419821,103.829687 28.3419821,106.161727" id="Fill-17" fill="#081F2D"></path>
                        <polygon id="Fill-19" fill="#081F2D" points="57.9195095 117.781045 57.6380565 118.918584 38.157488 118.918584 38.157488 93.4068797 57.6380565 93.4068797 57.9195095 94.5444189 40.2817881 94.5444189 40.2817881 103.046645 50.455979 103.046645 50.455979 104.185859 40.2817881 104.185859 40.2817881 117.781045"></polygon>
                        <g id="Group-23" transform="translate(66.945607, 92.491487)">
                            <mask id="mask-4" fill="white">
                                <use xlink:href="#path-3"></use>
                            </mask>
                            <g id="Clip-22"></g>
                            <path d="M20.5209393,20.2914211 C20.5209393,21.5730375 20.088708,22.7641868 19.2208945,23.8631937 C18.3514058,24.963876 17.1267502,25.845092 15.5519536,26.5101922 C13.9788324,27.1752924 12.1862448,27.5086802 10.1892688,27.5086802 C7.62938671,27.5086802 5.61230687,27.2540323 4.1330033,26.748087 C2.66040099,26.2404664 1.28161634,25.5619636 0,24.7159293 L0,21.777426 L0.343439674,21.777426 C1.00016334,22.64859 1.63510791,23.3874041 2.23822149,23.9888424 C2.66040099,24.4093466 3.27021582,24.8298508 4.05593878,25.250355 C4.09782167,25.2738094 4.15813303,25.3022897 4.22682096,25.3374714 C5.41629496,25.9104293 6.70461256,26.2471677 8.02308585,26.3292581 C8.69488736,26.3728163 9.41694833,26.3945954 10.1892688,26.3945954 C10.5126047,26.3945954 10.8309146,26.3828682 11.1458739,26.3661151 C11.1978087,26.3627644 11.2463928,26.3594138 11.2966523,26.3577385 C11.3971712,26.3510372 11.4960148,26.3460113 11.5931831,26.3376347 C11.7138059,26.3292581 11.8310779,26.3192062 11.9500253,26.3058037 C12.2264524,26.2773233 12.4978535,26.2471677 12.7642287,26.2052848 C13.6018864,26.0762855 14.4077132,25.8065597 15.1565792,25.4245878 C16.1852229,24.9353956 17.0027768,24.3121783 17.6008645,23.5549357 C18.272666,22.7038754 18.6077291,21.7824519 18.6077291,20.7906651 C18.6077291,20.7136006 18.6027031,20.6365361 18.6010278,20.5594716 C18.5926512,20.4388489 18.5842747,20.3215768 18.5691968,20.2026294 C18.4837557,19.5073735 18.2458609,18.8824808 17.8488112,18.331302 C17.6343708,18.0012649 17.3663203,17.6896562 17.0346078,17.4031772 C16.1014571,16.5939999 14.9689438,15.9490034 13.6404187,15.4681879 C13.0775127,15.2637994 11.8880387,14.8985806 10.668409,14.5333618 L10.6667337,14.5333618 C10.1708403,14.3859341 9.66824565,14.236831 9.20585858,14.1011304 C7.48530958,13.5935098 5.80999409,12.9451627 4.20671718,12.139336 C3.90348508,11.9868823 3.66559028,11.8595583 3.55334414,11.7841691 C2.86311416,11.321782 2.24324743,10.790707 1.6987699,10.1909441 C0.956605141,9.37674076 0.524373746,8.41510967 0.392023823,7.30772614 C0.376945984,7.16699964 0.36354346,7.02459782 0.355166882,6.88052069 C0.34846562,6.77665113 0.343439674,6.67110625 0.343439674,6.56388606 C0.343439674,5.28226972 0.738814128,4.14640582 1.52453709,3.15461905 C2.31361068,2.16283229 3.41094232,1.38883654 4.82155796,0.83430711 C6.23552423,0.276427055 7.85722961,0 9.6950507,0 C10.8761481,0 12.197972,0.154129024 13.6554965,0.470763651 C14.3256227,0.613165467 14.9639179,0.78237233 15.580434,0.973358296 C16.3091962,1.19785057 17.0078028,1.45082321 17.6695524,1.74065279 L17.6695524,4.64062389 L17.3261127,4.64062389 C16.70122,3.71920037 15.7898484,2.89494515 14.5986991,2.16283229 C14.5785953,2.15110508 14.518284,2.12262472 14.4294923,2.08409246 C12.9451627,1.44244663 11.3435611,1.11576011 9.72855701,1.11576011 L9.6950507,1.11576011 C9.24439083,1.11576011 8.80545818,1.12916264 8.37992805,1.16099363 C6.74314482,1.27994103 5.17337421,1.88975586 3.88673192,2.90834768 C3.76443389,3.00551598 3.66391496,3.09095707 3.59355171,3.16132032 C3.45785116,3.3003715 3.33890376,3.44277332 3.22665762,3.58852576 C3.21493041,3.6036036 3.19985257,3.62035676 3.18812536,3.6354346 C2.61516747,4.35582026 2.32701321,5.18510142 2.32701321,6.11992746 C2.32701321,6.19866729 2.33036384,6.2757318 2.33538978,6.35279631 C2.34041573,6.45666587 2.35046762,6.56053543 2.36219483,6.66272968 C2.4024024,6.97098772 2.47109034,7.26416793 2.56993395,7.5422703 C2.76762118,8.1805655 3.16467095,8.74682214 3.76945984,9.23936489 C3.8197193,9.28292309 3.87500471,9.32145535 3.93029012,9.36333823 C4.16315897,9.56605141 4.40943035,9.75368674 4.66910425,9.92791955 C4.72941561,9.96812712 4.83831111,10.0284385 4.9773623,10.1021524 C5.45482721,10.4104104 5.99092817,10.6868375 6.59571706,10.9247323 C7.54729625,11.3050289 8.86074359,11.7590394 10.5343838,12.293465 C12.197972,12.8128128 13.6152889,13.2986543 14.7896851,13.7509895 C15.1197222,13.8900407 15.4346815,14.0257412 15.7261864,14.1580911 C17.0563869,14.76288 18.1872249,15.5737327 19.1220509,16.5889739 C19.8910207,17.4216057 20.3366546,18.4033406 20.4740305,19.5291526 C20.4907837,19.6816063 20.5041862,19.8357353 20.5125628,19.9898643 C20.519264,20.088708 20.52429,20.1875516 20.5209393,20.2914211" id="Fill-21" fill="#081F2D" mask="url(#mask-4)"></path>
                        </g>
                        <mask id="mask-6" fill="white">
                            <use xlink:href="#path-5"></use>
                        </mask>
                        <g id="Clip-25"></g>
                        <polygon id="Fill-24" fill="#081F2D" mask="url(#mask-6)" points="97.2939467 118.918919 99.4182467 118.918919 99.4182467 93.4072147 97.2939467 93.4072147"></polygon>
                        <path d="M134.113528,105.014973 L134.113528,117.378801 C133.56905,117.482671 133.032949,117.638475 132.518627,117.85124 C131.799917,118.146096 130.868442,118.48786 129.834772,118.747534 C127.772459,119.271908 125.983222,119.531582 124.470412,119.531582 C121.392857,119.531582 118.754235,118.935169 116.557897,117.74402 C114.354857,116.551196 112.694619,114.942893 111.573833,112.920787 C110.454723,110.897006 109.893492,108.655434 109.893492,106.197746 C109.893492,103.716604 110.454723,101.461629 111.573833,99.4378479 C112.694619,97.4140668 114.354857,95.800738 116.557897,94.5978615 C118.754235,93.3933096 121.392857,92.7918714 124.470412,92.7918714 C126.120598,92.7918714 127.918211,93.044844 129.880006,93.5541399 C131.833423,94.0634358 133.230636,94.5660305 134.068294,95.0635992 L134.068294,97.4123915 L134.06997,97.4123915 L134.06997,98.0305829 L133.739932,98.0305829 C133.508739,97.6670394 132.969287,97.1577435 132.119902,96.5010198 C131.268842,95.8442962 130.131303,95.2445332 128.703934,94.6967051 C127.279916,94.1522275 125.658211,93.8774758 123.845519,93.8774758 C121.426364,93.8774758 119.350648,94.4303299 117.625073,95.5343628 C115.894472,96.6417463 114.591076,98.1311018 113.713211,100.000754 C112.835346,101.873757 112.394738,103.93607 112.394738,106.197746 C112.394738,108.459422 112.835346,110.510008 113.713211,112.357881 C114.591076,114.205754 115.894472,115.681707 117.625073,116.78574 C119.350648,117.893123 121.426364,118.447653 123.845519,118.447653 C125.602925,118.447653 127.177722,118.221485 128.578285,117.772501 C129.56002,117.455866 130.406055,117.093998 131.124765,116.688571 C131.664217,116.196029 131.990903,115.457215 131.990903,114.66144 L131.990903,105.014973 L134.113528,105.014973 Z" id="Fill-26" fill="#081F2D" mask="url(#mask-6)"></path>
                        <path d="M170.142695,93.4072147 L170.142695,118.918919 L168.827572,118.918919 C168.827572,118.918919 167.179062,111.952957 156.822262,106.380858 C151.472979,103.588107 148.040258,100.964563 145.87575,98.548758 L145.87575,118.918919 L143.75145,118.918919 L143.75145,95.6136052 C143.476698,95.1763479 143.16844,94.7223374 142.860182,94.412404 C142.218537,93.7674076 141.406009,93.7305506 141.406009,93.7305506 L141.406009,93.4072147 L144.036254,93.4072147 C144.585757,94.040484 145.123534,95.0423227 145.451895,95.5331901 C147.41704,98.4700181 151.149643,101.77039 157.938022,105.340487 C163.277252,108.235432 166.319625,111.495596 168.02007,113.988465 L168.02007,93.4072147 L170.142695,93.4072147 Z" id="Fill-27" fill="#081F2D" mask="url(#mask-6)"></path>
                    </g>
                </g>
            </g>
        </g>
    </g>
</svg>