<?xml version="1.0" encoding="UTF-8"?>
<svg width="190px" height="120px" viewBox="0 0 190 120" version="1.1" xmlns="http://www.w3.org/2000/svg" xmlns:xlink="http://www.w3.org/1999/xlink">
    <title>8D452CD1-F747-4231-B71C-BCE3552ED067</title>
    <defs>
        <polygon id="path-1" points="0 0 5 0 5 26 0 26"></polygon>
    </defs>
    <g id="LP-—-SARAY" stroke="none" stroke-width="1" fill="none" fill-rule="evenodd">
        <g id="LP-—-SARAY-——-DESKTOP" transform="translate(-75.000000, -1174.000000)">
            <g id="bloc-1" transform="translate(75.000000, 1144.000000)">
                <g id="titre" transform="translate(0.000000, 30.000000)">
                    <g id="Group-3">
                        <mask id="mask-2" fill="white">
                            <use xlink:href="#path-1"></use>
                        </mask>
                        <g id="Clip-2"></g>
                        <path d="M5,-0.000170739235 L5,26 L2.60724332,26 L2.60724332,3.76975157 C2.60724332,3.13630901 2.03586498,2.61896913 1.3326301,2.61896913 L0,2.61896913 C0.914205345,2.03504094 1.78797468,1.44599058 2.60724332,0.84157369 C2.98523207,0.563268737 3.35443038,0.283256391 3.71659634,-0.000170739235 L5,-0.000170739235 Z" id="Fill-1" fill="#081F2D" mask="url(#mask-2)"></path>
                    </g>
                    <path d="M20,23.0389164 C20,23.6005341 19.7561386,24.0675315 19.2717793,24.4399084 C18.7857383,24.8122854 18.1971073,25 17.5008409,25 C16.8045745,25 16.2142617,24.8122854 15.7282207,24.4399084 C15.2438614,24.0675315 15,23.6005341 15,23.0389164 C15,22.4788249 15.2438614,21.9980923 15.7282207,21.5997711 C16.2142617,21.1999237 16.8045745,21 17.5008409,21 C18.1971073,21 18.7857383,21.1999237 19.2717793,21.5997711 C19.7561386,21.9965662 20,22.4788249 20,23.0389164" id="Fill-4" fill="#081F2D"></path>
                    <path d="M38,47 L25.1202492,73 L24.8242991,73 L18.8207388,60.168166 L12.4620383,73 L12.1694704,73 L2.91722296,53.2315319 L1.09247886,49.3304222 C1.09078772,49.3270077 1.08740543,49.3235931 1.08571429,49.3201786 L0,47 L2.40987984,47 L3.48544726,49.3577385 L12.7681353,69.6844836 L18.1865599,58.8143017 L13.752381,49.3372513 L13.7489987,49.3304222 L12.6599021,47 L15.0647085,47 L16.1419671,49.3577385 L19.3720516,56.4292468 L24.0717401,47 L25.3468625,47 L23.31749,51.0906166 L23.3073431,51.1111038 L19.9960837,57.7967693 L25.4246551,69.6844836 L36.7265688,47 L38,47 Z" id="Fill-6" fill="#081F2D"></path>
                    <polygon id="Fill-8" fill="#081F2D" points="69 71.8390571 68.7151577 73 49 73 49 47 68.7151577 47 69 48.1609429 51.1498813 48.1609429 51.1498813 56.823626 61.4465921 56.823626 61.4465921 57.9845689 51.1498813 57.9845689 51.1498813 71.8390571"></polygon>
                    <path d="M122.724676,64.9737125 L115.972241,50.0259707 L108.393968,64.9737125 L122.724676,64.9737125 Z M129,73 L126.574536,73 L123.233017,65.8921264 L109.486988,65.8921264 C108.472041,65.8921264 107.543841,66.4736175 107.080609,67.395452 L104.372348,73 L103,73 L116.215134,46 L116.517016,46 L126.010677,66.5300564 L127.880956,70.5782606 C127.882691,70.5816811 127.88616,70.5851017 127.887895,70.5885222 L129,73 Z" id="Fill-10" fill="#081F2D"></path>
                    <path d="M149.853659,62.5774611 C150.878049,62.4272017 151.797909,62.1505878 152.614983,61.7476194 C153.907666,61.1004794 154.890244,60.2330728 155.552265,59.1419846 C156.175958,58.1191962 156.5,56.9683457 156.538328,55.7013857 C156.54007,55.6347935 156.545296,55.5682012 156.545296,55.498194 L156.545296,55.4811191 L156.545296,55.4640441 C156.545296,55.3940369 156.54007,55.3274447 156.538328,55.2608524 C156.498258,53.9938924 156.175958,52.846457 155.552265,51.818546 C154.891986,50.7291653 153.907666,49.8617587 152.614983,49.2146188 C151.797909,48.8099429 150.878049,48.533329 149.853659,48.3813621 C149.592334,48.3335522 149.3223,48.2942799 149.052265,48.26696 C149.11324,48.277205 149.175958,48.2840349 149.236934,48.2942799 C149.106272,48.27379 148.970383,48.26696 148.837979,48.2498851 C148.667247,48.2379326 148.5,48.2208577 148.327526,48.2140277 L140.203833,48.2140277 L140.203833,58.4248375 L140.209059,58.4248375 L140.209059,62.7140606 L147.928571,62.7140606 C148.249129,62.7140606 148.559233,62.7004006 148.862369,62.6833257 C149.163763,62.6611283 149.456446,62.6303934 149.74216,62.591121 C149.778746,62.587706 149.817073,62.5842911 149.853659,62.5774611 M160,72.6328889 L159.996516,73 L157.91115,73 C156.271777,73 154.722997,72.2657779 153.705575,71.0022329 L148.034843,63.9622381 L140.209059,63.9622381 L140.209059,73 L138,73 L138,47 L150.137631,47 C151.738676,47 153.21777,47.377356 154.576655,48.1371905 C155.93554,48.89361 157.005226,49.924936 157.796167,51.2311683 C158.576655,52.5288632 158.970383,53.9460826 158.973868,55.4811191 C158.970383,57.014448 158.576655,58.4316674 157.796167,59.7293623 C157.006969,61.0373022 155.93554,62.0669206 154.576655,62.8250476 C153.416376,63.4738951 152.163763,63.8410061 150.827526,63.9349182 L156.531359,70.9885729 C157.369338,72.0284363 158.648084,72.6328889 160,72.6328889" id="Fill-12" fill="#081F2D"></path>
                    <polygon id="Fill-14" fill="#081F2D" points="190 71.8390571 189.715158 73 170 73 170 47 189.715158 47 190 48.1609429 172.149881 48.1609429 172.149881 56.823626 182.446592 56.823626 182.446592 57.9845689 172.149881 57.9845689 172.149881 71.8390571"></polygon>
                    <path d="M25,105.340392 L25,117.826264 C24.4379885,117.931145 23.8846234,118.086774 23.3537387,118.30161 C22.6118835,118.599336 21.6504116,118.946119 20.5834544,119.206629 C18.4547278,119.736107 16.6078716,120 15.0463443,120 C11.8696825,120 9.1460884,119.39609 6.87902054,118.193346 C4.60503562,116.990602 2.89133292,115.364952 1.7344539,113.323163 C0.579304143,111.281373 0,109.017981 0,106.53637 C0,104.029384 0.579304143,101.752459 1.7344539,99.7106698 C2.89133292,97.6654971 4.60503562,96.0364639 6.87902054,94.82357 C9.1460884,93.6056012 11.8696825,93 15.0463443,93 C16.7496714,93 18.605174,93.2537435 20.6301446,93.7696886 C22.6464688,94.2822505 24.0886768,94.7914291 24.9533098,95.2938412 L24.9533098,97.6654971 L24.9550391,97.6654971 L24.9550391,98.2897062 L24.6143737,98.2897062 C24.3757349,97.9226239 23.8189113,97.4083704 22.9421733,96.7435624 C22.0637062,96.0821377 20.8895345,95.4748449 19.4161998,94.9233757 C17.9463236,94.3719065 16.272394,94.0944803 14.4013281,94.0944803 C11.9042678,94.0944803 9.76170713,94.652716 7.98056305,95.7691874 C6.19423117,96.8856588 4.84886214,98.3895119 3.94272671,100.279055 C3.03659127,102.168598 2.58179429,104.252678 2.58179429,106.53637 C2.58179429,108.820061 3.03659127,110.890608 3.94272671,112.754777 C4.84886214,114.620638 6.19423117,116.110958 7.98056305,117.227429 C9.76170713,118.343901 11.9042678,118.903828 14.4013281,118.903828 C16.2153282,118.903828 17.8408383,118.675459 19.2865048,118.222104 C20.2998547,117.902387 21.1731341,117.538688 21.9149893,117.129315 C22.471813,116.630286 22.8090199,115.885972 22.8090199,115.080759 L22.8090199,105.340392 L25,105.340392 Z" id="Fill-16" fill="#081F2D"></path>
                    <path d="M45.8536585,108.577461 C46.8780488,108.427202 47.7979094,108.147173 48.6149826,107.744204 C49.9076655,107.097064 50.8902439,106.233073 51.5522648,105.141985 C52.1759582,104.115781 52.5,102.968346 52.5383275,101.701386 C52.5400697,101.634793 52.5452962,101.564786 52.5452962,101.498194 L52.5452962,101.481119 L52.5452962,101.460629 C52.5452962,101.394037 52.5400697,101.327445 52.5383275,101.257437 C52.4982578,99.9904774 52.1759582,98.843042 51.5522648,97.815131 C50.8919861,96.7257503 49.9076655,95.8583437 48.6149826,95.2146188 C47.7979094,94.8082354 46.8780488,94.529914 45.8536585,94.3813621 C45.5923345,94.3301373 45.3222997,94.2942799 45.0522648,94.263545 C45.1132404,94.27379 45.1759582,94.28062 45.2369338,94.2942799 C45.1062718,94.27379 44.9703833,94.263545 44.8379791,94.2498851 C44.6672474,94.2345176 44.5,94.2174427 44.3275261,94.2140277 L36.2038328,94.2140277 L36.2038328,104.421422 L36.2090592,104.421422 L36.2090592,108.710646 L43.9285714,108.710646 C44.2491289,108.710646 44.5592334,108.700401 44.8623693,108.681618 C45.1637631,108.661128 45.456446,108.630393 45.7421603,108.591121 C45.7787456,108.584291 45.8170732,108.584291 45.8536585,108.577461 M56,118.629474 L55.9965157,119 L53.9111498,119 C52.271777,119 50.7229965,118.262363 49.7055749,117.002233 L44.0348432,109.958823 L36.2090592,109.958823 L36.2090592,119 L34,119 L34,93 L46.1376307,93 C47.738676,93 49.21777,93.377356 50.5766551,94.1337755 C51.9355401,94.89361 53.0052265,95.924936 53.7961672,97.2294608 C54.5766551,98.5288632 54.9703833,99.9460826 54.9738676,101.481119 C54.9703833,103.014448 54.5766551,104.428252 53.7961672,105.729362 C53.0069686,107.033887 51.9355401,108.066921 50.5766551,108.825048 C49.4163763,109.47048 48.1637631,109.841006 46.8275261,109.934918 L52.5313589,116.988573 C53.369338,118.025021 54.6480836,118.632889 56,118.629474" id="Fill-18" fill="#081F2D"></path>
                    <polygon id="Fill-20" fill="#081F2D" points="86 117.84232 85.7151577 119 66 119 66 93 85.7151577 93 86 94.1576804 68.1498813 94.1576804 68.1498813 102.824916 78.4465921 102.824916 78.4465921 103.986012 68.1498813 103.986012 68.1498813 117.84232"></polygon>
                    <polygon id="Fill-22" fill="#081F2D" points="116 117.84232 115.715158 119 96 119 96 93 115.715158 93 116 94.1576804 98.1498813 94.1576804 98.1498813 102.824916 108.446592 102.824916 108.446592 103.986012 98.1498813 103.986012 98.1498813 117.84232"></polygon>
                    <path d="M153,93 L153,119 L151.671214,119 C151.671214,119 150.007695,111.90195 139.556605,106.222828 C134.158622,103.374729 130.694648,100.700795 128.510435,98.2385893 L128.510435,119 L126.366795,119 L126.366795,95.2470611 C126.089542,94.8014054 125.778477,94.3403822 125.467413,94.024496 C124.819925,93.3671111 124,93.3295462 124,93.3295462 L124,93 L126.654191,93 C127.208698,93.643725 127.75137,94.6648059 128.082721,95.1651015 C130.065757,98.1583372 133.832342,101.523806 140.682523,105.162475 C146.070363,108.111315 149.140434,111.435805 150.85636,113.976555 L150.85636,93 L153,93 Z" id="Fill-24" fill="#081F2D"></path>
                </g>
            </g>
        </g>
    </g>
</svg>