<?xml version="1.0" encoding="UTF-8"?>
<svg width="551px" height="120px" viewBox="0 0 551 120" version="1.1" xmlns="http://www.w3.org/2000/svg" xmlns:xlink="http://www.w3.org/1999/xlink">
    <title>348AADBF-98BA-47C0-8E75-10B56D34F0C2</title>
    <defs>
        <polygon id="path-1" points="0 0 20.3645462 0 20.3645462 25.8371501 0 25.8371501"></polygon>
        <polygon id="path-3" points="0 120 550.887193 120 550.887193 0 0 0"></polygon>
    </defs>
    <g id="LP-—-SARAY" stroke="none" stroke-width="1" fill="none" fill-rule="evenodd">
        <g id="LP-—-SARAY-——-DESKTOP" transform="translate(-75.000000, -3094.000000)">
            <g id="bloc-5" transform="translate(75.000000, 3064.000000)">
                <g id="titre" transform="translate(0.000000, 30.000000)">
                    <g id="Group-3" transform="translate(0.000000, 0.000170)">
                        <mask id="mask-2" fill="white">
                            <use xlink:href="#path-1"></use>
                        </mask>
                        <g id="Clip-2"></g>
                        <path d="M20.3645462,17.2926209 C20.3645462,19.7659033 19.3280746,21.8100085 17.2517388,23.4215437 C15.9709924,24.4156064 14.4629347,25.1026293 12.7377439,25.4826124 C11.6673452,25.7184054 10.5138253,25.8371501 9.2754877,25.8371501 C7.37048346,25.8371501 5.68770144,25.5606446 4.21357082,25.0212044 C3.55029686,24.7769296 2.92603902,24.4851569 2.34927905,24.1306192 C1.22120441,23.4418999 0.440882103,22.6547922 -0.000169635284,21.7760814 L0.737743851,21.129771 C0.912468193,21.3638677 1.09906701,21.5928753 1.30262935,21.8100085 C2.70551315,23.3044953 4.78184902,24.3596268 7.16861747,24.6785411 C7.6639525,24.7463953 8.17285835,24.7803223 8.69194232,24.7803223 C9.21102629,24.7803223 9.71993215,24.7463953 10.2152672,24.6785411 C11.5570823,24.4987277 12.8039016,24.086514 13.8861747,23.4944869 C16.3492791,22.1458863 17.9675997,19.8659881 17.9675997,17.2773537 C17.9675997,14.6887193 16.3475827,12.4071247 13.882782,11.0585242 C12.401866,10.2493639 10.6139101,9.77438507 8.69194232,9.77438507 C6.18303647,9.77438507 3.90992366,10.5852417 2.23901612,11.8931298 C2.04054283,12.0508906 1.84885496,12.2154368 1.66734521,12.3850721 L1.0668363,12.3087362 L0.92264631,12.28838 L2.16946565,4.13401187 L2.79541985,0.00678541137 L9.93876166,0.00678541137 L9.93876166,0 L17.3111111,0 L16.8463104,2.14927905 L13.8030534,2.14927905 L13.8013571,2.15606446 L3.72841391,2.15606446 L2.48159457,10.3155216 C3.12960136,9.92875318 3.93876166,9.58948261 4.92094996,9.29940628 C6.39338422,8.86005089 7.91501272,8.64122137 9.48753181,8.64122137 C12.5884648,8.64122137 15.1770992,9.45886344 17.2517388,11.0941476 C19.3280746,12.7277354 20.3645462,14.7938931 20.3645462,17.2926209" id="Fill-1" fill="#081F2D" mask="url(#mask-2)"></path>
                    </g>
                    <path d="M33.8227311,23.452078 C33.8227311,24.0746395 33.57676,24.5954198 33.0882103,25.0093299 C32.5979644,25.4215437 32.0042409,25.6301951 31.3019508,25.6301951 C30.5996607,25.6301951 30.0042409,25.4215437 29.5139949,25.0093299 C29.0254453,24.5954198 28.7794741,24.0746395 28.7794741,23.452078 C28.7794741,22.8278202 29.0254453,22.293469 29.5139949,21.8507209 C30.0042409,21.4062765 30.5996607,21.1857506 31.3019508,21.1857506 C32.0042409,21.1857506 32.5979644,21.4062765 33.0882103,21.8507209 C33.57676,22.2917727 33.8227311,22.8278202 33.8227311,23.452078" id="Fill-4" fill="#081F2D"></path>
                    <path d="M39.117218,46.5284139 L26.1977947,72.360475 L25.900933,72.360475 L19.8788804,59.6123834 L13.5005937,72.360475 L13.2071247,72.360475 L3.92637829,52.7184054 L2.09601357,48.8439355 C2.09431722,48.8388465 2.09092451,48.8354538 2.08922816,48.8320611 L1.00016964,46.5284139 L3.41747243,46.5284139 L4.49635284,48.8693808 L13.8076336,69.0678541 L19.2427481,58.2654792 L14.7949109,48.8507209 L14.7915182,48.8439355 L13.699067,46.5284139 L16.1112807,46.5284139 L17.1918575,48.8693808 L20.4318914,55.8973707 L25.146056,46.5284139 L26.425106,46.5284139 L24.3894826,50.5928753 L24.3793045,50.6132316 L21.0578456,57.2544529 L26.5031383,69.0661578 L37.8398643,46.5284139 L39.117218,46.5284139 Z" id="Fill-6" fill="#081F2D"></path>
                    <polygon id="Fill-8" fill="#081F2D" points="69.3467345 71.2083121 69.0617472 72.3601357 49.3365564 72.3601357 49.3365564 46.5280746 69.0617472 46.5280746 69.3467345 47.6798982 51.4875318 47.6798982 51.4875318 56.2888889 61.7894826 56.2888889 61.7894826 57.4424088 51.4875318 57.4424088 51.4875318 71.2083121"></polygon>
                    <polygon id="Fill-10" fill="#081F2D" points="122.795081 71.2083121 122.510093 72.3601357 102.784902 72.3601357 102.784902 46.5280746 104.935878 46.5280746 104.935878 71.2083121"></polygon>
                    <mask id="mask-4" fill="white">
                        <use xlink:href="#path-3"></use>
                    </mask>
                    <g id="Clip-13"></g>
                    <polygon id="Fill-12" fill="#081F2D" mask="url(#mask-4)" points="133.462256 72.3596268 135.613232 72.3596268 135.613232 46.5275657 133.462256 46.5275657"></polygon>
                    <path d="M172.201357,72.2237489 L172.201357,72.3594572 L168.014758,72.3594572 L167.633079,72.0473282 L152.220017,59.4960136 C151.159796,60.2729432 150.220017,61.0210348 149.487193,61.7199321 C148.767939,62.4052587 148.3676,63.358609 148.3676,64.3543681 L148.3676,72.3594572 L146.218321,72.3594572 L146.218321,46.5290925 L148.3676,46.5290925 L148.3676,61.2161154 C149.129262,60.4324003 150.126718,59.6096692 151.298897,58.7462256 C151.867176,58.3272265 152.47447,57.8963528 153.115691,57.4553011 C154.287871,56.6478372 161.885835,51.4111959 170.091094,46.5290925 L172.201357,46.5290925 L172.201357,46.6648007 C162.39983,52.3102629 155.168278,57.4349449 154.0419,58.2067854 L168.387956,69.8895674 C169.544869,70.8310433 170.825615,71.6079729 172.18609,72.2152672 C172.191179,72.2169635 172.196268,72.2203562 172.201357,72.2237489" id="Fill-14" fill="#081F2D" mask="url(#mask-4)"></path>
                    <polygon id="Fill-15" fill="#081F2D" mask="url(#mask-4)" points="202.175742 71.2083121 201.890755 72.3601357 182.165564 72.3601357 182.165564 46.5280746 201.890755 46.5280746 202.175742 47.6798982 184.316539 47.6798982 184.316539 56.2888889 194.61849 56.2888889 194.61849 57.4424088 184.316539 57.4424088 184.316539 71.2083121"></polygon>
                    <path d="M2.83443596,94.0544529 L2.83443596,102.334351 L14.3017812,102.334351 C15.5536896,102.334351 16.6206955,101.927226 17.507888,101.112977 C18.3967769,100.298728 18.839525,99.3250212 18.839525,98.1935539 C18.839525,96.9959288 18.4459712,96.006955 17.6588634,95.2249364 C16.8700594,94.4446141 15.738592,94.0544529 14.2644614,94.0544529 L2.83443596,94.0544529 Z M21.2771841,110.675318 C21.2771841,109.399661 20.9718405,108.225785 20.3594572,107.158779 C19.7504665,106.090076 18.9056828,105.224936 17.8335878,104.559966 C16.7614928,103.898388 15.589313,103.542154 14.315352,103.49296 L2.83273961,103.49296 L2.83273961,117.85598 L13.9760814,117.85598 C15.5248516,117.85598 16.8480068,117.540458 17.9472434,116.899237 C19.0430874,116.261408 19.8743003,115.401357 20.435793,114.32078 C20.9955895,113.2419 21.2771841,112.025615 21.2771841,110.675318 L21.2771841,110.675318 Z M23.5757422,110.89754 C23.5757422,112.349618 23.2347752,113.691433 22.5596268,114.921289 C21.8810857,116.149449 20.9599661,117.123155 19.7894826,117.835623 C18.6206955,118.548092 17.3484309,118.904326 15.969296,118.904326 L0.68346056,118.904326 L0.68346056,93.073961 L16.0371501,93.073961 C17.4637829,93.073961 18.6495335,93.5472434 19.594402,94.4938083 C20.5409669,95.4403732 21.0159457,96.6532655 21.0159457,98.1290925 C21.0159457,99.2113656 20.6359627,100.19525 19.877693,101.082443 C19.1160305,101.967939 18.1762511,102.592197 17.0566582,102.962002 C18.2678541,103.136726 19.3721798,103.596438 20.3679389,104.346226 C21.3603053,105.09771 22.142324,106.042578 22.7156913,107.187617 C23.2890585,108.332655 23.5757422,109.569296 23.5757422,110.89754 L23.5757422,110.89754 Z" id="Fill-16" fill="#081F2D" mask="url(#mask-4)"></path>
                    <path d="M45.0113656,108.549618 C46.008821,108.400339 46.9044953,108.123834 47.7000848,107.723494 C48.9587786,107.080577 49.9155216,106.220526 50.5601357,105.136556 C51.16743,104.118745 51.4829517,102.977099 51.5202714,101.718405 C51.5219678,101.652248 51.5270568,101.584394 51.5270568,101.516539 L51.5270568,101.499576 L51.5270568,101.480916 C51.5270568,101.413062 51.5219678,101.346904 51.5202714,101.27905 C51.4812553,100.020356 51.16743,98.8804071 50.5601357,97.8592027 C49.917218,96.7769296 48.9587786,95.9151824 47.7000848,95.273961 C46.9044953,94.8719254 46.008821,94.5954198 45.0113656,94.4461408 C44.7569126,94.3969466 44.4939779,94.3596268 44.2310433,94.3307888 C44.2904156,94.3409669 44.3514843,94.3477523 44.4108567,94.3596268 C44.2836302,94.3392706 44.1513147,94.3307888 44.0223919,94.3155216 C43.8561493,94.3019508 43.6932994,94.2849873 43.5253605,94.2798982 L35.6152672,94.2798982 L35.6152672,104.422392 L35.6203562,104.422392 L35.6203562,108.68363 L43.1368957,108.68363 C43.4490246,108.68363 43.7509754,108.671756 44.0461408,108.654792 C44.3396098,108.63274 44.6245971,108.602205 44.902799,108.563189 C44.9384224,108.5581 44.9757422,108.556404 45.0113656,108.549618 M54.8909245,118.537744 L54.8875318,118.904156 L52.8569975,118.904156 C51.2607294,118.904156 49.7526718,118.173028 48.7620017,116.92112 L43.2403732,109.923664 L35.6203562,109.923664 L35.6203562,118.904156 L33.4693808,118.904156 L33.4693808,93.0737913 L45.2878711,93.0737913 C46.8468193,93.0737913 48.2870229,93.4486853 49.6101781,94.201866 C50.9333333,94.9550466 51.974894,95.9796438 52.7450382,97.2756573 C53.5050042,98.5665818 53.88838,99.9745547 53.8917727,101.499576 C53.88838,103.022901 53.5050042,104.429177 52.7450382,105.720102 C51.9765903,107.017812 50.9333333,108.042409 49.6101781,108.795589 C48.4804071,109.438507 47.2607294,109.804919 45.9596268,109.898219 L51.513486,116.905852 C52.3294317,117.937235 53.5745547,118.53944 54.8909245,118.537744" id="Fill-17" fill="#081F2D" mask="url(#mask-4)"></path>
                    <polygon id="Fill-18" fill="#081F2D" mask="url(#mask-4)" points="84.8424088 117.75369 84.5574215 118.905513 64.8322307 118.905513 64.8322307 93.0734521 84.5574215 93.0734521 84.8424088 94.2252757 66.9832061 94.2252757 66.9832061 102.834266 77.2851569 102.834266 77.2851569 103.987786 66.9832061 103.987786 66.9832061 117.75369"></polygon>
                    <path d="M114.321628,110.945038 L107.719423,96.1189143 L100.309754,110.945038 L114.321628,110.945038 Z M120.457337,118.904326 L118.085835,118.904326 L114.81866,111.854283 L101.378456,111.854283 C100.38609,111.854283 99.4785411,112.431043 99.0256149,113.347074 L96.3776081,118.904326 L95.035793,118.904326 L107.956913,92.1256997 L108.252078,92.1256997 L117.534521,112.487023 L119.363189,116.50229 C119.364885,116.507379 119.368278,116.510772 119.369975,116.514165 L120.457337,118.904326 Z" id="Fill-19" fill="#081F2D" mask="url(#mask-4)"></path>
                    <polygon id="Fill-20" fill="#081F2D" mask="url(#mask-4)" points="149.973198 94.225106 137.048685 94.225106 137.048685 118.905344 134.89771 118.905344 134.89771 94.225106 121.969805 94.225106 122.261578 93.0732824 149.681425 93.0732824"></polygon>
                    <path d="M186.645123,93.0737913 L186.645123,118.904156 L184.494148,118.904156 L184.494148,107.789652 C181.58151,107.940628 177.774894,107.482612 172.925021,106.118745 C168.828329,104.968617 164.863953,104.858355 162.071756,104.960136 L162.071756,118.905852 L159.92078,118.905852 L159.92078,93.0737913 L162.071756,93.0737913 L162.071756,103.838846 C164.874131,103.721798 168.938592,103.806616 173.145547,104.988974 C177.871586,106.318914 181.608651,106.788804 184.494148,106.671756 L184.494148,93.0737913 L186.645123,93.0737913 Z" id="Fill-21" fill="#081F2D" mask="url(#mask-4)"></path>
                    <polygon id="Fill-22" fill="#081F2D" mask="url(#mask-4)" points="224.559627 94.225106 211.635115 94.225106 211.635115 118.905344 209.484139 118.905344 209.484139 94.225106 196.556234 94.225106 196.848007 93.0732824 224.267854 93.0732824"></polygon>
                    <path d="M245.414589,110.945038 L238.812383,96.1189143 L231.402714,110.945038 L245.414589,110.945038 Z M251.550297,118.904326 L249.178796,118.904326 L245.91162,111.854283 L232.471416,111.854283 C231.47905,111.854283 230.571501,112.431043 230.118575,113.347074 L227.470568,118.904326 L226.128753,118.904326 L239.049873,92.1256997 L239.345038,92.1256997 L248.627481,112.487023 L250.456149,116.50229 C250.457846,116.507379 250.461238,116.510772 250.462935,116.514165 L251.550297,118.904326 Z" id="Fill-23" fill="#081F2D" mask="url(#mask-4)"></path>
                    <path d="M287.690755,118.769126 L287.690755,118.904835 L283.504156,118.904835 L283.122477,118.592706 L267.709415,106.041391 C266.649194,106.818321 265.709415,107.566412 264.97659,108.26531 C264.257337,108.950636 263.856997,109.903986 263.856997,110.899746 L263.856997,118.904835 L261.707718,118.904835 L261.707718,93.0744699 L263.856997,93.0744699 L263.856997,107.761493 C264.61866,106.977778 265.616115,106.155047 266.788295,105.291603 C267.356573,104.872604 267.963868,104.44173 268.605089,104.000679 C269.777269,103.193215 277.375233,97.9565734 285.580492,93.0744699 L287.690755,93.0744699 L287.690755,93.2101781 C277.889228,98.8556404 270.657676,103.980322 269.531298,104.752163 L283.877354,116.434945 C285.034266,117.376421 286.315013,118.15335 287.675488,118.760645 C287.680577,118.762341 287.685666,118.765734 287.690755,118.769126" id="Fill-24" fill="#081F2D" mask="url(#mask-4)"></path>
                    <polygon id="Fill-25" fill="#081F2D" mask="url(#mask-4)" points="298.390161 118.905852 300.541137 118.905852 300.541137 93.0737913 298.390161 93.0737913"></polygon>
                    <path d="M337.733164,93.0737913 L337.733164,118.905852 L336.401527,118.905852 C336.401527,118.905852 334.732316,111.852417 324.245462,106.210348 C318.829008,103.382528 315.353181,100.726039 313.161493,98.2798982 L313.161493,118.905852 L311.010517,118.905852 L311.010517,95.307888 C310.732316,94.8651399 310.420187,94.4054283 310.108058,94.0916031 C309.458355,93.4385072 308.635623,93.4011874 308.635623,93.4011874 L308.635623,93.0737913 L311.298897,93.0737913 C311.855301,93.7150127 312.39983,94.7294317 312.732316,95.2264631 C314.722137,98.2001696 318.501612,101.541985 325.375233,105.156913 C330.78151,108.08821 333.862087,111.389313 335.583885,113.913486 L335.583885,93.0737913 L337.733164,93.0737913 Z" id="Fill-26" fill="#081F2D" mask="url(#mask-4)"></path>
                    <path d="M372.096014,104.827311 L372.096014,117.346395 C371.544699,117.451569 371.001866,117.60933 370.481086,117.824767 C369.75335,118.123325 368.810178,118.469381 367.763528,118.732316 C365.675318,119.263274 363.863613,119.526209 362.331807,119.526209 C359.215606,119.526209 356.543851,118.922307 354.319932,117.7162 C352.089228,116.508397 350.408142,114.879898 349.273282,112.8324 C348.140119,110.783206 347.571841,108.513486 347.571841,106.024936 C347.571841,103.512638 348.140119,101.229347 349.273282,99.1801527 C350.408142,97.1309584 352.089228,95.4973707 354.319932,94.2793893 C356.543851,93.0597116 359.215606,92.4507209 362.331807,92.4507209 C364.002714,92.4507209 365.822901,92.7068702 367.80933,93.2225615 C369.788974,93.7382528 371.202036,94.2471586 372.050212,94.7509754 L372.050212,97.1292621 L372.051908,97.1292621 L372.051908,97.7552163 L371.717727,97.7552163 C371.48363,97.3871077 370.937405,96.8714165 370.077354,96.2064461 C369.215606,95.5414758 368.063783,94.9341815 366.61849,94.3794741 C365.17659,93.8281595 363.534521,93.5499576 361.697371,93.5499576 C359.249534,93.5499576 357.147752,94.109754 355.400509,95.2276506 C353.648176,96.3489398 352.328414,97.8569975 351.439525,99.7501272 C350.550636,101.64665 350.104495,103.73486 350.104495,106.024936 C350.104495,108.315013 350.550636,110.391349 351.439525,112.262426 C352.328414,114.133503 353.648176,115.62799 355.400509,116.745886 C357.147752,117.867176 359.249534,118.428668 361.697371,118.428668 C363.478541,118.428668 365.073113,118.199661 366.491264,117.745038 C367.485327,117.424427 368.341985,117.058015 369.06972,116.647498 C369.615946,116.14877 369.946735,115.400679 369.946735,114.594911 L369.946735,104.827311 L372.096014,104.827311 Z" id="Fill-27" fill="#081F2D" mask="url(#mask-4)"></path>
                    <path d="M431.237998,93.0737913 L429.214249,97.1195929 L429.195589,97.158609 L418.316879,118.904156 L418.021713,118.904156 L408.740967,99.2620865 L406.910602,95.389313 C406.908906,95.3842239 406.907209,95.3825276 406.905513,95.3791349 L405.816455,93.0737913 L408.230365,93.0737913 L418.622222,115.611535 L429.960645,93.0737913 L431.237998,93.0737913 Z" id="Fill-28" fill="#081F2D" mask="url(#mask-4)"></path>
                    <polygon id="Fill-29" fill="#081F2D" mask="url(#mask-4)" points="442.184902 118.905852 444.335878 118.905852 444.335878 93.0737913 442.184902 93.0737913"></polygon>
                    <polygon id="Fill-30" fill="#081F2D" mask="url(#mask-4)" points="475.003562 117.75369 474.718575 118.905513 454.993384 118.905513 454.993384 93.0734521 474.718575 93.0734521 475.003562 94.2252757 457.14436 94.2252757 457.14436 102.834266 467.44631 102.834266 467.44631 103.987786 457.14436 103.987786 457.14436 117.75369"></polygon>
                    <path d="M522.035963,93.0753181 L523.313316,93.0753181 L510.393893,118.905683 L510.097031,118.905683 L504.074979,106.157591 L497.696692,118.905683 L497.403223,118.905683 L488.122477,99.2636132 L486.292112,95.3891433 C486.290416,95.3840543 486.287023,95.3806616 486.285327,95.3772689 L485.196268,93.0736217 L487.613571,93.0736217 L488.692451,95.4145886 L498.003732,115.613062 L503.438846,104.810687 L498.991009,95.3959288 L498.987617,95.3891433 L497.895165,93.0736217 L500.307379,93.0736217 L501.387956,95.4145886 L504.62799,102.442578 L509.342154,93.0736217 L510.621204,93.0736217 L508.585581,97.1397795 L508.575403,97.1584394 L505.252248,103.799661 L510.699237,115.611366 L522.035963,93.0736217 L522.035963,93.0753181 Z" id="Fill-31" fill="#081F2D" mask="url(#mask-4)"></path>
                    <path d="M550.885666,112.692791 C550.885666,113.9905 550.448007,115.196607 549.569296,116.309415 C548.688889,117.423919 547.448855,118.3162 545.854283,118.989652 C544.261408,119.663104 542.44631,120.000679 540.424258,120.000679 C537.832231,120.000679 535.789822,119.742833 534.291942,119.230534 C532.800848,118.716539 531.40475,118.029517 530.10704,117.172858 L530.10704,114.197455 L530.454792,114.197455 C531.119763,115.079559 531.76268,115.827651 532.373367,116.436641 C532.800848,116.862426 533.416624,117.28821 534.21391,117.713995 C534.256319,117.737744 534.317388,117.766582 534.386938,117.802205 C535.591349,118.382358 536.895844,118.723325 538.230874,118.806446 C538.911111,118.850551 539.642239,118.872604 540.424258,118.872604 C540.751654,118.872604 541.073961,118.860729 541.392875,118.843766 C541.445462,118.840373 541.494656,118.83698 541.545547,118.835284 C541.647328,118.828499 541.747413,118.82341 541.845802,118.814928 C541.967939,118.806446 542.086684,118.796268 542.207125,118.782697 C542.487023,118.753859 542.761832,118.723325 543.031552,118.680916 C543.879729,118.550297 544.695674,118.277184 545.453944,117.890416 C546.495505,117.395081 547.323325,116.764037 547.928923,115.997286 C548.60916,115.135539 548.948431,114.202545 548.948431,113.198304 C548.948431,113.120271 548.943342,113.042239 548.941645,112.964207 C548.933164,112.84207 548.924682,112.723325 548.909415,112.602884 C548.822901,111.898897 548.582019,111.266158 548.179983,110.708058 C547.96285,110.373876 547.691433,110.058355 547.355556,109.768278 C546.410687,108.94894 545.265649,108.295844 543.918745,107.808991 C543.34877,107.602036 542.14436,107.232231 540.909415,106.862426 L540.907718,106.862426 C540.405598,106.713147 539.896692,106.562171 539.428499,106.424767 C537.686344,105.910772 535.989992,105.254283 534.366582,104.438338 C534.059542,104.283969 533.81866,104.155047 533.705004,104.078711 C533.006107,103.610517 532.378456,103.072774 531.827142,102.465479 C531.075657,101.641052 530.637998,100.667345 530.503986,99.546056 C530.488719,99.4035623 530.475148,99.2593723 530.466667,99.113486 C530.459881,99.0083121 530.454792,98.9014419 530.454792,98.7928753 C530.454792,97.4951654 530.855131,96.3450382 531.650721,95.3407973 C532.449703,94.3365564 533.560814,93.5528414 534.989143,92.9913486 C536.420865,92.4264631 538.062935,92.1465649 539.923834,92.1465649 C541.119763,92.1465649 542.458185,92.3026293 543.934012,92.62324 C544.612553,92.76743 545.258863,92.9387617 545.883121,93.1321459 C546.621035,93.3594572 547.328414,93.6156064 547.998473,93.9090755 L547.998473,96.8454623 L547.650721,96.8454623 C547.017981,95.9124682 546.095165,95.0778626 544.889059,94.3365564 C544.870399,94.3246819 544.807634,94.2958439 544.717727,94.2568278 C543.214758,93.6071247 541.593045,93.2763359 539.957761,93.2763359 L539.923834,93.2763359 C539.467515,93.2763359 539.02307,93.2899067 538.592197,93.3221374 C536.93486,93.4425785 535.345377,94.0600509 534.042578,95.0914334 C533.918745,95.1898219 533.816964,95.2763359 533.745717,95.3475827 C533.608312,95.48838 533.487871,95.63257 533.374215,95.7801527 C533.362341,95.7954198 533.347074,95.8123834 533.335199,95.8276506 C532.755047,96.5570823 532.463274,97.3967769 532.463274,98.3433418 C532.463274,98.4230704 532.466667,98.5011026 532.471756,98.5791349 C532.476845,98.6843087 532.487023,98.7894826 532.498897,98.8929601 C532.53961,99.2050891 532.60916,99.5019508 532.709245,99.7835454 C532.909415,100.429856 533.31145,101.003223 533.923834,101.501951 C533.974724,101.546056 534.030704,101.585072 534.086684,101.627481 C534.322477,101.83274 534.571841,102.022731 534.834775,102.199152 C534.895844,102.239864 535.006107,102.300933 535.146904,102.375573 C535.630365,102.687701 536.173198,102.9676 536.785581,103.208482 C537.749109,103.593554 539.07905,104.053265 540.773707,104.594402 C542.458185,105.120271 543.893299,105.612214 545.082443,106.070229 C545.416624,106.211026 545.735539,106.348431 546.030704,106.482443 C547.377608,107.094826 548.522646,107.915861 549.469211,108.943851 C550.247837,109.786938 550.699067,110.781001 550.838168,111.92095 C550.855131,112.075318 550.868702,112.231383 550.877184,112.387447 C550.883969,112.487532 550.889059,112.587617 550.885666,112.692791" id="Fill-32" fill="#081F2D" mask="url(#mask-4)"></path>
                </g>
            </g>
        </g>
    </g>
</svg>