<?xml version="1.0" encoding="UTF-8"?>
<svg width="1070px" height="143px" viewBox="0 0 1070 143" version="1.1" xmlns="http://www.w3.org/2000/svg" xmlns:xlink="http://www.w3.org/1999/xlink">
    <title>A0E8D1DA-25C5-45DA-90FC-311393C03E60</title>
    <defs>
        <polygon id="path-1" points="0 0 51.3813408 0 51.3813408 53.4165832 0 53.4165832"></polygon>
        <polygon id="path-3" points="0 0 57.2476693 0 57.2476693 51.5773425 0 51.5773425"></polygon>
    </defs>
    <g id="LP-—-SARAY" stroke="none" stroke-width="1" fill="none" fill-rule="evenodd">
        <g id="LP-—-SARAY-——-DESKTOP" transform="translate(-185.000000, -624.000000)">
            <g id="titre-hero" transform="translate(185.000000, 624.000000)">
                <polygon id="Fill-1" fill="#C8CCD0" points="0 2 0 54 39.1259504 54 40 50.3934375 5.45719008 50.3934375 5.45719008 2"></polygon>
                <polygon id="Fill-2" fill="#C8CCD0" points="69 54 75 54 75 2 69 2"></polygon>
                <polygon id="Fill-3" fill="#C8CCD0" points="129.198782 45.318957 109.231644 2 103 2 127.569444 54 128.99124 54 155 2 150.987975 2"></polygon>
                <polygon id="Fill-4" fill="#C8CCD0" points="182 54 188 54 188 2 182 2"></polygon>
                <g id="Group-51">
                    <path d="M269.552236,1.84124589 L264.051803,1.84124589 L264.051803,40.9720656 C260.668664,36.5059682 254.853769,30.6483092 245.234675,25.4202616 C233.423669,19.1883113 225.25963,12.7638684 220.970412,6.32472108 C220.781202,6.04266584 220.556014,5.67104804 220.306843,5.25799085 C219.695239,4.24606756 218.9344,2.98818141 218.138916,2.0711677 L217.940378,1.84124589 L211.80569,1.84124589 L211.809687,3.78221368 L212.438613,3.81696931 C212.451937,3.81830606 213.807058,3.90385836 214.855712,4.95989456 C215.422011,5.53202556 216.000303,6.39423232 216.413368,7.05057887 L216.413368,53.4172516 L221.9138,53.4172516 L221.9138,14.3292081 C226.616084,19.16826 233.506282,23.9805769 242.4205,28.6498609 C262.211663,39.3305308 265.621452,52.7702623 265.653431,52.9039378 L265.776018,53.4172516 L269.552236,53.4172516 L269.552236,1.84124589 Z" id="Fill-5" fill="#C8CCD0"></path>
                    <path d="M345.344277,50.2711995 L345.344277,24.7030928 L339.849174,24.7030928 L339.849174,44.3667541 C339.849174,45.6994985 339.328179,46.9520376 338.41677,47.8129076 C337.049657,48.5802048 335.433372,49.2672967 333.609222,49.8568055 C330.938954,50.7176755 327.88227,51.1534576 324.521782,51.1534576 C319.924764,51.1534576 315.938017,50.0894008 312.670802,47.9893592 C309.394261,45.8919912 306.894549,43.0500507 305.236957,39.5450799 C303.563376,36.0133741 302.714593,32.0298452 302.714593,27.7000968 C302.714593,23.3716851 303.564708,19.3614211 305.239622,15.7789185 C306.897214,12.2298349 309.395593,9.36516959 312.670802,7.26245449 C315.939349,5.16642315 319.926097,4.10370318 324.521782,4.10370318 C327.982205,4.10370318 331.110842,4.63172128 333.823749,5.67438993 C336.551313,6.72374235 338.75122,7.88805568 340.356845,9.13257428 C342.339559,10.6658319 343.097734,11.5267019 343.384215,11.9771882 L343.58142,12.2859786 L345.261664,12.2859786 L345.257667,5.38966118 L344.929879,5.19583176 C343.240308,4.18925548 340.415474,3.16663816 336.533991,2.15337811 C332.645847,1.14279157 329.017533,0.630814532 325.751651,0.630814532 C319.619629,0.630814532 314.284422,1.85528182 309.895269,4.26946076 C305.482132,6.68764998 302.10299,9.98275026 299.849785,14.0638623 C297.607239,18.1316068 296.469311,22.7206856 296.469311,27.7000968 C296.469311,32.6327215 297.607239,37.1950652 299.849785,41.261473 C302.105655,45.3412482 305.484796,48.6269912 309.896602,51.0237924 C314.292417,53.4152465 319.626291,54.6263462 325.751651,54.6263462 C328.768361,54.6263462 332.366028,54.0996649 336.444716,53.0650168 C338.151609,52.6345818 339.953107,52.0290319 341.801242,51.2670817 C342.745962,50.8767493 343.757306,50.5773163 344.803295,50.3754663 L345.344277,50.2711995 Z" id="Fill-7" fill="#C8CCD0"></path>
                    <polygon id="Fill-9" fill="#C8CCD0" points="426.423156 1.84124589 425.51841 5.41973816 450.771364 5.41973816 450.771364 53.4172516 456.269131 53.4172516 456.269131 5.41973816 481.519421 5.41973816 480.614674 1.84124589"></polygon>
                    <path d="M561.60108,53.4145781 L561.60108,1.84124589 L556.100647,1.84124589 L556.100647,28.3089885 C550.251108,28.4707358 543.146383,27.3558824 534.945036,25.0419601 C528.650452,23.2667499 521.592363,22.4927689 513.962645,22.7534361 L513.962645,1.84124589 L508.462212,1.84124589 L508.462212,53.4172516 L513.962645,53.4172516 L513.962645,26.2744479 C521.311212,26.0592304 528.100142,26.818507 534.157546,28.5268795 C542.661364,30.9263542 550.035248,32.0438811 556.100647,31.8300003 L556.100647,53.4145781 L561.60108,53.4145781 Z" id="Fill-11" fill="#C8CCD0"></path>
                    <polygon id="Fill-13" fill="#C8CCD0" points="630.505722 49.8403634 595.696299 49.8403634 595.696299 24.4045954 615.667346 24.4045954 615.667346 20.8261032 595.696299 20.8261032 595.696299 5.42000552 630.505722 5.42000552 629.623627 1.84151324 590.195867 1.84151324 590.195867 53.417519 629.623627 53.417519"></polygon>
                    <path d="M742.191016,49.8247234 L717.580312,49.8247234 L717.580312,5.43110058 L742.266967,5.43110058 C746.442925,5.47655024 750.076568,6.4951573 753.063964,8.45884992 C756.050027,10.4292263 758.32855,13.1147665 759.832907,16.4392753 C761.349257,19.7985399 762.118092,23.562841 762.118092,27.6292488 C762.118092,31.6969932 761.3346,35.4733252 759.790268,38.8513043 C758.253931,42.209232 755.978074,44.9054662 753.025323,46.8691588 C750.065909,48.8301779 746.421606,49.8247234 742.191016,49.8247234 M755.766211,5.30544564 C751.868739,3.00756435 747.110492,1.84057752 741.624717,1.84057752 L712.078547,1.84057752 L712.078547,53.41792 L712.744782,53.41792 L741.630047,53.41792 C746.966586,53.3697968 751.660874,52.1680544 755.586328,49.843438 C759.518444,47.5174848 762.540484,44.3627438 764.571167,40.4620937 C766.59119,36.569464 767.617192,32.2517464 767.617192,27.6292488 C767.617192,22.9519441 766.61784,18.6021444 764.647118,14.6961472 C762.667069,10.7727723 759.679673,7.61402097 755.766211,5.30544564" id="Fill-15" fill="#C8CCD0"></path>
                    <path d="M817.366258,31.9743698 C816.841265,32.0505648 816.302947,32.1053718 815.755303,32.1454744 C815.196998,32.1815668 814.624036,32.2042916 814.035085,32.2042916 L800.129438,32.2042916 L800.121443,5.52400503 L814.767943,5.52400503 C815.031772,5.53202556 815.288938,5.55608714 815.54877,5.58014873 L815.943181,5.61757786 C816.09908,5.63228216 816.254979,5.64698646 816.404215,5.66971129 L816.405548,5.6576805 C816.791964,5.70714042 817.177047,5.76595763 817.571458,5.83947913 C819.426255,6.12019762 821.111828,6.64019518 822.578877,7.38343079 C824.9067,8.5744792 826.681549,10.1812583 827.854122,12.1623288 C828.958739,14.0230913 829.55302,16.1512047 829.620976,18.4878519 L829.635633,18.9289809 L829.620976,19.304609 C829.555685,21.6372459 828.961404,23.7653594 827.854122,25.6301321 C826.678884,27.6098658 824.904035,29.2166449 822.581542,30.4050198 C821.111828,31.150929 819.426255,31.6695898 817.571458,31.9503082 L817.671393,32.6120018 L817.366258,31.9743698 Z M836.814977,51.3666699 C834.455174,51.3666699 832.263262,50.3026132 830.796214,48.4445242 L820.781376,35.7680796 C822.951968,35.4592893 825.011965,34.7561563 826.914731,33.668038 C829.566345,32.1548317 831.692965,30.0614739 833.234632,27.4467817 C834.766972,24.8401101 835.547799,21.9647508 835.554461,18.8955621 C835.549131,15.8290468 834.768304,12.9536875 833.234632,10.3456792 C831.691633,7.72965025 829.565012,5.63762918 826.914731,4.12575964 C824.261785,2.60987983 821.333018,1.84124589 818.207046,1.84124589 L794.630338,1.84124589 L794.630338,53.4159149 L800.129438,53.4159149 L800.129438,35.951215 L813.91383,35.951215 L824.417684,49.3040575 C826.477681,51.9174129 829.561015,53.4159149 832.881528,53.4159149 L837.477214,53.4159149 L837.495868,51.3653332 L836.822972,51.3666699 L836.814977,51.3666699 Z" id="Fill-17" fill="#C8CCD0"></path>
                    <polygon id="Fill-19" fill="#C8CCD0" points="904.922669 49.8403634 870.113246 49.8403634 870.113246 24.4045954 890.084293 24.4045954 890.084293 20.8261032 870.113246 20.8261032 870.113246 5.42000552 904.922669 5.42000552 904.040574 1.84151324 864.612814 1.84151324 864.612814 53.417519 904.040574 53.417519"></polygon>
                    <g id="Group-23" transform="translate(931.952870, 0.000000)">
                        <mask id="mask-2" fill="white">
                            <use xlink:href="#path-1"></use>
                        </mask>
                        <g id="Clip-22"></g>
                        <path d="M25.6167184,9.99745456 L37.4250595,36.6002094 L12.3639807,36.6002094 L25.6167184,9.99745456 Z M25.6940016,-0.000133675468 L0,53.4165832 L4.08401778,53.4165832 L9.3952396,42.2359671 C10.1600769,40.6759744 11.6790916,39.7068273 13.3580027,39.7068273 L38.9893782,39.7068273 L45.3226038,53.4165832 L51.3813408,53.4165832 L27.1117487,-0.000133675468 L25.6940016,-0.000133675468 Z" id="Fill-21" fill="#C8CCD0" mask="url(#mask-2)"></path>
                    </g>
                    <g id="Group-26" transform="translate(1012.752331, 1.841246)">
                        <mask id="mask-4" fill="white">
                            <use xlink:href="#path-3"></use>
                        </mask>
                        <g id="Clip-25"></g>
                        <polygon id="Fill-24" fill="#C8CCD0" mask="url(#mask-4)" points="52.3087393 0 28.6187713 40.4341555 5.84154452 1.36081626 5.08470207 0.00133675468 0 0.00133675468 0 51.5773425 3.57767952 51.5773425 3.57767952 8.40952368 27.5194842 49.5013625 51.7157906 7.97106814 51.7157906 51.5773425 57.2482023 51.5773425 57.2482023 0"></polygon>
                    </g>
                    <path d="M25.6167184,97.4504854 L37.4250595,124.05324 L12.3639807,124.05324 L25.6167184,97.4504854 Z M25.6940016,87.4528972 L0,140.869614 L4.08401778,140.869614 L9.3952396,129.688998 C10.1600769,128.129005 11.6790916,127.159858 13.3580027,127.159858 L38.9893782,127.159858 L45.3226038,140.869614 L51.3813408,140.869614 L27.1117487,87.4528972 L25.6940016,87.4528972 Z" id="Fill-27" fill="#C8CCD0"></path>
                    <polygon id="Fill-29" fill="#C8CCD0" points="62.5134539 89.2941431 61.6087074 92.8726353 86.8616617 92.8726353 86.8616617 140.870149 92.3594292 140.870149 92.3594292 92.8726353 117.609719 92.8726353 116.704972 89.2941431"></polygon>
                    <path d="M242.005036,130.766289 C241.396098,131.875795 240.294146,133.036098 238.72583,134.216452 C237.136194,135.416858 235.025563,136.45819 232.4499,137.311039 C229.858248,138.169236 226.889507,138.605018 223.630287,138.605018 C219.166516,138.605018 215.297025,137.542298 212.127081,135.446267 C208.943813,133.348899 206.514722,130.508295 204.906431,127.003324 C203.278154,123.468945 202.450691,119.482742 202.450691,115.15032 C202.450691,110.820572 203.278154,106.808971 204.907764,103.223795 C206.516054,99.6760483 208.943813,96.8127197 212.128414,94.7100046 C215.298358,92.6166468 219.167848,91.5552636 223.630287,91.5552636 C226.988109,91.5552636 230.026139,92.0832817 232.656433,93.1232768 C235.302716,94.168619 237.437332,95.3315956 239.001651,96.5787877 C240.931066,98.1160555 241.665256,98.9729153 241.941077,99.4207281 L242.138283,99.737539 L243.803869,99.737539 L243.799872,92.8492421 L243.480079,92.6527392 C241.811828,91.6327954 239.142892,90.6355764 235.314709,89.607612 C231.533161,88.5970255 228.003451,88.0837117 224.826844,88.0837117 C218.862713,88.0837117 213.671413,89.3095157 209.40085,91.7263682 C205.108967,94.1472309 201.823098,97.4436679 199.635184,101.523443 C197.455264,105.591188 196.349315,110.177593 196.349315,115.152994 C196.349315,120.081608 197.455264,124.641279 199.635184,128.70635 C201.820433,132.786125 205.107634,136.071868 209.403515,138.474016 C213.678075,140.866807 218.869375,142.079243 224.826844,142.079243 C227.762274,142.079243 231.261338,141.552562 235.229431,140.516577 C239.264147,139.465888 241.990379,138.4807 243.565357,137.503532 L243.881152,137.308366 L243.881152,130.420069 L242.195579,130.420069 L242.005036,130.766289 Z" id="Fill-31" fill="#C8CCD0"></path>
                    <path d="M293.29337,97.4504854 L305.101712,124.05324 L280.040633,124.05324 L293.29337,97.4504854 Z M293.370654,87.4528972 L267.676652,140.869614 L271.76067,140.869614 L277.071892,129.688998 C277.836729,128.129005 279.355744,127.159858 281.034655,127.159858 L306.66603,127.159858 L312.999256,140.869614 L319.057993,140.869614 L294.788401,87.4528972 L293.370654,87.4528972 Z" id="Fill-33" fill="#C8CCD0"></path>
                    <path d="M386.315037,126.539203 C386.029888,124.175821 385.078505,122.103851 383.491535,120.378101 C381.608756,118.322172 379.291592,116.657912 376.611997,115.436119 C376.033705,115.170104 375.411442,114.90008 374.738545,114.616688 C372.448031,113.733093 369.624529,112.761272 366.347987,111.731971 C362.99283,110.658557 360.478461,109.782983 358.660973,109.055788 C357.543032,108.611986 356.514365,108.085305 355.54566,107.46104 C355.299154,107.331375 355.104613,107.227108 355.002013,107.158934 C354.530319,106.840786 354.063955,106.482536 353.592261,106.074826 L353.28446,105.83822 C352.217153,104.966656 351.498952,103.950722 351.139185,102.783736 C350.957969,102.282453 350.832717,101.750424 350.766094,101.205028 C350.744774,101.015209 350.72612,100.824053 350.714127,100.62755 C350.706133,100.491201 350.69947,100.353516 350.69947,100.214493 C350.69947,98.5408762 351.219133,97.0330169 352.239805,95.7403751 L352.327748,95.637445 C352.531615,95.3714308 352.751473,95.1094269 352.99265,94.8607906 C353.115237,94.7378091 353.293788,94.5827456 353.51098,94.4103042 C355.938739,92.4800305 358.862176,91.3397787 361.964164,91.1138672 C362.772973,91.0537132 363.625753,91.0243046 364.563811,91.0243046 C367.672462,91.0243046 370.686507,91.6472323 373.522001,92.8757099 C373.65125,92.9318536 373.744523,92.9746297 373.773838,92.9879973 C376.029708,94.3795589 377.761918,95.9569294 378.922498,97.6733224 L379.122369,97.9674084 L380.817269,97.9674084 L380.817269,91.1486228 L380.417529,90.9748447 C379.142356,90.4147445 377.737933,89.8974204 376.242903,89.4349033 C374.939748,89.0338769 373.685895,88.706372 372.413387,88.4336741 C369.529924,87.8080729 366.866318,87.491262 364.49852,87.491262 C360.820906,87.491262 357.52038,88.0607195 354.686218,89.1822567 C351.824074,90.3118144 349.553547,91.9199303 347.937262,93.9584811 C346.303655,96.0304509 345.474859,98.4285888 345.474859,101.087394 C345.474859,101.310632 345.484186,101.532533 345.497511,101.751761 C345.516166,102.04852 345.54015,102.34127 345.576127,102.631345 C345.851948,104.951952 346.770019,106.985155 348.305023,108.677487 C349.406975,109.893934 350.674153,110.984725 352.073246,111.923127 C352.311758,112.084875 352.76613,112.332174 353.421705,112.662353 C356.515698,114.223682 359.854865,115.539049 363.347267,116.569687 L366.216073,117.42521 C369.136845,118.299447 371.08758,118.914354 372.012314,119.251216 C374.53601,120.166893 376.709267,121.408738 378.470791,122.940659 C379.051748,123.441942 379.547426,124.00739 379.960492,124.649032 C380.668033,125.636893 381.10375,126.774472 381.255652,128.024337 C381.280969,128.243565 381.298291,128.465466 381.31428,128.743511 C381.320943,128.863819 381.327605,128.98279 381.327605,129.104435 C381.327605,130.897023 380.710672,132.588018 379.492795,134.134643 C378.390843,135.534225 376.855839,136.707896 374.915764,137.63694 C373.463372,138.374829 371.952352,138.870765 370.420013,139.106034 C369.909677,139.183565 369.387349,139.246393 368.850364,139.298526 C368.625177,139.323925 368.401322,139.343976 368.165475,139.362691 L367.308698,139.416161 C365.258028,139.523101 363.092765,139.462947 361.25529,139.343976 C358.731594,139.184902 356.309165,138.548607 354.054627,137.453805 C353.925378,137.390977 353.817448,137.337507 353.740165,137.296068 C352.251797,136.498025 351.103208,135.701319 350.330376,134.930012 C349.152474,133.750994 347.922605,132.308636 346.672749,130.644377 L346.472878,130.378362 L344.799297,130.378362 L344.799297,137.193138 L345.096438,137.390977 C347.636124,139.076625 350.415654,140.446799 353.361744,141.465406 C356.31716,142.484013 360.390518,143 365.465893,143 C369.469962,143 373.099608,142.322265 376.25223,140.984174 C379.440829,139.635388 381.952533,137.813392 383.718055,135.568981 C385.506228,133.299171 386.41364,130.796767 386.414972,128.127267 C386.420302,127.906703 386.409642,127.696832 386.39765,127.494982 C386.38166,127.171488 386.353678,126.852003 386.315037,126.539203" id="Fill-35" fill="#C8CCD0"></path>
                    <path d="M432.751185,97.4504854 L444.559526,124.05324 L419.498447,124.05324 L432.751185,97.4504854 Z M432.828468,87.4528972 L407.134467,140.869614 L411.218484,140.869614 L416.529706,129.688998 C417.294544,128.129005 418.813558,127.159858 420.492469,127.159858 L446.123845,127.159858 L452.457071,140.869614 L458.515808,140.869614 L434.246215,87.4528972 L432.828468,87.4528972 Z" id="Fill-37" fill="#C8CCD0"></path>
                    <path d="M512.751297,107.306511 L491.186617,107.306511 L491.186617,92.5407191 L512.679344,92.5407191 C515.34295,92.5407191 517.398949,93.2425153 518.79138,94.6247197 C520.198467,96.0243018 520.883356,97.7567359 520.883356,99.924952 C520.883356,101.946125 520.109191,103.642467 518.519556,105.106213 C516.909933,106.587337 515.023157,107.306511 512.751297,107.306511 L512.751297,107.306511 Z M491.183952,110.898371 L512.75263,110.898371 C515.093778,110.987934 517.277695,111.652301 519.248416,112.872758 C521.227133,114.102572 522.798114,115.722719 523.918721,117.690422 C525.039327,119.650104 525.606959,121.841045 525.606959,124.197743 C525.606959,126.700148 525.083299,128.981988 524.049303,130.980437 C523.031296,132.954823 521.494959,134.549572 519.482931,135.724579 C517.472235,136.899586 514.996508,137.494442 512.121039,137.494442 L491.183952,137.494442 L491.183952,110.898371 Z M524.91141,111.354204 C523.489666,110.278117 521.938672,109.488095 520.282412,108.994832 C521.721479,108.240903 522.98999,107.22898 524.066625,105.97243 C525.636273,104.134392 526.43309,102.055739 526.43309,99.7966235 C526.43309,96.7555066 525.4404,94.2183463 523.485668,92.2533169 C521.533601,90.290961 519.053876,89.2950788 516.117114,89.2950788 L485.686185,89.2950788 L485.686185,140.871085 L515.9852,140.871085 C518.77006,140.871085 521.379035,140.138543 523.738837,138.692174 C526.089313,137.253826 527.976089,135.264735 529.345867,132.777035 C530.707651,130.292008 531.396537,127.551661 531.396537,124.629515 L531.396537,124.628178 C531.393872,121.946649 530.810251,119.418845 529.658997,117.115617 C528.506412,114.807042 526.910114,112.870084 524.91141,111.354204 L524.91141,111.354204 Z" id="Fill-39" fill="#C8CCD0"></path>
                    <polygon id="Fill-41" fill="#C8CCD0" points="564.031903 89.2941431 558.532803 89.2941431 558.532803 140.870149 597.959231 140.870149 598.839993 137.292993 564.031903 137.292993"></polygon>
                    <path d="M651.489445,97.4504854 L663.297786,124.05324 L638.236708,124.05324 L651.489445,97.4504854 Z M651.566728,87.4528972 L625.872727,140.869614 L629.956745,140.869614 L635.267966,129.688998 C636.032804,128.129005 637.551818,127.159858 639.230729,127.159858 L664.862105,127.159858 L671.195331,140.869614 L677.254068,140.869614 L652.984475,87.4528972 L651.566728,87.4528972 Z" id="Fill-43" fill="#C8CCD0"></path>
                    <path d="M751.80065,128.425631 C748.417511,123.958197 742.602616,118.100538 732.983522,112.87249 C721.172516,106.64054 713.008477,100.216097 708.719259,93.7769499 C708.530049,93.4948946 708.304861,93.1246136 708.05569,92.7102196 C707.444086,91.6982963 706.683247,90.4417469 705.887763,89.5233965 L705.689225,89.2948114 L699.554537,89.2948114 L699.558534,91.2357792 L700.18746,91.2691981 C700.200784,91.2705348 701.555905,91.3574239 702.604559,92.4134601 C703.170858,92.9842543 703.747817,93.8477979 704.162215,94.5041444 L704.162215,140.870817 L709.662647,140.870817 L709.662647,101.781437 C714.364931,106.620489 721.255129,111.432806 730.169347,116.10209 C749.96051,126.78276 753.370299,140.222491 753.402278,140.357503 L753.524865,140.870817 L757.301083,140.870817 L757.301083,89.2948114 L751.80065,89.2948114 L751.80065,128.425631 Z" id="Fill-45" fill="#C8CCD0"></path>
                    <path d="M828.441075,130.766289 C827.832136,131.875795 826.730184,133.036098 825.161868,134.216452 C823.572233,135.416858 821.461602,136.45819 818.885939,137.311039 C816.294286,138.169236 813.325545,138.605018 810.066326,138.605018 C805.602554,138.605018 801.733064,137.542298 798.56312,135.446267 C795.379851,133.348899 792.95076,130.508295 791.34247,127.003324 C789.714193,123.468945 788.88673,119.482742 788.88673,115.15032 C788.88673,110.820572 789.714193,106.808971 791.343803,103.223795 C792.952093,99.6760483 795.379851,96.8127197 798.564453,94.7100046 C801.734397,92.6166468 805.603887,91.5552636 810.066326,91.5552636 C813.424148,91.5552636 816.462177,92.0832817 819.092471,93.1232768 C821.738755,94.168619 823.873371,95.3315956 825.437689,96.5787877 C827.368437,98.1160555 828.101295,98.9729153 828.375784,99.4207281 L828.571657,99.737539 L830.239908,99.737539 L830.235911,92.8492421 L829.916118,92.6527392 C828.247867,91.6327954 825.578931,90.6355764 821.750747,89.607612 C817.9692,88.5970255 814.439489,88.0837117 811.262883,88.0837117 C805.298751,88.0837117 800.107452,89.3095157 795.836888,91.7263682 C791.545005,94.1472309 788.259137,97.4436679 786.071222,101.523443 C783.891303,105.591188 782.785354,110.177593 782.785354,115.152994 C782.785354,120.081608 783.891303,124.641279 786.071222,128.70635 C788.256472,132.786125 791.543673,136.071868 795.839553,138.474016 C800.114114,140.866807 805.305414,142.079243 811.262883,142.079243 C814.198312,142.079243 817.697376,141.552562 821.665469,140.516577 C825.700186,139.465888 828.426418,138.4807 830.001396,137.503532 L830.317191,137.308366 L830.317191,130.420069 L828.631618,130.420069 L828.441075,130.766289 Z" id="Fill-47" fill="#C8CCD0"></path>
                    <path d="M879.729409,97.4504854 L891.53775,124.05324 L866.476672,124.05324 L879.729409,97.4504854 Z M879.806692,87.4528972 L854.112691,140.869614 L858.196709,140.869614 L863.50793,129.688998 C864.272768,128.129005 865.791782,127.159858 867.470693,127.159858 L893.102069,127.159858 L899.435295,140.869614 L905.494032,140.869614 L881.224439,87.4528972 L879.806692,87.4528972 Z" id="Fill-49" fill="#C8CCD0"></path>
                </g>
            </g>
        </g>
    </g>
</svg>