<?xml version="1.0" encoding="UTF-8"?>
<svg width="1064px" height="38px" viewBox="0 0 1064 38" version="1.1" xmlns="http://www.w3.org/2000/svg" xmlns:xlink="http://www.w3.org/1999/xlink">
    <title>D8D7D476-7BCF-48B9-97DF-6EE87E44B4F2</title>
    <defs>
        <polygon id="path-1" points="0 0 32 0 32 34 0 34"></polygon>
        <polygon id="path-3" points="0 38 1064 38 1064 0 0 0"></polygon>
    </defs>
    <g id="LP-—-SARAY" stroke="none" stroke-width="1" fill="none" fill-rule="evenodd">
        <g id="LP-—-SARAY-——-DESKTOP" transform="translate(-75.000000, -1040.000000)">
            <g id="titre-page" transform="translate(75.000000, 960.000000)">
                <g id="titre-1" transform="translate(0.000000, 80.000000)">
                    <path d="M26,23.0856888 C26,26.245404 24.675552,28.8572001 22.0251878,30.9137325 C20.3909188,32.1829067 18.4659174,33.0598709 16.2619303,33.5460939 C14.8963687,33.847229 13.4250861,34 11.8407409,34 C9.40916022,34 7.26097024,33.6445137 5.38148755,32.9570443 C4.53425199,32.6470955 3.73547185,32.2725128 2.99983058,31.8215446 C1.55791495,30.9401736 0.563844807,29.9339417 0,28.8101936 L0.942678037,27.9861117 C1.16439826,28.2857779 1.40227029,28.5780993 1.66363585,28.8572001 C3.45501779,30.7668373 6.1068504,32.1123971 9.1521997,32.5192967 C9.78505676,32.6044959 10.4325973,32.6515023 11.0977579,32.6515023 C11.7599819,32.6515023 12.4075224,32.6044959 13.0418479,32.5192967 C14.7554075,32.2901402 16.3470944,31.7642555 17.7273395,31.0092143 C20.8725363,29.286134 22.9399672,26.3717338 22.9399672,23.0665925 C22.9399672,19.7599822 20.8710679,16.847051 17.7229344,15.1239706 C15.8331733,14.0898286 13.5513639,13.4846205 11.0977579,13.4846205 C7.8938273,13.4846205 4.99090755,14.5187625 2.86033772,16.1918985 C2.60484554,16.3916759 2.35963178,16.601736 2.12763314,16.8191409 L1.3640933,16.7192522 L1.17761337,16.692811 L2.77076862,6.28088137 L3.56954877,1.00734476 L12.6879765,1.00734476 L12.6879765,1 L22.1015418,1 L21.5068617,3.74547073 L17.6216186,3.74547073 L17.6201502,3.75281549 L4.76037725,3.75281549 L3.16869035,14.1750278 C3.99536906,13.68146 5.03055289,13.2481193 6.28011521,12.8764745 C8.16253459,12.3168039 10.1066245,12.0377031 12.1123849,12.0377031 C16.0710453,12.0377031 19.3762919,13.0806588 22.0251878,15.1680392 C24.675552,17.2554195 25.9985317,19.8965947 26,23.0856888" id="Fill-1" fill="#081F2D"></path>
                    <path d="M98,16.5434349 L98,32.2645172 C97.3035832,32.3973918 96.6187975,32.5952593 95.9587281,32.8653413 C95.0413188,33.2408564 93.849123,33.674143 92.5246225,34.0063294 C89.8857987,34.6707022 87.5959103,35 85.659319,35 C81.7192571,35 78.3418535,34.2431927 75.528562,32.7281339 C72.709455,31.2116308 70.5853109,29.166518 69.1488603,26.5942398 C67.7167714,24.0219617 67,21.1723801 67,18.0469394 C67,14.8897243 67.7167714,12.0242556 69.1488603,9.4519774 C70.583857,6.87969925 72.709455,4.82736502 75.528562,3.29641901 C78.3418535,1.765473 81.720711,1 85.659319,1 C87.7689241,1 90.0704437,1.32496495 92.5798706,1.96911771 C95.0834818,2.61615904 96.8717756,3.25742322 97.943298,3.88713309 L97.943298,6.87681067 L97.9447519,6.87681067 L97.9447519,7.66394801 L97.5231217,7.66394801 C97.2265266,7.19888705 96.5373792,6.55040143 95.4484101,5.71704685 C94.359441,4.88224799 92.9055436,4.11677499 91.0765407,3.42207213 C89.2533533,2.72881356 87.1800957,2.3792957 84.8567677,2.3792957 C81.7614201,2.3792957 79.1051496,3.08410858 76.8952256,4.48795718 C74.6809399,5.89613865 73.0118657,7.78815683 71.8909108,10.1683446 C70.7655942,12.5470881 70.2029359,15.1728049 70.2029359,18.0469394 C70.2029359,20.9210739 70.7655942,23.5309035 71.8909108,25.8807612 C73.0118657,28.2306189 74.679486,30.1067499 76.8952256,31.5105985 C79.1051496,32.91878 81.7614201,33.6221486 84.8567677,33.6221486 C87.1088547,33.6221486 89.1254104,33.3361794 90.916612,32.7642411 C92.1727793,32.3612846 93.2544789,31.9020008 94.174796,31.3849454 C94.8668511,30.7595684 95.2855736,29.8207808 95.2855736,28.8083344 L95.2855736,16.5434349 L98,16.5434349 Z" id="Fill-3" fill="#081F2D"></path>
                    <path d="M142.01338,18.0462153 C142.01338,15.0783281 141.453751,12.3877326 140.335943,9.97298445 C139.216685,7.55679212 137.566795,5.63163707 135.389172,4.19318665 C133.211549,2.75762467 130.580133,2.03984368 127.502175,2.03984368 C124.424216,2.03984368 121.7957,2.75762467 119.612278,4.19318665 C117.433205,5.63163707 115.783315,7.55679212 114.669856,9.97298445 C113.550599,12.3877326 112.99097,15.0783281 112.99097,18.0462153 C112.99097,20.9837737 113.550599,23.6570385 114.669856,26.074675 C115.783315,28.4879789 117.434655,30.4073571 119.612278,31.8284768 C121.79425,33.246708 124.424216,33.9601563 127.502175,33.9601563 C130.578684,33.9601563 133.210099,33.246708 135.389172,31.8284768 C137.566795,30.4059128 139.216685,28.4879789 140.335943,26.074675 C141.453751,23.6584827 142.01338,20.9837737 142.01338,18.0462153 M145,18.0476595 C145,21.1426387 144.317137,23.9733243 142.95141,26.5469374 C141.587134,29.1205505 139.580589,31.1727976 136.934675,32.7022343 C134.284412,34.2345595 131.139762,35 127.502175,35 C123.797896,35 120.61845,34.2432249 117.969637,32.7282304 C115.323723,31.2103475 113.333126,29.1667658 111.999296,26.5945969 C110.665465,24.022428 110,21.1715232 110,18.0462153 C110,14.8891343 110.666915,12.0252315 111.999296,9.45161838 C113.333126,6.87944949 115.323723,4.82720245 117.969637,3.29632147 C120.61845,1.76688472 123.797896,1 127.502175,1 C131.206454,1 134.3801,1.76688472 137.028913,3.29632147 C139.679177,4.82720245 141.666874,6.87944949 143.000704,9.45161838 C144.333085,12.0252315 144.99855,14.8891343 145,18.0476595" id="Fill-5" fill="#081F2D"></path>
                    <path d="M188.01338,18.0462153 C188.01338,15.0783281 187.453751,12.3877326 186.335943,9.97298445 C185.216685,7.55679212 183.566795,5.63163707 181.389172,4.19318665 C179.211549,2.75762467 176.580133,2.03984368 173.502175,2.03984368 C170.424216,2.03984368 167.7957,2.75762467 165.612278,4.19318665 C163.433205,5.63163707 161.783315,7.55679212 160.669856,9.97298445 C159.550599,12.3877326 158.99097,15.0783281 158.99097,18.0462153 C158.99097,20.9837737 159.550599,23.6570385 160.669856,26.074675 C161.783315,28.4879789 163.434655,30.4073571 165.612278,31.8284768 C167.79425,33.246708 170.424216,33.9601563 173.502175,33.9601563 C176.578684,33.9601563 179.210099,33.246708 181.389172,31.8284768 C183.566795,30.4059128 185.216685,28.4879789 186.335943,26.074675 C187.453751,23.6584827 188.01338,20.9837737 188.01338,18.0462153 M191,18.0476595 C191,21.1426387 190.317137,23.9733243 188.95141,26.5469374 C187.587134,29.1205505 185.580589,31.1727976 182.934675,32.7022343 C180.284412,34.2345595 177.139762,35 173.502175,35 C169.797896,35 166.61845,34.2432249 163.969637,32.7282304 C161.323723,31.2103475 159.333126,29.1667658 157.999296,26.5945969 C156.665465,24.022428 156,21.1715232 156,18.0462153 C156,14.8891343 156.666915,12.0252315 157.999296,9.45161838 C159.333126,6.87944949 161.323723,4.82720245 163.969637,3.29632147 C166.61845,1.76688472 169.797896,1 173.502175,1 C177.206454,1 180.3801,1.76688472 183.028913,3.29632147 C185.679177,4.82720245 187.666874,6.87944949 189.000704,9.45161838 C190.333085,12.0252315 190.99855,14.8891343 191,18.0476595" id="Fill-7" fill="#081F2D"></path>
                    <path d="M235.310572,17.4992653 C235.310572,14.7545305 234.803784,12.2404827 233.795969,9.96887662 C232.783834,7.69286255 231.27355,5.88556926 229.270876,4.54111937 C227.262443,3.19960817 224.863842,2.51048577 222.066434,2.47962955 L205.690868,2.47962955 L205.690868,32.5203705 L222.013163,32.5203705 C224.846565,32.5203705 227.253805,31.8488802 229.244961,30.5058996 C231.233237,29.1614498 232.739202,27.3438711 233.767174,25.0561022 C234.796586,22.7668641 235.310572,20.2484082 235.310572,17.4992653 M238,17.4992653 C238,20.486442 237.357877,23.2267688 236.082271,25.7290618 C234.803784,28.2254775 232.924928,30.2208469 230.442822,31.7151699 C227.966475,33.2065542 225.033731,33.9706131 221.64747,34 L203,34 L203,1 L221.64747,1 C225.124434,1 228.09893,1.73761076 230.56088,3.21430162 C233.02283,4.69099248 234.88009,6.68636181 236.128342,9.20334832 C237.378034,11.7173961 238,14.4827018 238,17.4992653" id="Fill-9" fill="#081F2D"></path>
                    <path d="M294.547383,20.7720837 C295.804242,20.5810775 296.93353,20.2284506 297.935248,19.7156723 C299.524081,18.8958148 300.727302,17.7967943 301.539114,16.4112645 C302.305987,15.1094835 302.704644,13.651959 302.749584,12.0460374 C302.752483,11.95935 302.758282,11.8726625 302.758282,11.7859751 L302.758282,11.7639359 L302.758282,11.7418967 C302.758282,11.6552093 302.752483,11.5685218 302.749584,11.4833037 C302.703195,9.87444346 302.305987,8.41838825 301.539114,7.11513802 C300.730201,5.73254675 299.524081,4.63205699 297.935248,3.81073019 C296.93353,3.29795191 295.804242,2.94532502 294.547383,2.75284951 C294.224107,2.6911398 293.895034,2.64412289 293.561611,2.6088602 C293.636993,2.62061443 293.715275,2.62649154 293.790658,2.64265361 C293.629745,2.61767587 293.461584,2.60739092 293.299221,2.58829029 C293.091919,2.56918967 292.886067,2.54861977 292.672966,2.54127337 L282.703624,2.54127337 L282.703624,15.4988424 L282.709423,15.4988424 L282.709423,20.9439893 L292.18298,20.9439893 C292.577289,20.9439893 292.957101,20.9292965 293.329664,20.9043188 C293.699329,20.8778718 294.058846,20.8396705 294.409664,20.789715 C294.454604,20.7823687 294.502443,20.7808994 294.547383,20.7720837 M307,33.5313001 L306.995651,34 L304.435544,34 C302.423409,34 300.52145,33.0640695 299.274738,31.4640249 L292.314899,22.5264025 L282.709423,22.5264025 L282.709423,34 L280,34 L280,1 L294.895302,1 C296.861047,1 298.674577,1.48045414 300.343141,2.4428317 C302.011705,3.40520926 303.325101,4.71286732 304.293477,6.37021371 C305.253154,8.01874443 305.737342,9.81861086 305.741691,11.7639359 C305.735893,13.7107302 305.253154,15.5076581 304.293477,17.1576581 C303.32655,18.8150045 302.010255,20.1241318 300.343141,21.0850401 C298.918121,21.9078362 297.382926,22.3750668 295.740456,22.4940784 L302.740886,31.4463936 C303.771597,32.7643366 305.340134,33.5327694 307,33.5313001" id="Fill-11" fill="#081F2D"></path>
                    <polygon id="Fill-13" fill="#081F2D" points="345 32.529252 344.643637 34 320 34 320 1 344.643637 1 345 2.47221728 322.685654 2.47221728 322.685654 13.4697685 335.556386 13.4697685 335.556386 14.943455 322.685654 14.943455 322.685654 32.529252"></polygon>
                    <g id="Group-17" transform="translate(358.000000, 0.000000)">
                        <mask id="mask-2" fill="white">
                            <use xlink:href="#path-1"></use>
                        </mask>
                        <g id="Clip-16"></g>
                        <path d="M24.276511,23.8947296 L15.9667029,5.06855246 L6.63771263,23.8947296 L24.276511,23.8947296 Z M32,34 L29.0133912,34 L24.9019182,25.048366 L7.98262758,25.048366 C6.73470865,25.048366 5.59102425,25.7799759 5.02207745,26.9438343 L1.68802027,34 L0,34 L16.2649294,-0.000146029919 L16.6369888,-0.000146029919 L28.3184944,25.8529908 L30.6217879,30.9523556 C30.6246833,30.9567365 30.6275787,30.9611174 30.6290264,30.9654983 L32,34 Z" id="Fill-15" fill="#081F2D" mask="url(#mask-2)"></path>
                    </g>
                    <path d="M428.99935,25.8171608 C428.99935,27.4487984 428.451071,28.9633743 427.350197,30.363779 C426.249322,31.7627385 424.696585,32.8871088 422.702059,33.7311091 C420.707533,34.5779998 418.441027,35 415.906856,35 C412.664672,35 410.107477,34.6791643 408.235271,34.0331572 C406.36882,33.3857048 404.623251,32.5258073 403,31.4476835 L403,27.7089355 L403.434594,27.7089355 C404.266366,28.8174085 405.069357,29.7567925 405.834932,30.5227517 C406.370259,31.0574779 407.14303,31.5936494 408.137415,32.1269304 C408.192099,32.1572797 408.268369,32.1934099 408.356151,32.236766 C409.861399,32.9680403 411.494723,33.3943761 413.164023,33.4998761 C414.015942,33.554794 414.931179,33.5822529 415.906856,33.5822529 C416.319864,33.5822529 416.722799,33.5678008 417.119977,33.5475679 C417.184734,33.5446775 417.248053,33.5403419 417.311371,33.5360063 C417.438007,33.5287802 417.564644,33.5215542 417.688402,33.5114378 C417.839503,33.4984309 417.990603,33.4868693 418.138826,33.4695268 C418.488515,33.4348419 418.833888,33.3943761 419.170626,33.3423487 C420.232646,33.1790404 421.251495,32.8350813 422.201269,32.3509373 C423.506489,31.7280535 424.541168,30.9346354 425.298109,29.970683 C426.151467,28.8882236 426.574548,27.7147163 426.574548,26.4530514 C426.574548,26.3547774 426.570231,26.2579486 426.564474,26.1596746 C426.55584,26.0064828 426.542889,25.8547361 426.52562,25.7058799 C426.417691,24.8214138 426.114051,24.0251053 425.611822,23.3227352 C425.342719,22.9021802 425.003103,22.5076389 424.5829,22.143447 C423.399999,21.1144603 421.963826,20.2950285 420.278696,19.6822611 C419.567804,19.422124 418.058239,18.9567677 416.514136,18.4928566 C415.88527,18.3049798 415.24921,18.1142126 414.662076,17.942233 C412.480474,17.2962259 410.359311,16.4710133 408.328809,15.444917 C407.944582,15.2512594 407.64382,15.0893963 407.502793,14.9940127 C406.626411,14.4058139 405.840688,13.7294574 405.151383,12.9649434 C404.211682,11.9316211 403.666281,10.7060864 403.496473,9.29845569 C403.476326,9.11780494 403.460497,8.93715418 403.448984,8.75361302 C403.441789,8.62354447 403.434594,8.4876951 403.434594,8.35184573 C403.434594,6.72165332 403.936823,5.27500206 404.931208,4.01478239 C405.931349,2.75167231 407.322912,1.76748699 409.108775,1.06078124 C410.898956,0.352630275 412.955361,0 415.283747,0 C416.780361,0 418.455417,0.197993228 420.301721,0.598315303 C421.147883,0.780411264 421.95663,0.995746965 422.736596,1.23709637 C423.663346,1.52180197 424.548363,1.84552812 425.385891,2.21405566 L425.385891,5.9051119 L424.949858,5.9051119 C424.15838,4.7330498 423.00426,3.68383021 421.494695,2.75167231 C421.47167,2.73577504 421.393961,2.7010901 421.280276,2.65195309 C419.399435,1.83541168 417.37325,1.41774713 415.325479,1.41774713 L415.283747,1.41774713 C414.711004,1.41774713 414.156969,1.43798001 413.617325,1.47700058 C411.542212,1.62874721 409.553442,2.40337765 407.924436,3.69972748 C407.769018,3.82256999 407.640942,3.93385085 407.554599,4.02345363 C407.381913,4.20121397 407.229373,4.38186473 407.086907,4.5668511 C407.072517,4.58708399 407.053809,4.60442646 407.03798,4.62465934 C406.312697,5.54381039 405.947178,6.5988108 405.947178,7.78677017 C405.947178,7.88793459 405.951495,7.9847634 405.957252,8.0815922 C405.965886,8.21599637 405.978837,8.34751012 405.993228,8.47757866 C406.042156,8.8692295 406.128499,9.24209266 406.256574,9.59472293 C406.506969,10.4083739 407.009199,11.130977 407.774774,11.7567512 C407.840971,11.8102238 407.911484,11.860806 407.979119,11.9128334 C408.274125,12.1700801 408.583521,12.4114295 408.915942,12.632546 C408.992212,12.6831283 409.128922,12.7597242 409.304486,12.8522174 C409.908888,13.2453134 410.58956,13.5964985 411.358013,13.9014369 C412.559622,14.3841358 414.224605,14.960773 416.345767,15.641465 C418.453978,16.3033694 420.249915,16.9219176 421.737894,17.4956644 C422.155219,17.6719795 422.553837,17.843959 422.922234,18.0159386 C424.607364,18.7847882 426.042099,19.8152201 427.226438,21.1072343 C428.199237,22.1680155 428.764785,23.4166735 428.937471,24.8488727 C428.961935,25.0410851 428.977764,25.2376332 428.987838,25.4356264 C428.995033,25.5599141 429.002228,25.685647 428.99935,25.8171608" id="Fill-18" fill="#081F2D"></path>
                    <path d="M472.01338,18.0462153 C472.01338,15.0783281 471.453751,12.3877326 470.335943,9.97298445 C469.216685,7.55679212 467.568245,5.63163707 465.389172,4.19318665 C463.211549,2.75762467 460.580133,2.03984368 457.502175,2.03984368 C454.424216,2.03984368 451.7957,2.75762467 449.612278,4.19318665 C447.433205,5.63163707 445.783315,7.55679212 444.669856,9.97298445 C443.550599,12.3877326 442.99097,15.0783281 442.99097,18.0462153 C442.99097,20.9837737 443.550599,23.6570385 444.669856,26.074675 C445.783315,28.4879789 447.434655,30.4073571 449.612278,31.8284768 C451.79425,33.246708 454.424216,33.9601563 457.502175,33.9601563 C460.578684,33.9601563 463.210099,33.246708 465.389172,31.8284768 C467.568245,30.4059128 469.216685,28.4879789 470.335943,26.074675 C471.453751,23.6584827 472.01338,20.9837737 472.01338,18.0462153 M475,18.0476595 C475,21.1426387 474.317137,23.9733243 472.95141,26.5469374 C471.587134,29.1205505 469.580589,31.1727976 466.934675,32.7022343 C464.284412,34.2345595 461.139762,35 457.502175,35 C453.797896,35 450.61845,34.2432249 447.969637,32.7282304 C445.323723,31.2103475 443.333126,29.1667658 441.999296,26.5945969 C440.665465,24.022428 440,21.1715232 440,18.0462153 C440,14.8891343 440.666915,12.0252315 441.999296,9.45161838 C443.333126,6.87944949 445.323723,4.82720245 447.969637,3.29632147 C450.61845,1.76688472 453.797896,1 457.502175,1 C461.206454,1 464.3801,1.76688472 467.028913,3.29632147 C469.679177,4.82720245 471.666874,6.87944949 473.000704,9.45161838 C474.333085,12.0252315 474.99855,14.8891343 475,18.0476595" id="Fill-20" fill="#081F2D"></path>
                    <path d="M520,1 L520,34 L518.305154,34 C518.305154,34 516.184768,24.9903829 502.848273,17.7835708 C495.9636,14.1706144 491.541499,10.7751113 488.755751,7.65142476 L488.755751,34 L486.022646,34 L486.022646,3.85627783 C485.667299,3.28913624 485.271006,2.70142476 484.873251,2.30031167 C484.047032,1.46723063 483,1.42021371 483,1.42021371 L483,1 L486.38823,1 C487.096,1.81985752 487.787685,3.11576135 488.2103,3.75048976 C490.738677,7.5515138 495.546834,11.8197685 504.284286,16.4377115 C511.158723,20.1814337 515.076318,24.3997329 517.266896,27.6233304 L517.266896,1 L520,1 Z" id="Fill-22" fill="#081F2D"></path>
                    <path d="M557.99935,25.8171608 C557.99935,27.4487984 557.451071,28.9633743 556.350197,30.363779 C555.250761,31.7627385 553.696585,32.8871088 551.702059,33.7311091 C549.707533,34.5779998 547.441027,35 544.906856,35 C541.664672,35 539.107477,34.6791643 537.235271,34.0331572 C535.36882,33.3857048 533.623251,32.5258073 532,31.4476835 L532,27.7089355 L532.434594,27.7089355 C533.266366,28.8174085 534.069357,29.7567925 534.834932,30.5227517 C535.370259,31.0574779 536.14303,31.5936494 537.137415,32.1269304 C537.192099,32.1572797 537.268369,32.1934099 537.356151,32.236766 C538.861399,32.9680403 540.494723,33.3943761 542.164023,33.4998761 C543.015942,33.554794 543.931179,33.5822529 544.906856,33.5822529 C545.319864,33.5822529 545.722799,33.5678008 546.119977,33.5475679 C546.184734,33.5446775 546.248053,33.5403419 546.311371,33.5360063 C546.438007,33.5287802 546.564644,33.5215542 546.688402,33.5114378 C546.839503,33.4984309 546.990603,33.4868693 547.138826,33.4695268 C547.488515,33.4348419 547.833888,33.3943761 548.170626,33.3423487 C549.232646,33.1790404 550.251495,32.8350813 551.201269,32.3509373 C552.506489,31.7280535 553.541168,30.9346354 554.298109,29.970683 C555.151467,28.8882236 555.574548,27.7147163 555.574548,26.4530514 C555.574548,26.3547774 555.570231,26.2579486 555.564474,26.1596746 C555.55584,26.0064828 555.542889,25.8547361 555.52562,25.7058799 C555.417691,24.8214138 555.114051,24.0251053 554.611822,23.3227352 C554.342719,22.9021802 554.003103,22.5076389 553.5829,22.143447 C552.399999,21.1144603 550.963826,20.2950285 549.278696,19.6822611 C548.567804,19.422124 547.058239,18.9567677 545.514136,18.4928566 C544.88527,18.3049798 544.24921,18.1142126 543.662076,17.942233 C541.480474,17.2962259 539.359311,16.4710133 537.328809,15.444917 C536.944582,15.2512594 536.64382,15.0893963 536.502793,14.9940127 C535.626411,14.4058139 534.840688,13.7294574 534.151383,12.9649434 C533.211682,11.9316211 532.666281,10.7060864 532.496473,9.29845569 C532.476326,9.11780494 532.460497,8.93715418 532.448984,8.75361302 C532.441789,8.62354447 532.434594,8.4876951 532.434594,8.35184573 C532.434594,6.72165332 532.936823,5.27500206 533.931208,4.01478239 C534.931349,2.75167231 536.322912,1.76748699 538.108775,1.06078124 C539.898956,0.352630275 541.955361,0 544.283747,0 C545.780361,0 547.455417,0.197993228 549.301721,0.598315303 C550.147883,0.780411264 550.95663,0.995746965 551.736596,1.23709637 C552.663346,1.52180197 553.548363,1.84552812 554.385891,2.21405566 L554.385891,5.9051119 L553.949858,5.9051119 C553.15838,4.7330498 552.00426,3.68383021 550.494695,2.75167231 C550.47167,2.73577504 550.393961,2.7010901 550.280276,2.65195309 C548.399435,1.83541168 546.37325,1.41774713 544.325479,1.41774713 L544.283747,1.41774713 C543.711004,1.41774713 543.156969,1.43798001 542.617325,1.47700058 C540.542212,1.62874721 538.553442,2.40337765 536.924436,3.69972748 C536.769018,3.82256999 536.640942,3.93385085 536.554599,4.02345363 C536.381913,4.20121397 536.229373,4.38186473 536.086907,4.5668511 C536.072517,4.58708399 536.053809,4.60442646 536.03798,4.62465934 C535.312697,5.54381039 534.947178,6.5988108 534.947178,7.78677017 C534.947178,7.88793459 534.951495,7.9847634 534.957252,8.0815922 C534.965886,8.21599637 534.978837,8.34751012 534.993228,8.47757866 C535.042156,8.8692295 535.128499,9.24209266 535.256574,9.59472293 C535.506969,10.4083739 536.009199,11.130977 536.774774,11.7567512 C536.840971,11.8102238 536.911484,11.860806 536.979119,11.9128334 C537.274125,12.1700801 537.583521,12.4114295 537.915942,12.632546 C537.992212,12.6831283 538.128922,12.7597242 538.304486,12.8522174 C538.908888,13.2453134 539.58956,13.5964985 540.358013,13.9014369 C541.559622,14.3841358 543.224605,14.960773 545.345767,15.641465 C547.453978,16.3033694 549.249915,16.9219176 550.737894,17.4956644 C551.155219,17.6719795 551.553837,17.843959 551.922234,18.0159386 C553.607364,18.7847882 555.042099,19.8152201 556.226438,21.1072343 C557.199237,22.1680155 557.764785,23.4166735 557.937471,24.8488727 C557.961935,25.0410851 557.977764,25.2376332 557.987838,25.4356264 C557.995033,25.5599141 558.002228,25.685647 557.99935,25.8171608" id="Fill-24" fill="#081F2D"></path>
                    <polygon id="Fill-26" fill="#081F2D" points="634 2.47221728 617.844716 2.47221728 617.844716 34 615.159596 34 615.159596 2.47221728 599 2.47221728 599.365107 1 633.634893 1"></polygon>
                    <path d="M673.01338,18.0462153 C673.01338,15.0783281 672.453751,12.3877326 671.335943,9.97298445 C670.216685,7.55679212 668.566795,5.63163707 666.389172,4.19318665 C664.211549,2.75762467 661.580133,2.03984368 658.502175,2.03984368 C655.424216,2.03984368 652.7957,2.75762467 650.612278,4.19318665 C648.433205,5.63163707 646.783315,7.55679212 645.669856,9.97298445 C644.550599,12.3877326 643.99097,15.0783281 643.99097,18.0462153 C643.99097,20.9837737 644.550599,23.6570385 645.669856,26.074675 C646.783315,28.4879789 648.434655,30.4073571 650.612278,31.8284768 C652.79425,33.246708 655.424216,33.9601563 658.502175,33.9601563 C661.578684,33.9601563 664.210099,33.246708 666.389172,31.8284768 C668.566795,30.4059128 670.216685,28.4879789 671.335943,26.074675 C672.453751,23.6584827 673.01338,20.9837737 673.01338,18.0462153 M676,18.0476595 C676,21.1426387 675.317137,23.9733243 673.95141,26.5469374 C672.587134,29.1205505 670.580589,31.1727976 667.934675,32.7022343 C665.284412,34.2345595 662.139762,35 658.502175,35 C654.797896,35 651.61845,34.2432249 648.969637,32.7282304 C646.323723,31.2103475 644.333126,29.1667658 642.999296,26.5945969 C641.665465,24.022428 641,21.1715232 641,18.0462153 C641,14.8891343 641.666915,12.0252315 642.999296,9.45161838 C644.333126,6.87944949 646.323723,4.82720245 648.969637,3.29632147 C651.61845,1.76688472 654.797896,1 658.502175,1 C662.206454,1 665.3801,1.76688472 668.028913,3.29632147 C670.679177,4.82720245 672.666874,6.87944949 674.000704,9.45161838 C675.333085,12.0252315 675.99855,14.8891343 676,18.0476595" id="Fill-28" fill="#081F2D"></path>
                    <path d="M728,1 L728,10.5851131 L728,22.2877314 C728,24.5398671 727.936484,26.7993197 727.698671,28.7104888 C727.460857,30.6201946 726.960118,32.256249 726.197932,33.6171887 C726.067947,33.8484022 725.927622,34.0708353 725.776957,34.2859516 C725.054653,35.3337288 724.113737,36.1854137 722.949778,36.8380794 C721.669129,37.5536703 720.016248,37.9385382 718,38 L718,37.2317276 C718.109306,37.2097769 718.218612,37.1892897 718.322009,37.1658757 C718.447563,37.1351448 718.567208,37.1014871 718.685377,37.0707562 C719.187592,36.937589 719.655835,36.778081 720.076809,36.5863787 C721.478582,35.9468834 722.562777,35.0747113 723.324963,33.9669356 C724.087149,32.8606233 724.584934,31.5304145 724.824225,29.9777725 C724.855244,29.7787534 724.884786,29.6016849 724.909897,29.4407135 C724.992614,28.7895112 725.060561,28.1675763 725.113737,27.4944234 C725.140325,27.15053 725.162482,26.7890761 725.183161,26.4027448 C725.209749,25.8217845 725.230428,25.1866793 725.240768,24.446211 L725.240768,1 L728,1 Z" id="Fill-30" fill="#081F2D"></path>
                    <path d="M771.01338,18.0462153 C771.01338,15.0783281 770.453751,12.3877326 769.335943,9.97298445 C768.216685,7.55679212 766.568245,5.63163707 764.389172,4.19318665 C762.211549,2.75762467 759.580133,2.03984368 756.502175,2.03984368 C753.424216,2.03984368 750.7957,2.75762467 748.612278,4.19318665 C746.433205,5.63163707 744.783315,7.55679212 743.669856,9.97298445 C742.550599,12.3877326 741.99097,15.0783281 741.99097,18.0462153 C741.99097,20.9837737 742.550599,23.6570385 743.669856,26.074675 C744.783315,28.4879789 746.434655,30.4073571 748.612278,31.8284768 C750.79425,33.246708 753.424216,33.9601563 756.502175,33.9601563 C759.578684,33.9601563 762.210099,33.246708 764.389172,31.8284768 C766.568245,30.4059128 768.216685,28.4879789 769.335943,26.074675 C770.453751,23.6584827 771.01338,20.9837737 771.01338,18.0462153 M774,18.0476595 C774,21.1426387 773.317137,23.9733243 771.95141,26.5469374 C770.587134,29.1205505 768.580589,31.1727976 765.934675,32.7022343 C763.284412,34.2345595 760.139762,35 756.502175,35 C752.797896,35 749.61845,34.2432249 746.969637,32.7282304 C744.323723,31.2103475 742.333126,29.1667658 740.999296,26.5945969 C739.665465,24.022428 739,21.1715232 739,18.0462153 C739,14.8891343 739.666915,12.0252315 740.999296,9.45161838 C742.333126,6.87944949 744.323723,4.82720245 746.969637,3.29632147 C749.61845,1.76688472 752.797896,1 756.502175,1 C760.206454,1 763.3801,1.76688472 766.028913,3.29632147 C768.679177,4.82720245 770.666874,6.87944949 772.000704,9.45161838 C773.333085,12.0252315 773.99855,14.8891343 774,18.0476595" id="Fill-32" fill="#081F2D"></path>
                    <mask id="mask-4" fill="white">
                        <use xlink:href="#path-3"></use>
                    </mask>
                    <g id="Clip-35"></g>
                    <polygon id="Fill-34" fill="#081F2D" mask="url(#mask-4)" points="787 34 790 34 790 1 787 1"></polygon>
                    <path d="M837,1 L837,34 L835.305154,34 C835.305154,34 833.184768,24.9903829 819.848273,17.7835708 C812.9636,14.1706144 808.541499,10.7751113 805.755751,7.65142476 L805.755751,34 L803.022646,34 L803.022646,3.85627783 C802.667299,3.28913624 802.271006,2.70142476 801.873251,2.30031167 C801.047032,1.46723063 800,1.42021371 800,1.42021371 L800,1 L803.38823,1 C804.096,1.81985752 804.787685,3.11576135 805.2103,3.75048976 C807.738677,7.5515138 812.546834,11.8197685 821.284286,16.4377115 C828.158723,20.1814337 832.076318,24.3997329 834.266896,27.6233304 L834.266896,1 L837,1 Z" id="Fill-36" fill="#081F2D" mask="url(#mask-4)"></path>
                    <path d="M903.99935,25.8171608 C903.99935,27.4487984 903.451071,28.9633743 902.350197,30.363779 C901.250761,31.7627385 899.696585,32.8871088 897.702059,33.7311091 C895.707533,34.5779998 893.441027,35 890.906856,35 C887.664672,35 885.107477,34.6791643 883.235271,34.0331572 C881.36882,33.3857048 879.623251,32.5258073 878,31.4476835 L878,27.7089355 L878.434594,27.7089355 C879.266366,28.8174085 880.069357,29.7567925 880.834932,30.5227517 C881.370259,31.0574779 882.14303,31.5936494 883.137415,32.1269304 C883.192099,32.1572797 883.268369,32.1934099 883.356151,32.236766 C884.861399,32.9680403 886.494723,33.3943761 888.164023,33.4998761 C889.015942,33.554794 889.931179,33.5822529 890.906856,33.5822529 C891.319864,33.5822529 891.722799,33.5678008 892.119977,33.5475679 C892.184734,33.5446775 892.248053,33.5403419 892.311371,33.5360063 C892.438007,33.5287802 892.564644,33.5215542 892.688402,33.5114378 C892.839503,33.4984309 892.990603,33.4868693 893.138826,33.4695268 C893.488515,33.4348419 893.833888,33.3943761 894.170626,33.3423487 C895.232646,33.1790404 896.251495,32.8350813 897.201269,32.3509373 C898.506489,31.7280535 899.541168,30.9346354 900.298109,29.970683 C901.151467,28.8882236 901.574548,27.7147163 901.574548,26.4530514 C901.574548,26.3547774 901.570231,26.2579486 901.564474,26.1596746 C901.55584,26.0064828 901.542889,25.8547361 901.52562,25.7058799 C901.417691,24.8214138 901.114051,24.0251053 900.611822,23.3227352 C900.342719,22.9021802 900.003103,22.5076389 899.5829,22.143447 C898.399999,21.1144603 896.963826,20.2950285 895.278696,19.6822611 C894.567804,19.422124 893.058239,18.9567677 891.514136,18.4928566 C890.88527,18.3049798 890.24921,18.1142126 889.662076,17.942233 C887.480474,17.2962259 885.359311,16.4710133 883.328809,15.444917 C882.944582,15.2512594 882.64382,15.0893963 882.502793,14.9940127 C881.626411,14.4058139 880.840688,13.7294574 880.151383,12.9649434 C879.211682,11.9316211 878.666281,10.7060864 878.496473,9.29845569 C878.476326,9.11780494 878.460497,8.93715418 878.448984,8.75361302 C878.441789,8.62354447 878.434594,8.4876951 878.434594,8.35184573 C878.434594,6.72165332 878.936823,5.27500206 879.931208,4.01478239 C880.931349,2.75167231 882.322912,1.76748699 884.108775,1.06078124 C885.898956,0.352630275 887.955361,0 890.283747,0 C891.780361,0 893.455417,0.197993228 895.301721,0.598315303 C896.147883,0.780411264 896.95663,0.995746965 897.736596,1.23709637 C898.663346,1.52180197 899.548363,1.84552812 900.385891,2.21405566 L900.385891,5.9051119 L899.949858,5.9051119 C899.15838,4.7330498 898.00426,3.68383021 896.494695,2.75167231 C896.47167,2.73577504 896.393961,2.7010901 896.280276,2.65195309 C894.399435,1.83541168 892.37325,1.41774713 890.325479,1.41774713 L890.283747,1.41774713 C889.711004,1.41774713 889.156969,1.43798001 888.617325,1.47700058 C886.542212,1.62874721 884.553442,2.40337765 882.924436,3.69972748 C882.769018,3.82256999 882.640942,3.93385085 882.554599,4.02345363 C882.381913,4.20121397 882.229373,4.38186473 882.086907,4.5668511 C882.072517,4.58708399 882.053809,4.60442646 882.03798,4.62465934 C881.312697,5.54381039 880.947178,6.5988108 880.947178,7.78677017 C880.947178,7.88793459 880.951495,7.9847634 880.957252,8.0815922 C880.965886,8.21599637 880.978837,8.34751012 880.993228,8.47757866 C881.042156,8.8692295 881.128499,9.24209266 881.256574,9.59472293 C881.506969,10.4083739 882.009199,11.130977 882.774774,11.7567512 C882.840971,11.8102238 882.911484,11.860806 882.979119,11.9128334 C883.274125,12.1700801 883.583521,12.4114295 883.915942,12.632546 C883.992212,12.6831283 884.128922,12.7597242 884.304486,12.8522174 C884.908888,13.2453134 885.58956,13.5964985 886.358013,13.9014369 C887.559622,14.3841358 889.224605,14.960773 891.345767,15.641465 C893.453978,16.3033694 895.249915,16.9219176 896.737894,17.4956644 C897.155219,17.6719795 897.553837,17.843959 897.922234,18.0159386 C899.607364,18.7847882 901.042099,19.8152201 902.226438,21.1072343 C903.199237,22.1680155 903.764785,23.4166735 903.937471,24.8488727 C903.961935,25.0410851 903.977764,25.2376332 903.987838,25.4356264 C903.995033,25.5599141 904.002228,25.685647 903.99935,25.8171608" id="Fill-37" fill="#081F2D" mask="url(#mask-4)"></path>
                    <path d="M937.276511,23.894773 L928.966703,5.06867672 L919.637713,23.894773 L937.276511,23.894773 Z M945,34 L942.013391,34 L937.901918,25.0484044 L920.982628,25.0484044 C919.734709,25.0484044 918.591024,25.7800112 918.022077,26.9438646 L914.68802,34 L913,34 L929.264929,0 L929.636989,0 L941.318494,25.8530258 L943.621788,30.9523687 C943.624683,30.9567496 943.627579,30.9611304 943.629026,30.9655113 L945,34 Z" id="Fill-38" fill="#081F2D" mask="url(#mask-4)"></path>
                    <path d="M972.547383,20.7720837 C973.804242,20.5810775 974.93353,20.2284506 975.935248,19.7156723 C977.524081,18.8958148 978.727302,17.7967943 979.539114,16.4112645 C980.305987,15.1094835 980.704644,13.651959 980.749584,12.0460374 C980.752483,11.95935 980.758282,11.8726625 980.758282,11.7859751 L980.758282,11.7639359 L980.758282,11.7418967 C980.758282,11.6552093 980.752483,11.5685218 980.749584,11.4833037 C980.703195,9.87444346 980.305987,8.41838825 979.539114,7.11513802 C978.730201,5.73254675 977.524081,4.63205699 975.935248,3.81073019 C974.93353,3.29795191 973.804242,2.94532502 972.547383,2.75284951 C972.224107,2.6911398 971.895034,2.64412289 971.561611,2.6088602 C971.636993,2.62061443 971.715275,2.62649154 971.790658,2.64265361 C971.629745,2.61767587 971.461584,2.60739092 971.299221,2.58829029 C971.091919,2.56918967 970.886067,2.54861977 970.672966,2.54127337 L960.703624,2.54127337 L960.703624,15.4988424 L960.709423,15.4988424 L960.709423,20.9439893 L970.18298,20.9439893 C970.577289,20.9439893 970.957101,20.9292965 971.329664,20.9043188 C971.699329,20.8778718 972.058846,20.8396705 972.409664,20.789715 C972.454604,20.7823687 972.502443,20.7808994 972.547383,20.7720837 M985,33.5313001 L984.995651,34 L982.435544,34 C980.423409,34 978.52145,33.0640695 977.274738,31.4640249 L970.314899,22.5264025 L960.709423,22.5264025 L960.709423,34 L958,34 L958,1 L972.895302,1 C974.861047,1 976.674577,1.48045414 978.343141,2.4428317 C980.011705,3.40520926 981.325101,4.71286732 982.293477,6.37021371 C983.253154,8.01874443 983.737342,9.81861086 983.741691,11.7639359 C983.735893,13.7107302 983.253154,15.5076581 982.293477,17.1576581 C981.32655,18.8150045 980.010255,20.1241318 978.343141,21.0850401 C976.918121,21.9078362 975.382926,22.3750668 973.740456,22.4940784 L980.740886,31.4463936 C981.771597,32.7643366 983.340134,33.5327694 985,33.5313001" id="Fill-39" fill="#081F2D" mask="url(#mask-4)"></path>
                    <path d="M1022.27651,23.894773 L1013.9667,5.06867672 L1004.63771,23.894773 L1022.27651,23.894773 Z M1030,34 L1027.01339,34 L1022.90192,25.0484044 L1005.98263,25.0484044 C1004.73471,25.0484044 1003.59102,25.7800112 1003.02208,26.9438646 L999.68802,34 L998,34 L1014.26493,0 L1014.63699,0 L1026.31849,25.8530258 L1028.62179,30.9523687 C1028.62468,30.9567496 1028.62758,30.9611304 1028.62903,30.9655113 L1030,34 Z" id="Fill-40" fill="#081F2D" mask="url(#mask-4)"></path>
                    <polygon id="Fill-41" fill="#081F2D" mask="url(#mask-4)" points="1064 1 1061.91095 4.01936776 1061.90949 4.02083704 1061.46131 4.66878896 1061.42336 4.72315227 1050.49197 20.520837 1050.49197 34 1047.7635 34 1047.7635 20.9028495 1047.76204 20.9043188 1037.75328 6.43045414 1037.74891 6.42016919 1034 1 1037.32555 1 1039.07299 3.52862867 1049.87153 19.15 1060.39416 3.94296527 1062.43066 1"></polygon>
                </g>
            </g>
        </g>
    </g>
</svg>