<?xml version="1.0" encoding="UTF-8"?>
<svg width="90px" height="90px" viewBox="0 0 90 90" version="1.1" xmlns="http://www.w3.org/2000/svg" xmlns:xlink="http://www.w3.org/1999/xlink">
    <title>B6060C13-780F-40F6-B8C2-2E8A3E82FD4D</title>
    <defs>
        <polygon id="path-1" points="0 89.9994588 90.0012628 89.9994588 90.0012628 0 0 0"></polygon>
    </defs>
    <g id="LP-—-SARAY" stroke="none" stroke-width="1" fill="none" fill-rule="evenodd">
        <g id="LP-—-SARAY-——-DESKTOP" transform="translate(-1012.000000, -3779.000000)">
            <g id="footer" transform="translate(0.000000, 3614.000000)">
                <g id="Group-2" transform="translate(735.000000, 111.000000)">
                    <g id="retail-broker" transform="translate(270.000000, 0.000000)">
                        <g id="logo-carre-immobilier" transform="translate(7.000000, 54.000000)">
                            <path d="M7.54306949,0.000541187365 L0.000721583153,75.7613604 L0.000721583153,82.4540442 L75.7435012,90 L82.4596364,90 L90.0001804,14.2644362 L90.0001804,7.54108514 L89.4391495,7.4869664 L14.2574007,0.000541187365 L7.54306949,0.000541187365 Z M2.03378212,80.1810572 L9.81786039,2.03360172 L87.9689238,9.81407207 L80.1866495,87.9651355 L2.03378212,80.1810572 Z" id="Fill-1" fill="#C8CCD0"></path>
                            <g id="Group-23">
                                <path d="M14.5357514,40.7207413 L21.4268706,40.7207413 L21.4268706,42.6473683 L15.1923921,42.6473683 C12.540574,42.6473683 10.9097961,41.2871841 10.9097961,38.7941143 L10.9097961,31.5169482 C10.9097961,29.0238784 12.540574,27.6636941 15.1923921,27.6636941 L21.4268706,27.6636941 L21.4268706,29.5903212 L14.5357514,29.5903212 C13.6283606,29.5903212 13.3343155,29.9998196 13.3343155,31.0190558 L13.3343155,39.2920067 C13.3343155,40.3130468 13.6283606,40.7207413 14.5357514,40.7207413" id="Fill-2" fill="#C8CCD0"></path>
                                <path d="M27.6009164,37.3657404 L32.9947505,37.3657404 L30.2978334,29.7277828 L27.6009164,37.3657404 Z M28.733802,27.6640549 L31.8402174,27.6640549 L37.2791505,42.6477291 L34.8311796,42.6477291 L33.6531951,39.2923675 L26.9208243,39.2923675 L25.7410358,42.6477291 L23.3165164,42.6477291 L28.733802,27.6640549 Z" id="Fill-4" fill="#C8CCD0"></path>
                                <path d="M41.7432246,35.2798239 L46.8646611,35.2798239 C47.5682046,35.2798239 48.067901,35.0308777 48.067901,34.3056867 L48.067901,30.566082 C48.067901,29.839087 47.5682046,29.5901408 46.8646611,29.5901408 L41.7432246,29.5901408 L41.7432246,35.2798239 Z M51.4214587,42.6471879 L48.7912881,42.6471879 L46.2531193,37.206451 L41.7432246,37.206451 L41.7432246,42.6471879 L39.3169013,42.6471879 L39.3169013,27.6635137 L45.8003259,27.6635137 C49.2007865,27.6635137 50.4924204,28.3670573 50.4924204,31.3814709 L50.4924204,34.2822352 C50.4924204,35.9833675 49.4262813,36.8222079 48.5206944,37.0026037 L51.4214587,42.6471879 Z" id="Fill-6" fill="#C8CCD0"></path>
                                <path d="M56.5652642,35.2798239 L61.6885046,35.2798239 C62.3902442,35.2798239 62.8899405,35.0308777 62.8899405,34.3056867 L62.8899405,30.566082 C62.8899405,29.839087 62.3902442,29.5901408 61.6885046,29.5901408 L56.5652642,29.5901408 L56.5652642,35.2798239 Z M66.2434982,42.6471879 L63.6151316,42.6471879 L61.0751589,37.206451 L56.5652642,37.206451 L56.5652642,42.6471879 L54.1407448,42.6471879 L54.1407448,27.6635137 L60.6223655,27.6635137 C64.0228261,27.6635137 65.3144599,28.3670573 65.3144599,31.3814709 L65.3144599,34.2822352 C65.3144599,35.9833675 64.2501248,36.8222079 63.342734,37.0026037 L66.2434982,42.6471879 Z" id="Fill-8" fill="#C8CCD0"></path>
                                <polygon id="Fill-10" fill="#C8CCD0" points="68.962604 27.6642353 79.3209301 27.6642353 79.3209301 29.5908624 71.3871233 29.5908624 71.3871233 33.9203613 78.640838 33.9203613 78.640838 35.8469883 71.3871233 35.8469883 71.3871233 40.7212825 79.3209301 40.7212825 79.3209301 42.6479095 68.962604 42.6479095"></polygon>
                                <mask id="mask-2" fill="white">
                                    <use xlink:href="#path-1"></use>
                                </mask>
                                <g id="Clip-13"></g>
                                <polygon id="Fill-12" fill="#C8CCD0" mask="url(#mask-2)" points="10.5242903 62.3556082 11.8357677 62.3556082 11.8357677 54.2161502 10.5242903 54.2161502"></polygon>
                                <polygon id="Fill-14" fill="#C8CCD0" mask="url(#mask-2)" points="13.7982935 54.2157894 16.1398308 54.2157894 16.1398308 54.2284171 18.3081882 61.4677001 20.4783495 54.2284171 20.4783495 54.2157894 22.8216908 54.2157894 22.8216908 62.3552474 21.5102134 62.3552474 21.5102134 54.8922736 19.1668721 62.3552474 17.4513082 62.3552474 15.1097708 54.8922736 15.1097708 62.3552474 13.7982935 62.3552474"></polygon>
                                <polygon id="Fill-15" fill="#C8CCD0" mask="url(#mask-2)" points="24.7852989 54.2157894 27.1268363 54.2157894 27.1268363 54.2284171 29.2969976 61.4677001 31.4671589 54.2284171 31.4671589 54.2157894 33.8086963 54.2157894 33.8086963 62.3552474 32.4972189 62.3552474 32.4972189 54.8922736 30.1556816 62.3552474 28.4383137 62.3552474 26.0967763 54.8922736 26.0967763 62.3552474 24.7852989 62.3552474"></polygon>
                                <path d="M37.4887704,61.308591 L40.3462396,61.308591 C40.8351122,61.308591 40.9938605,61.0867042 40.9938605,60.5328892 L40.9938605,56.0374261 C40.9938605,55.483611 40.8351122,55.2617242 40.3462396,55.2617242 L37.4887704,55.2617242 C36.9980938,55.2617242 36.8393455,55.483611 36.8393455,56.0374261 L36.8393455,60.5328892 C36.8393455,61.0867042 36.9980938,61.308591 37.4887704,61.308591 L37.4887704,61.308591 Z M42.3071419,60.2622955 C42.3071419,61.6152639 41.4250065,62.3548866 39.989056,62.3548866 L37.8441501,62.3548866 C36.4100035,62.3548866 35.5278681,61.6152639 35.5278681,60.2622955 L35.5278681,56.3080198 C35.5278681,54.9550514 36.4100035,54.2154287 37.8441501,54.2154287 L39.989056,54.2154287 C41.4250065,54.2154287 42.3071419,54.9550514 42.3071419,56.3080198 L42.3071419,60.2622955 Z" id="Fill-16" fill="#C8CCD0" mask="url(#mask-2)"></path>
                                <path d="M45.3368891,61.308591 L48.511855,61.308591 C49.0025316,61.308591 49.1630838,61.2093734 49.1630838,60.7800314 L49.1630838,59.2773345 C49.1630838,58.8461885 49.0025316,58.7469709 48.511855,58.7469709 L45.3368891,58.7469709 L45.3368891,61.308591 Z M45.3368891,57.6393407 L48.4631481,57.6393407 C48.9538247,57.6393407 49.112573,57.540123 49.112573,57.1089771 L49.112573,55.7920878 C49.112573,55.3609419 48.9538247,55.2617242 48.4631481,55.2617242 L45.3368891,55.2617242 L45.3368891,57.6393407 Z M44.0254118,54.2154287 L48.1330239,54.2154287 C49.8972947,54.2154287 50.4240504,54.8810891 50.4240504,55.9400124 L50.4240504,56.7157143 C50.4240504,57.6393407 49.7998809,58.2292349 49.1504561,58.1931558 C49.7998809,58.2292349 50.4493058,58.698264 50.4493058,59.6579696 L50.4493058,60.6303029 C50.4493058,61.6910301 49.8972947,62.3548866 48.1330239,62.3548866 L44.0254118,62.3548866 L44.0254118,54.2154287 Z" id="Fill-17" fill="#C8CCD0" mask="url(#mask-2)"></path>
                                <polygon id="Fill-18" fill="#C8CCD0" mask="url(#mask-2)" points="52.1668541 62.3556082 53.4783315 62.3556082 53.4783315 54.2161502 52.1668541 54.2161502"></polygon>
                                <polygon id="Fill-19" fill="#C8CCD0" mask="url(#mask-2)" points="55.4415788 54.2157894 56.7530562 54.2157894 56.7530562 61.3089518 61.044672 61.3089518 61.044672 62.3552474 55.4415788 62.3552474"></polygon>
                                <polygon id="Fill-20" fill="#C8CCD0" mask="url(#mask-2)" points="62.3934913 62.3556082 63.7049687 62.3556082 63.7049687 54.2161502 62.3934913 54.2161502"></polygon>
                                <polygon id="Fill-21" fill="#C8CCD0" mask="url(#mask-2)" points="65.6685769 54.2157894 71.2698661 54.2157894 71.2698661 55.262085 66.9800542 55.262085 66.9800542 57.6144461 70.9036626 57.6144461 70.9036626 58.6607417 66.9800542 58.6607417 66.9800542 61.3089518 71.2698661 61.3089518 71.2698661 62.3552474 65.6685769 62.3552474"></polygon>
                                <path d="M74.4233649,58.3526257 L77.1942442,58.3526257 C77.5748793,58.3526257 77.843669,58.2173288 77.843669,57.824066 L77.843669,55.7910055 C77.843669,55.3977426 77.5748793,55.2624458 77.1942442,55.2624458 L74.4233649,55.2624458 L74.4233649,58.3526257 Z M79.6584506,62.3556082 L78.2369318,62.3556082 L76.8623159,59.4007252 L74.4233649,59.4007252 L74.4233649,62.3556082 L73.1118875,62.3556082 L73.1118875,54.2161502 L76.6169776,54.2161502 C78.4570147,54.2161502 79.1551464,54.5967853 79.1551464,56.2347791 L79.1551464,57.8114383 C79.1551464,58.7350647 78.5778799,59.1896621 78.0890073,59.2888798 L79.6584506,62.3556082 Z" id="Fill-22" fill="#C8CCD0" mask="url(#mask-2)"></path>
                            </g>
                        </g>
                    </g>
                </g>
            </g>
        </g>
    </g>
</svg>