<?xml version="1.0" encoding="UTF-8"?>
<svg width="301px" height="104px" viewBox="0 0 301 104" version="1.1" xmlns="http://www.w3.org/2000/svg" xmlns:xlink="http://www.w3.org/1999/xlink">
    <title>E1D76B99-F9F3-4643-BB72-03108161EB65</title>
    <defs>
        <polygon id="path-1" points="0 104 301 104 301 0 0 0"></polygon>
    </defs>
    <g id="LP-—-SARAY" stroke="none" stroke-width="1" fill="none" fill-rule="evenodd">
        <g id="LP-—-SARAY-——-DESKTOP" transform="translate(-75.000000, -80.000000)">
            <g id="logo" transform="translate(75.000000, 80.000000)">
                <path d="M0,90.8673314 L9.00469791,90.8673314 C11.1039004,94.5997446 15.2341309,96.1995501 20.3798755,96.1995501 C26.0681744,96.1995501 29.8589533,93.9326929 29.8589533,90.4659816 C29.8589533,87.2663708 27.6248225,85.6665653 22.2759751,85.1323646 L14.5566481,84.3995866 C5.14574456,83.5339576 1.28679122,78.4674409 1.28679122,71.866845 C1.28679122,63.7335684 8.19228668,58 19.1612586,58 C30.4015077,58 36.8340435,64.5334711 39,71.1326686 L29.9953021,71.1326686 C28.4372337,67.865933 23.9007976,65.8004499 19.0263302,65.8004499 C13.0681744,65.8004499 10.1565607,68.46586 10.1565607,71.5997446 C10.1565607,74.5336536 12.52562,76.1991853 16.5876762,76.6662613 L24.8481372,77.466164 C33.5162242,78.3331915 38.7287228,83.1997325 38.7287228,90.133155 C38.7287228,97.3336779 32.5674642,104 20.3798755,104 C8.46356386,104 2.36905932,98.3321578 0,90.8673314" id="Fill-1" fill="#FFFFFF"></path>
                <path d="M77.7098078,85.5050862 L90.9578394,85.5050862 L84.3666399,70.5289063 L77.7098078,85.5050862 Z M108,103 L98.7471848,103 L94.4196155,93.2586719 L74.2480316,93.2586719 L69.9204623,103 L61,103 L80.2387616,59 L88.7598419,59 L108,103 Z" id="Fill-3" fill="#FFFFFF"></path>
                <path d="M141.836222,78.3492134 L154.516802,78.3492134 C159.103997,78.3492134 161.802264,76.0306438 161.802264,72.5180388 C161.802264,69.0054338 159.103997,66.7535856 154.516802,66.7535856 L141.836222,66.7535856 L141.836222,78.3492134 Z M159.576583,85.7052505 L173,103 L162.004599,103 L148.917934,86.102799 L141.836222,86.102799 L141.836222,103 L133,103 L133,59 L155.125221,59 C165.782455,59 170.638486,65.2954445 170.638486,72.5180388 C170.638486,78.6814305 167.130881,84.3138308 159.576583,85.7052505 L159.576583,85.7052505 Z" id="Fill-5" fill="#FFFFFF"></path>
                <path d="M211.709808,85.5050862 L224.957839,85.5050862 L218.36664,70.5289063 L211.709808,85.5050862 Z M242,103 L232.747185,103 L228.419616,93.2586719 L208.248032,93.2586719 L203.920462,103 L195,103 L214.238762,59 L222.759842,59 L242,103 Z" id="Fill-7" fill="#FFFFFF"></path>
                <polygon id="Fill-9" fill="#FFFFFF" points="291.59223 59 301 59 283.906461 87.4942187 283.906461 103 275.226963 103 275.226963 87.4942187 258 59 267.541194 59 279.599373 78.7467619"></polygon>
                <mask id="mask-2" fill="white">
                    <use xlink:href="#path-1"></use>
                </mask>
                <g id="Clip-12"></g>
                <polygon id="Fill-11" fill="#F93549" mask="url(#mask-2)" points="66 31 102 31 102 0 66 0"></polygon>
            </g>
        </g>
    </g>
</svg>