<?xml version="1.0" encoding="UTF-8"?>
<svg width="91px" height="90px" viewBox="0 0 91 90" version="1.1" xmlns="http://www.w3.org/2000/svg" xmlns:xlink="http://www.w3.org/1999/xlink">
    <title>25D0515A-AB1D-424D-A096-349672B49135</title>
    <g id="LP-—-SARAY" stroke="none" stroke-width="1" fill="none" fill-rule="evenodd">
        <g id="LP-—-SARAY-——-DESKTOP" transform="translate(-1253.000000, -3779.000000)" fill="#C8CCD0">
            <g id="footer" transform="translate(0.000000, 3614.000000)">
                <g id="Group-2" transform="translate(735.000000, 111.000000)">
                    <g id="facility-manager" transform="translate(495.000000, 0.000000)">
                        <g id="logo-tais" transform="translate(23.500000, 54.000000)">
                            <path d="M0,90 L90,90 L90,0 L0,0 L0,90 Z M2.21110264,87.7888974 L87.7888974,87.7888974 L87.7888974,2.21110264 L2.21110264,2.21110264 L2.21110264,87.7888974 Z" id="Fill-1"></path>
                            <g id="Group-34" transform="translate(11.837973, 36.029963)">
                                <path d="M66.3245959,13.2924271 C66.3245959,13.8898761 66.1621475,14.4530304 65.8444707,14.980085 C65.519574,15.5089447 65.026814,15.97102 64.3625807,16.364506 C63.6965425,16.761602 62.8644459,17.0720589 61.866291,17.2958766 C60.8663311,17.5196944 59.685873,17.6316032 58.3195018,17.6316032 C57.6209739,17.6316032 56.9007862,17.5756488 56.1661586,17.46013 C55.53622,17.3662709 54.841302,17.2236773 54.0850146,17.0305443 C53.3251173,16.8338013 52.5904898,16.5522241 51.8793269,16.1876178 L52.8901167,13.8646063 C52.9117765,13.8158718 52.9695359,13.794212 53.0182704,13.8158718 C53.0182704,13.8158718 54.1969235,14.3483414 54.8340821,14.5234247 C55.4694356,14.7021178 56.0470298,14.8320765 56.5650596,14.9133007 C57.1697285,15.0035498 57.7563475,15.0558943 58.3195018,15.0685291 C60.0396494,15.0685291 61.3229915,14.9133007 62.1677229,14.6028438 C63.0106494,14.294192 63.4330151,13.8844611 63.4330151,13.3808712 C63.4330151,13.0595845 63.2994465,12.8231318 63.0377241,12.6715134 C62.7705868,12.5235049 62.3626609,12.4386707 61.8157515,12.415206 C61.6875978,12.4025711 61.4493402,12.3881312 61.0991737,12.3736914 C60.7508122,12.3556416 60.3212266,12.3357868 59.8194417,12.312322 C59.3104368,12.2888572 58.7490875,12.2635875 58.1317837,12.2437327 C57.51087,12.218463 56.8664915,12.1913882 56.2022582,12.1588986 C55.53622,12.1227989 54.9261361,12.0307449 54.3683968,11.8791264 C53.8124624,11.7311179 53.3287273,11.5163251 52.9226064,11.2365529 C52.5146805,10.9567807 52.1970037,10.6120292 51.967771,10.2041033 C51.7367334,9.79617745 51.6230195,9.31966227 51.6230195,8.76553287 C51.6230195,8.21681842 51.8017127,7.69878866 52.1645141,7.2096386 C52.5273154,6.72048855 53.0435402,6.29812282 53.7131884,5.93532149 C54.3846416,5.57252016 55.2004934,5.290943 56.1589387,5.0833701 C57.119189,4.87760218 58.1895431,4.77471822 59.3681962,4.77471822 C60.0703341,4.77471822 60.7814969,4.82525771 61.5034896,4.92814167 C62.1244034,5.02019574 62.8139064,5.15376439 63.5792186,5.32343267 C64.3409209,5.49671092 65.0845734,5.74940837 65.8065661,6.07972003 L64.93115,8.3666319 C64.9131002,8.41717139 64.8571457,8.44063616 64.8066062,8.42258634 C64.8066062,8.42258634 64.138763,8.16447395 63.6911275,8.02729534 C63.243492,7.88831174 62.7741968,7.76918294 62.2868517,7.66629899 C61.7995066,7.56341503 61.3049416,7.48219085 60.8085717,7.42623641 C60.3085917,7.368477 59.8284666,7.33779231 59.3681962,7.33779231 C58.6804982,7.33779231 58.0415346,7.37028198 57.4476956,7.43345634 C56.8574666,7.4966307 56.3466568,7.59229473 55.9080462,7.71683847 C55.4730456,7.8431872 55.1319041,7.99661065 54.8864265,8.18252377 C54.639144,8.3666319 54.5146003,8.57239982 54.5146003,8.80163251 C54.5146003,9.09945449 54.639144,9.32327223 54.8918415,9.47128073 C55.1427339,9.6228992 55.5181701,9.70953833 56.0109302,9.72939313 C56.5650596,9.75466287 57.3357868,9.78895752 58.3375516,9.83408207 C59.3357066,9.88101159 60.5179696,9.93335606 61.8825358,9.98750552 C62.5720388,10.0236052 63.1875376,10.1138542 63.7326421,10.2654727 C64.2777466,10.4152862 64.7434319,10.6264691 65.129698,10.9008263 C65.5105491,11.1787935 65.8065661,11.5163251 66.012334,11.917031 C66.218102,12.317737 66.3245959,12.7780073 66.3245959,13.2924271" id="Fill-2"></path>
                                <path d="M46.5540893,13.7702058 C46.487305,13.6817617 46.4331555,13.5157033 46.4331555,13.4037945 L46.4331555,5.77233164 C46.4331555,5.66222775 46.5234046,5.57017368 46.6353135,5.57017368 L49.2597569,5.57017368 C49.3698608,5.57017368 49.4637199,5.66222775 49.4637199,5.77233164 L49.4637199,17.5317877 C49.4637199,17.6473066 49.4095704,17.6653564 49.3427861,17.5751073 L46.5540893,13.7702058 Z" id="Fill-4"></path>
                                <path d="M25.8031166,5.50375035 C25.6912077,5.50375035 25.6009586,5.59580442 25.6009586,5.70771329 L25.6009586,9.79419197 C25.6009586,9.90429586 25.5070996,9.99634993 25.3951907,9.99634993 L23.2996069,9.99634993 L22.893486,9.99634993 L21.4476956,9.99634993 L21.0415747,9.99634993 L17.0922747,9.99634993 C16.9803658,9.99634993 16.8883117,9.90429586 16.8883117,9.79419197 L16.8883117,5.70771329 C16.8883117,5.59580442 16.8341623,5.5777546 16.767378,5.66800369 L13.9786812,9.45846536 C13.9118968,9.54871445 13.8577474,9.71296779 13.8577474,9.82668164 L13.8577474,17.4689744 C13.8577474,17.5808832 13.9498015,17.6711323 14.0617103,17.6711323 L16.6861538,17.6711323 C16.7980627,17.6711323 16.8883117,17.5808832 16.8883117,17.4689744 L16.8883117,12.7994866 C16.8883117,12.6875777 16.9803658,12.5955236 17.0922747,12.5955236 L21.0415747,12.5955236 L21.4476956,12.5955236 L22.893486,12.5955236 L23.2996069,12.5955236 L25.3951907,12.5955236 C25.5070996,12.5955236 25.6009586,12.6875777 25.6009586,12.7994866 L25.6009586,17.4689744 C25.6009586,17.5808832 25.6551081,17.5989331 25.7218924,17.508684 L28.5087842,13.7164173 C28.5755686,13.6243632 28.631523,13.4619149 28.631523,13.350006 L28.631523,5.70771329 C28.631523,5.59580442 28.537664,5.50375035 28.4257551,5.50375035 L25.8031166,5.50375035 Z" id="Fill-6"></path>
                                <path d="M0.202157956,5.50375035 C0.0902490875,5.50375035 -3.20629168e-15,5.59580442 -3.20629168e-15,5.70771329 L-3.20629168e-15,7.90076611 C-3.20629168e-15,8.01087 0.0902490875,8.10111909 0.202157956,8.10111909 L5.22000722,8.10111909 C5.33011111,8.10111909 5.42216518,8.19317316 5.42216518,8.30508203 L5.42216518,17.4689744 C5.42216518,17.5808832 5.51421925,17.6711323 5.62612811,17.6711323 L8.23071678,17.6711323 C8.34262565,17.6711323 8.43467972,17.5808832 8.43467972,17.4689744 L8.43467972,8.30508203 C8.43467972,8.19317316 8.52673379,8.10111909 8.63864265,8.10111909 L11.7377963,8.10111909 C11.8479002,8.10111909 11.9941037,8.02891982 12.0608881,7.94047571 L13.7377161,5.66619871 C13.8045004,5.5777546 13.7665958,5.50375035 13.6564919,5.50375035 L0.202157956,5.50375035 Z" id="Fill-8"></path>
                                <path d="M46.4694356,17.6142754 L37.6539048,5.67973607 C37.6196101,5.63461153 37.5744856,5.61114677 37.529361,5.61114677 L37.529361,17.7767238 L46.3846015,17.7767238 C46.5001203,17.7767238 46.5380249,17.7045245 46.4694356,17.6142754" id="Fill-10"></path>
                                <path d="M28.5928964,17.6142754 L37.4084273,5.67973607 C37.4409169,5.63461153 37.4860415,5.61114677 37.529361,5.61114677 L37.529361,17.7767238 L28.6777305,17.7767238 C28.5640167,17.7767238 28.5261121,17.7045245 28.5928964,17.6142754" id="Fill-12"></path>
                                <path d="M41.439854,15.2854879 C41.5553728,15.2854879 41.5932774,15.2096787 41.5246881,15.1194296 L37.5320685,9.70989932 L37.5284585,9.7117043 L37.5284585,15.2854879 L41.439854,15.2854879 Z" id="Fill-14"></path>
                                <path d="M33.6199511,15.2854879 L37.5295415,15.2854879 L37.5295415,9.7117043 L33.5351169,15.1194296 C33.4683326,15.2096787 33.5044322,15.2854879 33.6199511,15.2854879" id="Fill-16"></path>
                                <path d="M49.5422366,0.208294894 C49.4935021,0.248004492 49.4628174,0.302153945 49.4628174,0.367133288 L49.4628174,0.950142393 L49.4628174,1.24796438 L49.4628174,1.54759135 L49.4628174,2.91576752 C49.4628174,2.98074686 49.4935021,3.0367013 49.5422366,3.07280093 L50.9735871,1.6414504 L49.5422366,0.208294894 Z" id="Fill-18"></path>
                                <path d="M50.9728651,1.6416309 L49.5415146,3.07298143 C49.5758092,3.10005615 49.6173238,3.11991095 49.6660583,3.11991095 L52.2796719,3.11991095 C52.3284064,3.11991095 52.369921,3.10005615 52.4060206,3.07298143 L50.9728651,1.6416309 Z" id="Fill-20"></path>
                                <path d="M52.4850788,2.91630901 L52.4850788,1.54813285 L52.4850788,1.24850588 L52.4850788,0.950683888 L52.4850788,0.365869801 C52.4850788,0.300890458 52.4525891,0.246741005 52.4056596,0.208836388 L50.9725041,1.6419919 L52.4056596,3.07334243 C52.4525891,3.03543781 52.4850788,2.97948337 52.4850788,2.91630901" id="Fill-22"></path>
                                <path d="M50.9728651,1.6416309 L52.4060206,0.208475392 C52.369921,0.181400666 52.3284064,0.163350848 52.2796719,0.163350848 L49.6660583,0.163350848 C49.6173238,0.163350848 49.5758092,0.181400666 49.5415146,0.208475392 L50.9728651,1.6416309 Z" id="Fill-24"></path>
                                <path d="M43.4904938,0.256487907 C43.4417593,0.294392523 43.4110746,0.348541976 43.4110746,0.413521319 L43.4110746,0.998335406 L43.4110746,1.29615739 L43.4110746,1.59397938 L43.4110746,2.96396053 C43.4110746,3.02893987 43.4417593,3.08308933 43.4904938,3.12279893 L44.9218443,1.68964342 L43.4904938,0.256487907 Z" id="Fill-26"></path>
                                <path d="M44.9209418,1.69000441 L43.4895913,3.12135494 C43.5238859,3.14842967 43.5654005,3.16828447 43.614135,3.16828447 L46.2277486,3.16828447 C46.2764831,3.16828447 46.3179977,3.14842967 46.3540973,3.12135494 L44.9209418,1.69000441 Z" id="Fill-28"></path>
                                <path d="M46.4331555,2.96323854 L46.4331555,1.59506237 L46.4331555,1.2954354 L46.4331555,0.997613413 L46.4331555,0.412799326 C46.4331555,0.347819983 46.4024708,0.293670531 46.3537363,0.257570896 L44.9205808,1.6907264 L46.3537363,3.12027195 C46.4024708,3.08236733 46.4331555,3.02821788 46.4331555,2.96323854" id="Fill-30"></path>
                                <path d="M44.9209418,1.69000441 L46.3540973,0.256848903 C46.3179977,0.229774177 46.2764831,0.209919377 46.2277486,0.209919377 L43.614135,0.209919377 C43.5654005,0.209919377 43.5238859,0.229774177 43.4895913,0.256848903 L44.9209418,1.69000441 Z" id="Fill-32"></path>
                            </g>
                        </g>
                    </g>
                </g>
            </g>
        </g>
    </g>
</svg>