<?xml version="1.0" encoding="UTF-8"?>
<svg width="122px" height="90px" viewBox="0 0 122 90" version="1.1" xmlns="http://www.w3.org/2000/svg" xmlns:xlink="http://www.w3.org/1999/xlink">
    <title>7B34BEF9-8322-460E-BA41-A0B04FB65C92</title>
    <defs>
        <polygon id="path-1" points="0 0 25.1757907 0 25.1757907 23.8075766 0 23.8075766"></polygon>
        <polygon id="path-3" points="0 0 28.28224 0 28.28224 23.8075766 0 23.8075766"></polygon>
        <polygon id="path-5" points="4.29255274e-16 0 121.999807 0 121.999807 5.85816352 4.29255274e-16 5.85816352"></polygon>
    </defs>
    <g id="LP-—-SARAY" stroke="none" stroke-width="1" fill="none" fill-rule="evenodd">
        <g id="LP-—-SARAY-——-DESKTOP" transform="translate(-750.000000, -3779.000000)">
            <g id="footer" transform="translate(0.000000, 3614.000000)">
                <g id="Group-2" transform="translate(735.000000, 111.000000)">
                    <g id="logo-rama" transform="translate(15.000000, 54.000000)">
                        <polygon id="Fill-1" fill="#C8CCD0" points="38 0 38 46.6666667 84.6666667 46.6666667 84.6666667 33.3592995 51.3319522 33.3592995 51.3319522 0"></polygon>
                        <polygon id="Fill-2" fill="#C8CCD0" points="54.6666667 0 54.6666667 30 68 30 68 13.3322591 84.6666667 13.3322591 84.6666667 0"></polygon>
                        <polygon id="Fill-3" fill="#C8CCD0" points="71.3333333 30 84.6666667 30 84.6666667 16.6666667 71.3333333 16.6666667"></polygon>
                        <g id="Group-17" transform="translate(0.000000, 56.000000)">
                            <g id="Group-6">
                                <mask id="mask-2" fill="white">
                                    <use xlink:href="#path-1"></use>
                                </mask>
                                <g id="Clip-5"></g>
                                <path d="M19.2814825,23.8075766 L13.2615168,16.8344092 C13.0082684,16.8578419 12.6293624,16.8695582 12.1247988,16.8695582 L5.47267858,16.8695582 L5.47267858,23.8075766 L-0.000193319389,23.8075766 L-0.000193319389,0 L12.1247988,0 C14.6785479,0 16.9036541,0.339773484 18.7981841,1.01932045 C20.6927141,1.69886742 22.1445427,2.67522801 23.1556031,3.94449677 C24.1647303,5.21376554 24.6712271,6.723219 24.6712271,8.46895173 C24.6712271,10.2595971 24.1299328,11.8022468 23.0492774,13.0949482 C21.968622,14.3856969 20.4182005,15.3503412 18.3980129,15.9849755 L25.1757907,23.8075766 L19.2814825,23.8075766 Z M17.3038252,4.96576995 C16.0665811,4.1495325 14.2571116,3.74141377 11.8715504,3.74141377 L5.47267858,3.74141377 L5.47267858,13.229686 L11.8715504,13.229686 C14.2571116,13.229686 16.0665811,12.8176618 17.3038252,11.989708 C18.5372029,11.1617542 19.1558249,9.98816881 19.1558249,8.46895173 C19.1558249,6.94973466 18.5372029,5.7820074 17.3038252,4.96576995 L17.3038252,4.96576995 Z" id="Fill-4" fill="#C8CCD0" mask="url(#mask-2)"></path>
                            </g>
                            <path d="M50.0525163,18.2973879 L37.0923845,18.2973879 L34.5367022,23.8079671 L29.5761266,23.8079671 L41.2390854,0.000390544235 L45.9792768,0.000390544235 L57.6808994,23.8079671 L52.6449293,23.8079671 L50.0525163,18.2973879 Z M48.4595646,14.8293551 L43.5724504,4.42135128 L38.7220669,14.8293551 L48.4595646,14.8293551 Z" id="Fill-7" fill="#C8CCD0"></path>
                            <polygon id="Fill-9" fill="#C8CCD0" points="84.9427996 23.8075766 84.9080022 8.02568403 76.730592 21.087436 74.6678741 21.087436 66.490464 8.23071975 66.490464 23.8075766 62.0808487 23.8075766 62.0808487 0 65.8853743 0 75.7697946 15.7818925 85.4763612 0 89.2808867 0 89.3176174 23.8075766"></polygon>
                            <g id="Group-13" transform="translate(93.717760, 0.000000)">
                                <mask id="mask-4" fill="white">
                                    <use xlink:href="#path-3"></use>
                                </mask>
                                <g id="Clip-12"></g>
                                <path d="M11.7383533,0 L0,23.8075766 L4.99150662,23.8075766 L7.56458769,18.2969974 L20.6059137,18.2969974 L23.2137922,23.8075766 L28.2826266,23.8075766 L16.5075426,0 L11.7383533,0 Z M14.0852507,4.42096074 L19.0032959,14.8289646 L9.20393611,14.8289646 L14.0852507,4.42096074 Z" id="Fill-11" fill="#C8CCD0" mask="url(#mask-4)"></path>
                            </g>
                            <g id="Group-16" transform="translate(0.000193, 28.141836)">
                                <mask id="mask-6" fill="white">
                                    <use xlink:href="#path-5"></use>
                                </mask>
                                <g id="Clip-15"></g>
                                <path d="M1.19471382,1.07790209 L1.55622108,1.07790209 C1.94285986,1.07790209 2.22703936,1.134531 2.41069278,1.24974155 C2.5943462,1.36299938 2.68713951,1.55631878 2.68713951,1.8257943 C2.68713951,2.09722254 2.59627939,2.29835282 2.41649236,2.4252797 C2.23670533,2.55220657 1.95832541,2.61664637 1.57941941,2.61664637 L1.19471382,2.61664637 L1.19471382,1.07790209 Z M1.83073461,3.5969124 L3.17623756,5.78005468 L4.50240857,5.78005468 C4.24529378,5.40708493 3.69240033,4.58108388 2.84372821,3.30009878 C3.17817075,3.1536447 3.43721874,2.94860897 3.61893896,2.68694434 C3.80065919,2.42723242 3.89345249,2.12846608 3.89345249,1.79455076 C3.89345249,1.22045073 3.70979907,0.792804797 3.34249224,0.511612948 C2.9732522,0.230421099 2.40682639,0.089825174 1.64128161,0.089825174 L4.29255274e-16,0.089825174 L4.29255274e-16,5.78005468 L1.19471382,5.78005468 L1.19471382,3.5969124 L1.83073461,3.5969124 Z M10.1144704,4.78416688 L8.06335171,4.78416688 L8.06335171,3.31572055 L9.97141408,3.31572055 L9.97141408,2.32764364 L8.06335171,2.32764364 L8.06335171,1.07790209 L10.1144704,1.07790209 L10.1144704,0.089825174 L6.86863789,0.089825174 L6.86863789,5.78005468 L10.1144704,5.78005468 L10.1144704,4.78416688 Z M17.6829245,5.78005468 L15.6878684,0.0663925199 L14.2263738,0.0663925199 L12.2371173,5.78005468 L13.5246245,5.78005468 L13.9344616,4.4268189 L15.9875135,4.4268189 L16.3973506,5.78005468 L17.6829245,5.78005468 Z M14.2341066,3.41335661 C14.6342777,2.1030807 14.8778602,1.28098509 14.9629207,0.949022491 C14.9841858,1.04275311 15.0170501,1.16967998 15.06538,1.33175584 C15.1117766,1.49187898 15.324428,2.18704772 15.703334,3.41335661 L14.2341066,3.41335661 Z M23.530836,5.78005468 L23.530836,4.78416688 L21.2458008,4.78416688 L21.2458008,0.089825174 L20.051087,0.089825174 L20.051087,5.78005468 L23.530836,5.78005468 Z M33.1214109,4.78416688 L31.0702922,4.78416688 L31.0702922,3.31572055 L32.9783546,3.31572055 L32.9783546,2.32764364 L31.0702922,2.32764364 L31.0702922,1.07790209 L33.1214109,1.07790209 L33.1214109,0.089825174 L29.8755784,0.089825174 L29.8755784,5.78005468 L33.1214109,5.78005468 L33.1214109,4.78416688 Z M38.9867212,3.25909164 C38.7914686,3.00523789 38.4299613,2.74943141 37.9041326,2.49557766 C37.5058947,2.30225826 37.2545795,2.16947322 37.1463206,2.09526982 C37.0399949,2.02301914 36.9626672,1.94491029 36.9143373,1.86680144 C36.8640743,1.78673987 36.840876,1.69496198 36.840876,1.58756231 C36.840876,1.41572285 36.900805,1.27707965 37.0225962,1.1716327 C37.1424542,1.06423304 37.3164417,1.01150957 37.5426253,1.01150957 C37.7320783,1.01150957 37.9253977,1.03689494 38.1225835,1.08571297 C38.3178361,1.134531 38.5672181,1.22240346 38.8687963,1.34737761 L39.2535019,0.408118725 C38.9635228,0.281191849 38.6851429,0.181603069 38.4183622,0.113257828 C38.1535146,0.0429598658 37.8732015,0.0078108847 37.5812892,0.0078108847 C36.9839323,0.0078108847 36.5180326,0.15035953 36.1797236,0.439362264 C35.8414147,0.726412277 35.6732268,1.12281468 35.6732268,1.62661674 C35.6732268,1.89413954 35.7234899,2.12846608 35.8259492,2.32764364 C35.9303416,2.5268212 36.0675984,2.70256611 36.2396527,2.85292564 C36.4117069,3.00328517 36.6688217,3.16145558 37.0148634,3.32353144 C37.3821702,3.50122907 37.6238195,3.63010866 37.7436775,3.71017023 C37.8635355,3.7902318 37.9543956,3.87419881 38.0162578,3.96011854 C38.07812,4.04799099 38.1090512,4.14757977 38.1090512,4.25888488 C38.1090512,4.45806244 38.037523,4.60842197 37.898333,4.70996347 C37.7591431,4.81150497 37.5580909,4.86227572 37.2951765,4.86227572 C37.0767256,4.86227572 36.8350764,4.82712674 36.572162,4.75682878 C36.3092476,4.68653082 35.9864043,4.56546211 35.6074983,4.39557536 L35.6074983,5.51643732 C36.0695316,5.7449057 36.6011599,5.85816352 37.2023832,5.85816352 C37.8558028,5.85816352 38.3642327,5.70975671 38.7315396,5.41489582 C39.0969132,5.1180822 39.2805666,4.71386891 39.2805666,4.20030325 C39.2805666,3.82928622 39.1819738,3.51489811 38.9867212,3.25909164 L38.9867212,3.25909164 Z M44.1328833,1.09352386 L45.6639729,1.09352386 L45.6639729,0.089825174 L41.4090131,0.089825174 L41.4090131,1.09352386 L42.9381695,1.09352386 L42.9381695,5.78005468 L44.1328833,5.78005468 L44.1328833,1.09352386 Z M52.9250491,5.78005468 L50.9280598,0.0663925199 L49.4665653,0.0663925199 L47.4792419,5.78005468 L48.7667491,5.78005468 L49.174653,4.4268189 L51.2296381,4.4268189 L51.637542,5.78005468 L52.9250491,5.78005468 Z M49.474298,3.41335661 C49.8764024,2.1030807 50.1180516,1.28098509 50.2031121,0.949022491 C50.2243773,1.04275311 50.2591747,1.16967998 50.3055714,1.33175584 C50.3539012,1.49187898 50.5665526,2.18704772 50.9435254,3.41335661 L49.474298,3.41335661 Z M57.4661216,1.09352386 L58.9952779,1.09352386 L58.9952779,0.089825174 L54.7403182,0.089825174 L54.7403182,1.09352386 L56.2714077,1.09352386 L56.2714077,5.78005468 L57.4661216,5.78005468 L57.4661216,1.09352386 Z M64.7658617,4.78416688 L62.714743,4.78416688 L62.714743,3.31572055 L64.6228053,3.31572055 L64.6228053,2.32764364 L62.714743,2.32764364 L62.714743,1.07790209 L64.7658617,1.07790209 L64.7658617,0.089825174 L61.5200292,0.089825174 L61.5200292,5.78005468 L64.7658617,5.78005468 L64.7658617,4.78416688 Z M76.0441149,5.78005468 L74.0471256,0.0663925199 L72.5875642,0.0663925199 L70.5983077,5.78005468 L71.8858148,5.78005468 L72.2937187,4.4268189 L74.3487038,4.4268189 L74.7566077,5.78005468 L76.0441149,5.78005468 Z M72.5933638,3.41335661 C72.9954681,2.1030807 73.2371173,1.28098509 73.3221779,0.949022491 C73.343443,1.04275311 73.3782405,1.16967998 73.4246371,1.33175584 C73.472967,1.49187898 73.6856183,2.18704772 74.0625911,3.41335661 L72.5933638,3.41335661 Z M82.3231286,0.824048336 C81.8146986,0.333915321 81.0994169,0.089825174 80.1792166,0.089825174 L78.4103442,0.089825174 L78.4103442,5.78005468 L80.0071623,5.78005468 C81.0027572,5.78005468 81.7663688,5.53205909 82.2941307,5.03216247 C82.8218926,4.53421857 83.084807,3.8175699 83.084807,2.88026373 C83.084807,1.99958648 82.8315586,1.31613407 82.3231286,0.824048336 L82.3231286,0.824048336 Z M80.1173544,4.78416688 L79.605058,4.78416688 L79.605058,1.07790209 L80.2410788,1.07790209 C81.310135,1.07790209 81.8456297,1.68910382 81.8456297,2.91150727 C81.8456297,4.1592961 81.2695379,4.78416688 80.1173544,4.78416688 L80.1173544,4.78416688 Z M88.0589149,3.47584369 C87.8945934,4.07337637 87.7979337,4.4912587 87.7689358,4.72949068 C87.7534702,4.62599646 87.7148064,4.44048795 87.651011,4.17491787 C87.5891488,3.90934779 87.5272866,3.67697397 87.4673575,3.47584369 L86.4079673,0.089825174 L85.2016543,0.089825174 L87.1135831,5.78005468 L88.4165557,5.78005468 L90.3323509,0.089825174 L89.1260379,0.089825174 L88.0589149,3.47584369 Z M92.6985802,5.7820074 L93.893294,5.7820074 L93.893294,0.089825174 L92.6985802,0.089825174 L92.6985802,5.7820074 Z M100.002187,3.25909164 C99.8069341,3.00523789 99.4473601,2.74943141 98.9195981,2.49557766 C98.5213602,2.30225826 98.2681118,2.16947322 98.1617861,2.09526982 C98.0554605,2.02301914 97.9781327,1.94491029 97.9298029,1.86680144 C97.8795398,1.78673987 97.8563415,1.69496198 97.8563415,1.58756231 C97.8563415,1.41572285 97.9162705,1.27707965 98.0380617,1.1716327 C98.1579198,1.06423304 98.3319072,1.01150957 98.5580909,1.01150957 C98.7475439,1.01150957 98.9408633,1.03689494 99.1380491,1.08571297 C99.3333016,1.134531 99.5826837,1.22240346 99.8842619,1.34737761 L100.268967,0.408118725 C99.9789884,0.281191849 99.7006085,0.181603069 99.4338277,0.113257828 C99.1689802,0.0429598658 98.888667,0.0078108847 98.5967548,0.0078108847 C97.9993979,0.0078108847 97.5334981,0.15035953 97.1951892,0.439362264 C96.8568803,0.726412277 96.6886924,1.12281468 96.6886924,1.62661674 C96.6886924,1.89413954 96.7389554,2.12846608 96.8433479,2.32764364 C96.9458072,2.5268212 97.083064,2.70256611 97.2551182,2.85292564 C97.4271725,3.00328517 97.6862204,3.16145558 98.0283958,3.32353144 C98.3957026,3.50122907 98.6412182,3.63010866 98.7591431,3.71017023 C98.8790011,3.7902318 98.9698612,3.87419881 99.0317234,3.96011854 C99.0935856,4.04799099 99.1245167,4.14757977 99.1245167,4.25888488 C99.1245167,4.45806244 99.0549217,4.60842197 98.9137986,4.70996347 C98.7746086,4.81150497 98.5735564,4.86227572 98.3106421,4.86227572 C98.0921912,4.86227572 97.8524751,4.82712674 97.5876276,4.75682878 C97.3247132,4.68653082 97.003803,4.56546211 96.6229638,4.39557536 L96.6229638,5.51643732 C97.0849971,5.7449057 97.6166255,5.85816352 98.2178488,5.85816352 C98.8712683,5.85816352 99.3796983,5.70975671 99.7470051,5.41489582 C100.112379,5.1180822 100.296032,4.71386891 100.296032,4.20030325 C100.296032,3.82928622 100.197439,3.51489811 100.002187,3.25909164 L100.002187,3.25909164 Z M107.40052,0.753750373 C106.942353,0.251901031 106.2812,0 105.41513,0 C104.549059,0 103.88404,0.24994831 103.420074,0.749844931 C102.956107,1.24778883 102.724124,1.97224839 102.724124,2.91931816 C102.724124,3.86638793 102.956107,4.5928002 103.41814,5.09855499 C103.880174,5.60626249 104.543259,5.85816352 105.407397,5.85816352 C106.269601,5.85816352 106.932687,5.60626249 107.39472,5.09855499 C107.858687,4.5928002 108.088737,3.87029337 108.088737,2.92712904 C108.088737,1.98201199 107.86062,1.25755244 107.40052,0.753750373 L107.40052,0.753750373 Z M104.338341,1.48797353 C104.57999,1.16577454 104.939564,1.00369868 105.41513,1.00369868 C106.362395,1.00369868 106.836027,1.64419123 106.836027,2.92712904 C106.836027,4.20616141 106.360461,4.84665395 105.407397,4.84665395 C104.931831,4.84665395 104.57419,4.68653082 104.334474,4.36433182 C104.096691,4.04213283 103.976833,3.56371614 103.976833,2.92712904 C103.976833,2.29054194 104.096691,1.81212525 104.338341,1.48797353 L104.338341,1.48797353 Z M112.10978,1.07790209 L112.471287,1.07790209 C112.857926,1.07790209 113.142106,1.134531 113.325759,1.24974155 C113.509412,1.36299938 113.600273,1.55631878 113.600273,1.8257943 C113.600273,2.09722254 113.511346,2.29835282 113.331559,2.4252797 C113.151772,2.55220657 112.873392,2.61664637 112.494486,2.61664637 L112.10978,2.61664637 L112.10978,1.07790209 Z M112.745801,3.5969124 L114.091304,5.78005468 L115.417475,5.78005468 C115.16036,5.40708493 114.607467,4.58108388 113.758794,3.30009878 C114.093237,3.1536447 114.352285,2.94860897 114.534005,2.68694434 C114.715725,2.42723242 114.806586,2.12846608 114.806586,1.79455076 C114.806586,1.22045073 114.622932,0.792804797 114.255625,0.511612948 C113.888318,0.230421099 113.321893,0.089825174 112.556348,0.089825174 L110.915066,0.089825174 L110.915066,5.78005468 L112.10978,5.78005468 L112.10978,3.5969124 L112.745801,3.5969124 Z M118.369462,0.089825174 L117.074222,0.089825174 L118.94362,3.60472329 L118.94362,5.78005468 L120.130602,5.78005468 L120.130602,3.56566886 L122,0.089825174 L120.712493,0.089825174 L119.537111,2.43309058 L118.369462,0.089825174 Z" id="Fill-14" fill="#C8CCD0" mask="url(#mask-6)"></path>
                            </g>
                        </g>
                    </g>
                </g>
            </g>
        </g>
    </g>
</svg>